<svg width="66" height="68" viewBox="0 0 66 68" fill="none" xmlns="http://www.w3.org/2000/svg">
<g clip-path="url(#clip0_89_6175)">
<path d="M42.7069 31.6612C44.0372 31.6612 45.1157 30.5883 45.1157 29.2647C45.1157 27.9411 44.0372 26.8682 42.7069 26.8682C41.3765 26.8682 40.2981 27.9411 40.2981 29.2647C40.2981 30.5883 41.3765 31.6612 42.7069 31.6612Z" fill="#27374D"/>
<path d="M34.5255 51.7539C35.7444 51.7539 36.7325 50.7708 36.7325 49.5581C36.7325 48.3454 35.7444 47.3623 34.5255 47.3623C33.3066 47.3623 32.3185 48.3454 32.3185 49.5581C32.3185 50.7708 33.3066 51.7539 34.5255 51.7539Z" fill="#27374D"/>
<path d="M26.0468 14.5339C27.2657 14.5339 28.2539 13.5508 28.2539 12.3381C28.2539 11.1254 27.2657 10.1423 26.0468 10.1423C24.828 10.1423 23.8398 11.1254 23.8398 12.3381C23.8398 13.5508 24.828 14.5339 26.0468 14.5339Z" fill="#27374D"/>
<path d="M46.4475 13.6976C47.5573 13.6976 48.457 12.8026 48.457 11.6984C48.457 10.5943 47.5573 9.69922 46.4475 9.69922C45.3378 9.69922 44.4381 10.5943 44.4381 11.6984C44.4381 12.8026 45.3378 13.6976 46.4475 13.6976Z" fill="#27374D"/>
<path d="M35.1865 3.5969C36.1849 3.5969 36.9942 2.79171 36.9942 1.79845C36.9942 0.805194 36.1849 0 35.1865 0C34.1882 0 33.3789 0.805194 33.3789 1.79845C33.3789 2.79171 34.1882 3.5969 35.1865 3.5969Z" fill="#27374D"/>
<path d="M15.1337 8.26878C16.132 8.26878 16.9413 7.46358 16.9413 6.47033C16.9413 5.47707 16.132 4.67188 15.1337 4.67188C14.1354 4.67188 13.326 5.47707 13.326 6.47033C13.326 7.46358 14.1354 8.26878 15.1337 8.26878Z" fill="#27374D"/>
<path d="M54.5783 11.7026C55.5766 11.7026 56.3859 10.8974 56.3859 9.90416C56.3859 8.91091 55.5766 8.10571 54.5783 8.10571C53.5799 8.10571 52.7706 8.91091 52.7706 9.90416C52.7706 10.8974 53.5799 11.7026 54.5783 11.7026Z" fill="#27374D"/>
<path d="M63.8603 27.5666C64.8586 27.5666 65.6679 26.7614 65.6679 25.7682C65.6679 24.7749 64.8586 23.9697 63.8603 23.9697C62.8619 23.9697 62.0526 24.7749 62.0526 25.7682C62.0526 26.7614 62.8619 27.5666 63.8603 27.5666Z" fill="#27374D"/>
<path d="M40.0121 67.3751C40.899 67.3751 41.618 66.6598 41.618 65.7774C41.618 64.895 40.899 64.1797 40.0121 64.1797C39.1252 64.1797 38.4062 64.895 38.4062 65.7774C38.4062 66.6598 39.1252 67.3751 40.0121 67.3751Z" fill="#27374D"/>
<path d="M55.4823 59.3863C56.3692 59.3863 57.0882 58.671 57.0882 57.7886C57.0882 56.9062 56.3692 56.1909 55.4823 56.1909C54.5954 56.1909 53.8765 56.9062 53.8765 57.7886C53.8765 58.671 54.5954 59.3863 55.4823 59.3863Z" fill="#27374D"/>
<path d="M64.3942 42.9576C65.2811 42.9576 66 42.2423 66 41.3599C66 40.4775 65.2811 39.7622 64.3942 39.7622C63.5073 39.7622 62.7883 40.4775 62.7883 41.3599C62.7883 42.2423 63.5073 42.9576 64.3942 42.9576Z" fill="#27374D"/>
<path d="M26.2569 3.86043C27.1438 3.86043 27.8627 3.14511 27.8627 2.26273C27.8627 1.38035 27.1438 0.665039 26.2569 0.665039C25.37 0.665039 24.651 1.38035 24.651 2.26273C24.651 3.14511 25.37 3.86043 26.2569 3.86043Z" fill="#27374D"/>
<path d="M7.277 56.4127C8.16389 56.4127 8.88286 55.6974 8.88286 54.815C8.88286 53.9326 8.16389 53.2173 7.277 53.2173C6.39011 53.2173 5.67114 53.9326 5.67114 54.815C5.67114 55.6974 6.39011 56.4127 7.277 56.4127Z" fill="#27374D"/>
<path d="M21.7719 66.4674C22.6588 66.4674 23.3777 65.7521 23.3777 64.8697C23.3777 63.9873 22.6588 63.272 21.7719 63.272C20.885 63.272 20.166 63.9873 20.166 64.8697C20.166 65.7521 20.885 66.4674 21.7719 66.4674Z" fill="#27374D"/>
<path d="M1.60586 40.2349C2.49275 40.2349 3.21172 39.5196 3.21172 38.6372C3.21172 37.7549 2.49275 37.0396 1.60586 37.0396C0.718968 37.0396 0 37.7549 0 38.6372C0 39.5196 0.718968 40.2349 1.60586 40.2349Z" fill="#27374D"/>
<path d="M60.018 27.6376C61.1277 27.6376 62.0274 26.7425 62.0274 25.6384C62.0274 24.5342 61.1277 23.6392 60.018 23.6392C58.9082 23.6392 58.0085 24.5342 58.0085 25.6384C58.0085 26.7425 58.9082 27.6376 60.018 27.6376Z" fill="#27374D"/>
<path d="M54.4051 49.3988C55.5148 49.3988 56.4145 48.5037 56.4145 47.3996C56.4145 46.2955 55.5148 45.4004 54.4051 45.4004C53.2953 45.4004 52.3956 46.2955 52.3956 47.3996C52.3956 48.5037 53.2953 49.3988 54.4051 49.3988Z" fill="#27374D"/>
<path d="M38.8344 64.9494C39.8327 64.9494 40.642 64.1442 40.642 63.151C40.642 62.1577 39.8327 61.3525 38.8344 61.3525C37.836 61.3525 37.0267 62.1577 37.0267 63.151C37.0267 64.1442 37.836 64.9494 38.8344 64.9494Z" fill="#27374D"/>
<path d="M8.6813 22.0202C9.67963 22.0202 10.4889 21.215 10.4889 20.2218C10.4889 19.2285 9.67963 18.4233 8.6813 18.4233C7.68297 18.4233 6.87366 19.2285 6.87366 20.2218C6.87366 21.215 7.68297 22.0202 8.6813 22.0202Z" fill="#27374D"/>
<path d="M2.14798 23.6897C3.14631 23.6897 3.95562 22.8845 3.95562 21.8912C3.95562 20.898 3.14631 20.0928 2.14798 20.0928C1.14964 20.0928 0.340332 20.898 0.340332 21.8912C0.340332 22.8845 1.14964 23.6897 2.14798 23.6897Z" fill="#27374D"/>
<path d="M17.0924 57.6887C18.0908 57.6887 18.9001 56.8835 18.9001 55.8902C18.9001 54.897 18.0908 54.0918 17.0924 54.0918C16.0941 54.0918 15.2848 54.897 15.2848 55.8902C15.2848 56.8835 16.0941 57.6887 17.0924 57.6887Z" fill="#27374D"/>
<path d="M2.59439 40.511C3.59272 40.511 4.40203 39.7058 4.40203 38.7125C4.40203 37.7193 3.59272 36.9141 2.59439 36.9141C1.59605 36.9141 0.786743 37.7193 0.786743 38.7125C0.786743 39.7058 1.59605 40.511 2.59439 40.511Z" fill="#27374D"/>
<path d="M18.6858 36.6797C19.9047 36.6797 20.8928 35.6966 20.8928 34.4839C20.8928 33.2712 19.9047 32.2881 18.6858 32.2881C17.4669 32.2881 16.4788 33.2712 16.4788 34.4839C16.4788 35.6966 17.4669 36.6797 18.6858 36.6797Z" fill="#27374D"/>
<path d="M59.0888 23.0369C59.224 22.9772 59.3649 22.931 59.5092 22.8988L58.1682 19.0259L55.8477 12.334C55.7199 12.3905 55.5878 12.4367 55.4525 12.472L59.0888 23.0369Z" fill="#27374D"/>
<path d="M35.8335 52.3809C35.6962 52.4317 35.5558 52.4737 35.4131 52.5063L38.0447 60.7081C38.1812 60.6561 38.3218 60.6156 38.4651 60.5868L37.2039 56.7181L35.8335 52.3809Z" fill="#27374D"/>
<path d="M61.136 28.3105C60.999 28.357 60.8584 28.392 60.7156 28.4151L63.5574 39.1473C63.6864 39.088 63.8199 39.039 63.9567 39.0009L61.7371 30.636L61.136 28.3105Z" fill="#27374D"/>
<path d="M49.4581 11.2883L52.2452 10.6735C52.2315 10.6395 52.2203 10.6046 52.2116 10.569C52.1845 10.4699 52.1635 10.3694 52.1485 10.2678L49.3656 10.8826C49.4068 11.0153 49.4378 11.1509 49.4581 11.2883Z" fill="#27374D"/>
<path d="M44.653 9.67007L37.5065 3.37549C37.4204 3.48674 37.3263 3.59158 37.2249 3.68917L44.3713 9.98376C44.4572 9.8723 44.5513 9.76745 44.653 9.67007Z" fill="#27374D"/>
<path d="M3.80904 36.2827L8.25248 22.7776C8.10911 22.7456 7.96854 22.7022 7.8321 22.6479L3.40967 36.1531C3.5459 36.1862 3.67941 36.2295 3.80904 36.2827Z" fill="#27374D"/>
<path d="M23.6092 10.8076C23.6092 10.7741 23.6512 10.749 23.6681 10.7197L17.7449 7.53271C17.706 7.62477 17.661 7.71419 17.6104 7.8004L17.5431 7.90077L23.4663 11.0836C23.5072 10.9883 23.5549 10.896 23.6092 10.8076Z" fill="#27374D"/>
<path d="M48.4617 13.8688L57.4368 23.0702L58.0884 23.7394C58.1819 23.6345 58.2831 23.5367 58.3911 23.4466L48.7643 13.5593C48.6726 13.671 48.5713 13.7745 48.4617 13.8688Z" fill="#27374D"/>
<path d="M44.4719 32.0877L52.8796 45.1369C52.9919 45.0515 53.1115 44.9759 53.2369 44.911L44.8293 31.8618C44.7144 31.9399 44.5952 32.0152 44.4719 32.0877Z" fill="#27374D"/>
<path d="M29.2879 12.4513L43.8121 11.9954C43.7995 11.8563 43.7995 11.7163 43.8121 11.5771L35.9426 11.8114L29.2711 12.0205C29.2856 12.1636 29.2912 12.3075 29.2879 12.4513Z" fill="#27374D"/>
<path d="M11.3631 19.3398L23.5542 13.8022C23.4869 13.6808 23.4279 13.5551 23.3776 13.4258L18.8795 15.4668L11.1865 18.9215C11.2554 19.0565 11.3145 19.1963 11.3631 19.3398Z" fill="#27374D"/>
<path d="M10.2111 22.4888L16.9666 32.1084C17.0761 32.0214 17.1912 31.9418 17.3113 31.87L10.5516 22.2671C10.4437 22.3492 10.3299 22.4233 10.2111 22.4888Z" fill="#27374D"/>
<path d="M5.22151 46.333L3.72075 41.1719C3.58414 41.2225 3.44352 41.2616 3.30036 41.289L5.72598 49.6288L4.53629 46.4627L2.60675 41.335C2.44633 41.328 2.2871 41.3042 2.13171 41.2639L6.40279 52.6192C6.58646 52.5337 6.77983 52.4705 6.97871 52.431L5.22151 46.333Z" fill="#27374D"/>
<path d="M4.19563 20.0172L13.793 8.61581C13.6777 8.53581 13.5694 8.44627 13.4693 8.34814L3.87195 19.7579C3.98683 19.8353 4.09508 19.922 4.19563 20.0172Z" fill="#27374D"/>
<path d="M53.292 58.333L41.4708 62.1432C41.5231 62.2727 41.5666 62.4054 41.6011 62.5405L42.8329 62.1432L53.3424 58.7638L42.2485 64.477C42.3237 64.5953 42.3884 64.7198 42.4419 64.8493L53.5988 59.0733C53.4574 58.8445 53.3538 58.5945 53.292 58.333Z" fill="#27374D"/>
<path d="M63.3517 43.4596C63.2634 43.4052 63.1793 43.3466 63.0994 43.2881L56.6213 55.5426C56.7199 55.5833 56.8154 55.6308 56.9072 55.6849L56.9913 55.7392L63.4568 43.5097L63.3517 43.4596Z" fill="#27374D"/>
<path d="M17.8873 5.80514C17.9119 5.89436 17.9302 5.9852 17.9419 6.077L22.3601 5.04393L25.2397 4.37474C25.0886 4.28569 24.9476 4.1805 24.8194 4.06105L18.4001 5.53746L24.2561 3.33749C24.1976 3.21011 24.1484 3.07872 24.1089 2.94434L17.7191 5.34924C17.7889 5.49584 17.8452 5.64844 17.8873 5.80514Z" fill="#27374D"/>
<path d="M1.79879 36.1992H1.88706L2.28222 27.6587L2.37471 31.1008L2.50921 36.0863C2.6017 36.0863 2.6942 36.0863 2.79089 36.0863H2.9296L2.64795 25.5549L2.61852 24.5093C2.52603 24.5093 2.43356 24.5093 2.33687 24.5093C2.22766 24.5155 2.11819 24.5155 2.00898 24.5093L1.46667 36.2201C1.57689 36.2069 1.68778 36.1999 1.79879 36.1992Z" fill="#27374D"/>
<path d="M62.5448 23.6097C62.661 23.5305 62.7833 23.4605 62.9106 23.4006L56.2769 12.062C56.1618 12.1406 56.041 12.2105 55.9154 12.2711L62.5448 23.6097Z" fill="#27374D"/>
<path d="M28.1019 59.2779L19.854 56.5259C19.8204 56.6686 19.7754 56.8085 19.7195 56.9441L36.4549 62.5319C36.4879 62.3885 36.5344 62.2484 36.5936 62.1136L28.1019 59.2779Z" fill="#27374D"/>
<path d="M6.31429 20.8869C6.29487 20.8153 6.27941 20.7427 6.26803 20.6694L4.83875 21.0333C4.88607 21.1697 4.92262 21.3095 4.94805 21.4515L6.37312 21.0877C6.35211 21.0124 6.33111 20.9497 6.31429 20.8869Z" fill="#27374D"/>
<path d="M63.8943 28.3945L64.1087 38.997C64.247 38.9677 64.3877 38.9509 64.5291 38.9468L64.3105 28.4071C64.2222 28.4115 64.1338 28.4115 64.0456 28.4071L63.8943 28.3945Z" fill="#27374D"/>
<path d="M18.3118 58.3158L20.6575 62.837C20.7748 62.7609 20.8986 62.6951 21.0274 62.6405L18.6817 58.1401C18.562 58.206 18.4385 58.2646 18.3118 58.3158Z" fill="#27374D"/>
<path d="M52.7579 49.5579C52.6502 49.4689 52.5504 49.371 52.4594 49.2651L43.1648 58.6547L40.7266 61.1224C40.8342 61.2114 40.9341 61.3093 41.025 61.4151L49.584 52.7617L52.7579 49.5579Z" fill="#27374D"/>
<path d="M14.6382 55.8107C14.643 55.6703 14.6584 55.5305 14.6844 55.3924L12.5825 55.1624L9.90469 54.8696C9.90058 55.0103 9.8837 55.1503 9.85425 55.2879L14.6382 55.8107Z" fill="#27374D"/>
<path d="M10.1817 17.9299L14.3856 8.93347C14.2532 8.88602 14.1252 8.82726 14.003 8.75781L9.79919 17.7543C9.9309 17.8033 10.0588 17.862 10.1817 17.9299Z" fill="#27374D"/>
<path d="M15.428 54.0126C15.5291 53.9168 15.6373 53.8287 15.7517 53.7491L4.64521 40.5869C4.54525 40.6852 4.43697 40.7748 4.32153 40.8546L13.6372 51.8921L15.428 54.0126Z" fill="#27374D"/>
<path d="M55.0995 50.1807C54.9607 50.2065 54.8202 50.2219 54.6791 50.2267L55.2172 55.4003C55.3558 55.374 55.4964 55.3586 55.6375 55.3543L55.0995 50.1807Z" fill="#27374D"/>
<path d="M28.376 10.1842L33.8031 3.91055C33.6913 3.82634 33.586 3.73409 33.4878 3.63452L28.0607 9.90819C28.1714 9.99358 28.2767 10.0858 28.376 10.1842Z" fill="#27374D"/>
<path d="M37.7588 65.8612C37.7471 65.722 37.7471 65.5821 37.7588 65.443H37.7125L31.3185 65.1251L24.7689 64.7989L36.4388 63.6194C36.4141 63.4813 36.4001 63.3414 36.3967 63.2012L24.5419 64.3973H24.3822C24.4324 64.655 24.441 64.9191 24.4074 65.1795L37.7588 65.8612Z" fill="#27374D"/>
<path d="M19.85 63.6399C19.9197 63.5239 19.9985 63.4134 20.0854 63.3095L13.662 58.8468L9.59686 56.0278C9.52847 56.1434 9.44968 56.2526 9.36145 56.3541L19.871 63.6357L19.85 63.6399Z" fill="#27374D"/>
<path d="M28.8842 2.50538L32.6676 2.21679L28.7496 3.12856C28.7008 3.25369 28.6432 3.37528 28.5773 3.49243C28.5521 3.53426 28.5184 3.57609 28.489 3.6221L32.8568 2.60994C32.7747 2.3486 32.7322 2.07654 32.7307 1.80273L28.8926 2.09968C28.8996 2.23494 28.8969 2.37053 28.8842 2.50538Z" fill="#27374D"/>
<path d="M62.5529 42.703C62.4735 42.5874 62.4059 42.4641 62.3512 42.335L61.6659 42.7532L56.8988 45.7144C56.9796 45.8279 57.0526 45.9467 57.1174 46.0699L59.8079 44.3969L62.5529 42.703Z" fill="#27374D"/>
<path d="M37.7247 3.02786L52.2573 9.10077C52.3007 8.96803 52.3556 8.83929 52.4213 8.71599L37.8929 2.60962C37.8481 2.75327 37.7919 2.89313 37.7247 3.02786Z" fill="#27374D"/>
<path d="M32.6723 47.3203L21.2295 36.4209C21.1416 36.5293 21.0446 36.63 20.9395 36.722L32.3949 47.6215C32.4788 47.5136 32.5716 47.4129 32.6723 47.3203Z" fill="#27374D"/>
<path d="M40.4834 27.1066C40.579 27.0037 40.68 26.906 40.786 26.8138L37.2338 23.2085L28.5151 14.3501C28.4216 14.455 28.3204 14.5528 28.2124 14.6429L36.4939 23.0538L40.4834 27.1066Z" fill="#27374D"/>
<path d="M20.0315 31.6777L25.4964 15.2742C25.3531 15.2422 25.2125 15.1988 25.0761 15.1445L19.6111 31.5481C19.7546 31.5794 19.8953 31.6228 20.0315 31.6777Z" fill="#27374D"/>
<path d="M59.3034 28.3149L55.0996 44.6265C55.2423 44.6503 55.3828 44.6853 55.52 44.731L59.7238 28.4195C59.5807 28.3977 59.44 28.3627 59.3034 28.3149Z" fill="#27374D"/>
<path d="M43.7793 26.1488L46.2595 14.5048C46.1173 14.4864 45.9768 14.4571 45.8391 14.417L44.4519 20.9207L43.3589 26.0651C43.5009 26.0825 43.6414 26.1105 43.7793 26.1488Z" fill="#27374D"/>
<path d="M41.5008 32.1714L35.6575 46.6761C35.7901 46.7179 35.9194 46.7696 36.0442 46.8308L41.8917 32.3261C41.7575 32.2851 41.6267 32.2334 41.5008 32.1714Z" fill="#27374D"/>
<path d="M39.7554 30.0802C39.726 29.9715 39.705 29.8585 39.684 29.7456L21.8009 33.6353C21.8112 33.6611 21.8196 33.6877 21.8261 33.7147C21.8546 33.8222 21.877 33.9311 21.8934 34.041L39.7764 30.1555C39.7722 30.1304 39.7596 30.1053 39.7554 30.0802Z" fill="#27374D"/>
<path d="M31.7932 50.3984L19.6904 54.79C19.748 54.9173 19.7957 55.0487 19.8333 55.1832L31.9361 50.7916C31.8804 50.6636 31.8327 50.5323 31.7932 50.3984Z" fill="#27374D"/>
<path d="M57.3824 26.0317L46.0321 28.4116C46.0691 28.549 46.0972 28.6887 46.1162 28.8298L57.4665 26.4542C57.43 26.3152 57.4019 26.1741 57.3824 26.0317Z" fill="#27374D"/>
<path d="M51.7994 47.9143C51.7736 47.7763 51.7582 47.6365 51.7532 47.4961L43.9467 48.3326L37.7208 49.0352C37.7447 49.1736 37.7602 49.3133 37.7671 49.4535L47.6419 48.3828L51.7994 47.9143Z" fill="#27374D"/>
<path d="M15.9285 35.254C15.9285 35.1871 15.8991 35.1201 15.8864 35.0532L5.28442 37.8387C5.33039 37.9752 5.36553 38.115 5.38952 38.257L15.9915 35.4715C15.9705 35.392 15.9453 35.3209 15.9285 35.254Z" fill="#27374D"/>
<path d="M17.6899 53.2886L18.8628 37.5166C18.7222 37.5152 18.5818 37.5054 18.4424 37.4873L17.2695 53.2551C17.4103 53.255 17.5509 53.2662 17.6899 53.2886Z" fill="#27374D"/>
<path d="M21.4398 32.8199L39.6634 28.8591C39.7074 28.4816 39.8184 28.1148 39.9913 27.7759L27.4807 15.0654C27.1191 15.227 26.7292 15.3165 26.3331 15.3289L20.7672 32.0587C21.0335 32.2722 21.261 32.5297 21.4398 32.8199Z" fill="#0057B2"/>
<path d="M21.6499 35.6515L33.3617 46.7935C33.7774 46.5887 34.2347 46.4814 34.6986 46.4799H34.7868L40.7563 31.6656C40.4965 31.4425 40.2738 31.1799 40.0963 30.8877L21.8727 34.8485C21.8379 35.1255 21.7629 35.396 21.6499 35.6515Z" fill="#0057B2"/>
<path d="M16.2387 32.9158C16.2807 32.8447 16.327 32.7819 16.3732 32.715L12.5141 27.2109C11.786 29.3604 11.4154 31.6137 11.4169 33.8819C11.4169 34.3587 11.4379 34.8355 11.4715 35.3123L15.8393 34.1663C15.8781 33.7253 16.0145 33.2983 16.2387 32.9158Z" fill="#0057B2"/>
<path d="M42.8916 32.4595H42.7277L36.754 47.2779C37.0398 47.534 37.2738 47.842 37.4435 48.1855L48.5542 46.9642C49.4342 45.8894 50.2031 44.7292 50.8495 43.5011L43.6609 32.3633C43.409 32.4245 43.1509 32.4568 42.8916 32.4595Z" fill="#0057B2"/>
<path d="M52.4509 28.2944L46.1157 29.6203C46.0657 30.0633 45.9224 30.4908 45.6953 30.875C45.6197 31.0078 45.5325 31.1338 45.4347 31.2514L51.8791 41.2349C53.4378 37.0954 53.638 32.5709 52.4509 28.3112V28.2944Z" fill="#0057B2"/>
<path d="M33.1717 52.142C32.8733 51.9668 32.6074 51.7419 32.3855 51.4771L26.1302 53.7523C29.0587 54.6439 32.1475 54.8894 35.1811 54.4717L34.5673 52.5436C34.0767 52.5215 33.5984 52.3839 33.1717 52.142Z" fill="#0057B2"/>
<path d="M37.3468 51.0546C37.1467 51.3896 36.8842 51.6835 36.5732 51.9204L37.2627 54.0869C40.6388 53.2766 43.7556 51.6341 46.3261 49.3105L37.6704 50.2516C37.6022 50.5335 37.4932 50.804 37.3468 51.0546Z" fill="#0057B2"/>
<path d="M16.3738 36.1826L16.2015 36.2328L11.7202 37.4081C12.3832 41.2972 14.1528 44.9157 16.8195 47.8349L17.614 37.2073C17.5177 37.1663 17.4237 37.1203 17.3323 37.0693C16.9512 36.8474 16.624 36.5446 16.3738 36.1826Z" fill="#0057B2"/>
<path d="M31.9192 48.3115L20.2074 37.1694C20.046 37.2465 19.8787 37.3108 19.7071 37.3618L18.7865 49.7251C20.1263 50.8622 21.6051 51.8262 23.1879 52.5943L31.667 49.516C31.6659 49.1014 31.7518 48.6911 31.9192 48.3115Z" fill="#0057B2"/>
<path d="M45.6827 27.5749L51.7824 26.295C50.7311 23.628 49.135 21.2069 47.0952 19.1849C46.8261 18.9172 46.5529 18.6621 46.2544 18.4111L44.556 26.4498C45.0213 26.7238 45.409 27.1109 45.6827 27.5749Z" fill="#0057B2"/>
<path d="M24.3185 14.6553C19.5581 16.6316 15.6927 20.278 13.4558 24.9023L18.08 31.5147C18.3004 31.461 18.5258 31.4301 18.7526 31.4227L24.3227 14.6929C24.3227 14.6929 24.3227 14.6636 24.3185 14.6553Z" fill="#0057B2"/>
<path d="M42.5005 26.0312L44.4343 16.9511C41.2304 14.6695 37.4387 13.3448 33.5044 13.1326L29.847 13.2497C29.599 13.2748 29.351 13.3082 29.1072 13.3459C29.0735 13.4379 29.0357 13.5257 28.9937 13.6177L41.5042 26.3282C41.8178 26.1757 42.1543 26.0753 42.5005 26.0312Z" fill="#0057B2"/>
</g>
<defs>
<clipPath id="clip0_89_6175">
<rect width="66" height="67.375" fill="white"/>
</clipPath>
</defs>
</svg>
