<svg width="334" height="79" viewBox="0 0 334 79" fill="none" xmlns="http://www.w3.org/2000/svg">
<g clip-path="url(#clip0_225_7650)">
<path d="M49.8208 37.125C51.3727 37.125 52.6308 35.8669 52.6308 34.3149C52.6308 32.763 51.3727 31.5049 49.8208 31.5049C48.2688 31.5049 47.0107 32.763 47.0107 34.3149C47.0107 35.8669 48.2688 37.125 49.8208 37.125Z" fill="#27374D"/>
<path d="M40.2768 60.6835C41.6987 60.6835 42.8514 59.5308 42.8514 58.1088C42.8514 56.6869 41.6987 55.5342 40.2768 55.5342C38.8549 55.5342 37.7021 56.6869 37.7021 58.1088C37.7021 59.5308 38.8549 60.6835 40.2768 60.6835Z" fill="#27374D"/>
<path d="M30.3852 17.0419C31.8071 17.0419 32.9598 15.8892 32.9598 14.4672C32.9598 13.0453 31.8071 11.8926 30.3852 11.8926C28.9633 11.8926 27.8105 13.0453 27.8105 14.4672C27.8105 15.8892 28.9633 17.0419 30.3852 17.0419Z" fill="#27374D"/>
<path d="M54.184 16.0614C55.4786 16.0614 56.5282 15.0118 56.5282 13.7172C56.5282 12.4226 55.4786 11.373 54.184 11.373C52.8894 11.373 51.8398 12.4226 51.8398 13.7172C51.8398 15.0118 52.8894 16.0614 54.184 16.0614Z" fill="#27374D"/>
<path d="M41.0472 4.21752C42.2119 4.21752 43.156 3.27339 43.156 2.10876C43.156 0.944124 42.2119 0 41.0472 0C39.8826 0 38.9385 0.944124 38.9385 2.10876C38.9385 3.27339 39.8826 4.21752 41.0472 4.21752Z" fill="#27374D"/>
<path d="M17.6547 9.69506C18.8193 9.69506 19.7634 8.75093 19.7634 7.5863C19.7634 6.42166 18.8193 5.47754 17.6547 5.47754C16.49 5.47754 15.5459 6.42166 15.5459 7.5863C15.5459 8.75093 16.49 9.69506 17.6547 9.69506Z" fill="#27374D"/>
<path d="M63.6703 13.7214C64.8349 13.7214 65.779 12.7773 65.779 11.6127C65.779 10.448 64.8349 9.50391 63.6703 9.50391C62.5056 9.50391 61.5615 10.448 61.5615 11.6127C61.5615 12.7773 62.5056 13.7214 63.6703 13.7214Z" fill="#27374D"/>
<path d="M74.4994 32.322C75.664 32.322 76.6081 31.3779 76.6081 30.2133C76.6081 29.0486 75.664 28.1045 74.4994 28.1045C73.3347 28.1045 72.3906 29.0486 72.3906 30.2133C72.3906 31.3779 73.3347 32.322 74.4994 32.322Z" fill="#27374D"/>
<path d="M46.6771 78.9997C47.7117 78.9997 48.5504 78.1609 48.5504 77.1263C48.5504 76.0917 47.7117 75.2529 46.6771 75.2529C45.6424 75.2529 44.8037 76.0917 44.8037 77.1263C44.8037 78.1609 45.6424 78.9997 46.6771 78.9997Z" fill="#27374D"/>
<path d="M64.7259 69.6334C65.7605 69.6334 66.5993 68.7947 66.5993 67.7601C66.5993 66.7254 65.7605 65.8867 64.7259 65.8867C63.6913 65.8867 62.8525 66.7254 62.8525 67.7601C62.8525 68.7947 63.6913 69.6334 64.7259 69.6334Z" fill="#27374D"/>
<path d="M75.1214 50.3707C76.156 50.3707 76.9948 49.532 76.9948 48.4974C76.9948 47.4628 76.156 46.624 75.1214 46.624C74.0868 46.624 73.248 47.4628 73.248 48.4974C73.248 49.532 74.0868 50.3707 75.1214 50.3707Z" fill="#27374D"/>
<path d="M30.6312 4.527C31.6658 4.527 32.5045 3.68827 32.5045 2.65364C32.5045 1.61901 31.6658 0.780273 30.6312 0.780273C29.5965 0.780273 28.7578 1.61901 28.7578 2.65364C28.7578 3.68827 29.5965 4.527 30.6312 4.527Z" fill="#27374D"/>
<path d="M8.48957 66.1461C9.5242 66.1461 10.3629 65.3074 10.3629 64.2728C10.3629 63.2381 9.5242 62.3994 8.48957 62.3994C7.45494 62.3994 6.61621 63.2381 6.61621 64.2728C6.61621 65.3074 7.45494 66.1461 8.48957 66.1461Z" fill="#27374D"/>
<path d="M25.3988 77.9362C26.4334 77.9362 27.2721 77.0974 27.2721 76.0628C27.2721 75.0282 26.4334 74.1895 25.3988 74.1895C24.3641 74.1895 23.5254 75.0282 23.5254 76.0628C23.5254 77.0974 24.3641 77.9362 25.3988 77.9362Z" fill="#27374D"/>
<path d="M1.87336 47.1774C2.90799 47.1774 3.74673 46.3387 3.74673 45.304C3.74673 44.2694 2.90799 43.4307 1.87336 43.4307C0.838733 43.4307 0 44.2694 0 45.304C0 46.3387 0.838733 47.1774 1.87336 47.1774Z" fill="#27374D"/>
<path d="M70.0151 32.4061C71.3097 32.4061 72.3592 31.3566 72.3592 30.0619C72.3592 28.7673 71.3097 27.7178 70.0151 27.7178C68.7204 27.7178 67.6709 28.7673 67.6709 30.0619C67.6709 31.3566 68.7204 32.4061 70.0151 32.4061Z" fill="#27374D"/>
<path d="M63.4672 57.9227C64.7618 57.9227 65.8114 56.8732 65.8114 55.5785C65.8114 54.2839 64.7618 53.2344 63.4672 53.2344C62.1726 53.2344 61.123 54.2839 61.123 55.5785C61.123 56.8732 62.1726 57.9227 63.4672 57.9227Z" fill="#27374D"/>
<path d="M45.3041 76.156C46.4687 76.156 47.4128 75.2119 47.4128 74.0472C47.4128 72.8826 46.4687 71.9385 45.3041 71.9385C44.1394 71.9385 43.1953 72.8826 43.1953 74.0472C43.1953 75.2119 44.1394 76.156 45.3041 76.156Z" fill="#27374D"/>
<path d="M10.1273 25.821C11.2919 25.821 12.2361 24.8769 12.2361 23.7123C12.2361 22.5476 11.2919 21.6035 10.1273 21.6035C8.96268 21.6035 8.01855 22.5476 8.01855 23.7123C8.01855 24.8769 8.96268 25.821 10.1273 25.821Z" fill="#27374D"/>
<path d="M2.50524 27.7761C3.66988 27.7761 4.614 26.832 4.614 25.6674C4.614 24.5027 3.66988 23.5586 2.50524 23.5586C1.34061 23.5586 0.396484 24.5027 0.396484 25.6674C0.396484 26.832 1.34061 27.7761 2.50524 27.7761Z" fill="#27374D"/>
<path d="M19.9408 67.6423C21.1054 67.6423 22.0495 66.6982 22.0495 65.5336C22.0495 64.3689 21.1054 63.4248 19.9408 63.4248C18.7762 63.4248 17.832 64.3689 17.832 65.5336C17.832 66.6982 18.7762 67.6423 19.9408 67.6423Z" fill="#27374D"/>
<path d="M3.02673 47.5007C4.19136 47.5007 5.13549 46.5566 5.13549 45.392C5.13549 44.2273 4.19136 43.2832 3.02673 43.2832C1.86209 43.2832 0.917969 44.2273 0.917969 45.392C0.917969 46.5566 1.86209 47.5007 3.02673 47.5007Z" fill="#27374D"/>
<path d="M21.7993 43.0087C23.2212 43.0087 24.3739 41.856 24.3739 40.434C24.3739 39.0121 23.2212 37.8594 21.7993 37.8594C20.3773 37.8594 19.2246 39.0121 19.2246 40.434C19.2246 41.856 20.3773 43.0087 21.7993 43.0087Z" fill="#27374D"/>
<path d="M68.9315 27.0125C69.0892 26.9425 69.2535 26.8883 69.4219 26.8506L67.8575 22.3094L65.1504 14.4629C65.0014 14.5292 64.8472 14.5833 64.6895 14.6247L68.9315 27.0125Z" fill="#27374D"/>
<path d="M41.8029 61.4189C41.6428 61.4786 41.479 61.5278 41.3125 61.5661L44.3825 71.183C44.5417 71.122 44.7057 71.0745 44.8729 71.0408L43.4016 66.5045L41.8029 61.4189Z" fill="#27374D"/>
<path d="M71.3195 33.1963C71.1598 33.2508 70.9957 33.2918 70.8291 33.3189L74.1443 45.9028C74.2948 45.8333 74.4506 45.7759 74.6102 45.7311L72.0208 35.923L71.3195 33.1963Z" fill="#27374D"/>
<path d="M57.6968 13.2366L60.9482 12.5157C60.9322 12.4759 60.9191 12.4349 60.9089 12.3931C60.8774 12.277 60.8528 12.1591 60.8354 12.04L57.5889 12.7609C57.637 12.9165 57.673 13.0755 57.6968 13.2366Z" fill="#27374D"/>
<path d="M52.0903 11.3387L43.7534 3.95801C43.653 4.08845 43.5431 4.21138 43.4248 4.32581L51.7618 11.7065C51.8619 11.5758 51.9717 11.4528 52.0903 11.3387Z" fill="#27374D"/>
<path d="M4.44343 42.543L9.62706 26.7077C9.45981 26.6701 9.29582 26.6193 9.13665 26.5557L3.97754 42.391C4.13646 42.4298 4.29222 42.4806 4.44343 42.543Z" fill="#27374D"/>
<path d="M27.5424 12.6719C27.5424 12.6327 27.5915 12.6033 27.6111 12.569L20.7012 8.83203C20.6558 8.93997 20.6034 9.04482 20.5443 9.1459L20.4658 9.26359L27.3757 12.9956C27.4234 12.8838 27.4791 12.7757 27.5424 12.6719Z" fill="#27374D"/>
<path d="M56.5352 16.2623L67.0054 27.0513L67.7655 27.836C67.8746 27.713 67.9926 27.5983 68.1186 27.4927L56.8882 15.8994C56.7812 16.0303 56.6631 16.1517 56.5352 16.2623Z" fill="#27374D"/>
<path d="M51.8799 37.6242L61.6881 52.925C61.8191 52.8248 61.9586 52.7362 62.1049 52.6601L52.2967 37.3594C52.1627 37.4509 52.0237 37.5392 51.8799 37.6242Z" fill="#27374D"/>
<path d="M34.1671 14.6002L51.1107 14.0656C51.096 13.9025 51.096 13.7383 51.1107 13.5752L41.9303 13.8498L34.1475 14.095C34.1644 14.2628 34.1709 14.4315 34.1671 14.6002Z" fill="#27374D"/>
<path d="M13.2568 22.6766L27.4786 16.1836C27.4001 16.0413 27.3313 15.8938 27.2726 15.7422L22.0253 18.1354L13.0508 22.1862C13.1312 22.3445 13.2 22.5084 13.2568 22.6766Z" fill="#27374D"/>
<path d="M11.9121 26.3693L19.793 37.6487C19.9207 37.5467 20.055 37.4533 20.1951 37.3692L12.3093 26.1094C12.1835 26.2057 12.0507 26.2926 11.9121 26.3693Z" fill="#27374D"/>
<path d="M6.0918 54.327L4.34104 48.2754C4.18167 48.3347 4.01763 48.3806 3.85063 48.4127L6.6803 58.1914L5.29243 54.479L3.04147 48.4667C2.85433 48.4585 2.66857 48.4305 2.4873 48.3833L7.46985 61.6979C7.68412 61.5976 7.9097 61.5235 8.14171 61.4772L6.0918 54.327Z" fill="#27374D"/>
<path d="M4.89517 23.4705L16.0912 10.1019C15.9567 10.0081 15.8304 9.90315 15.7136 9.78809L4.51758 23.1664C4.6516 23.2572 4.77788 23.3589 4.89517 23.4705Z" fill="#27374D"/>
<path d="M62.1692 68.3975L48.3789 72.8651C48.4398 73.0169 48.4906 73.1725 48.5309 73.331L49.9678 72.8651L62.2281 68.9026L49.2862 75.6016C49.3739 75.7402 49.4494 75.8863 49.5118 76.038L62.5272 69.2655C62.3622 68.9972 62.2413 68.7041 62.1692 68.3975Z" fill="#27374D"/>
<path d="M73.9052 50.9579C73.8022 50.8941 73.7041 50.8255 73.6109 50.7568L66.0537 65.1258C66.1687 65.1735 66.2801 65.2292 66.3872 65.2926L66.4853 65.3563L74.0278 51.0167L73.9052 50.9579Z" fill="#27374D"/>
<path d="M20.867 6.80656C20.8958 6.91117 20.9171 7.01769 20.9308 7.12532L26.085 5.91401L29.4443 5.12935C29.2679 5.02494 29.1035 4.90161 28.9539 4.76155L21.4654 6.49269L28.2968 3.91313C28.2286 3.76377 28.1712 3.60972 28.1251 3.45215L20.6709 6.272C20.7523 6.44389 20.8179 6.62282 20.867 6.80656Z" fill="#27374D"/>
<path d="M2.09838 42.4452H2.20135L2.66233 32.4311L2.77024 36.4671L2.92714 42.3128C3.03503 42.3128 3.14294 42.3128 3.25574 42.3128H3.41755L3.08899 29.9643L3.05465 28.7383C2.94676 28.7383 2.83888 28.7383 2.72609 28.7383C2.59869 28.7456 2.47099 28.7456 2.34358 28.7383L1.71094 42.4697C1.83951 42.4543 1.96888 42.4461 2.09838 42.4452Z" fill="#27374D"/>
<path d="M72.9642 27.6838C73.0997 27.5908 73.2424 27.5088 73.3909 27.4386L65.6522 14.1436C65.5179 14.2357 65.377 14.3177 65.2305 14.3887L72.9642 27.6838Z" fill="#27374D"/>
<path d="M32.7827 69.5062L23.1608 66.2793C23.1216 66.4467 23.0691 66.6106 23.0039 66.7697L42.5271 73.3216C42.5656 73.1534 42.6198 72.9892 42.6889 72.8312L32.7827 69.5062Z" fill="#27374D"/>
<path d="M7.36587 24.4914C7.34321 24.4074 7.32518 24.3223 7.3119 24.2363L5.64453 24.663C5.69975 24.8229 5.74238 24.9868 5.77204 25.1534L7.43451 24.7267C7.40999 24.6385 7.38549 24.5649 7.36587 24.4914Z" fill="#27374D"/>
<path d="M74.5371 33.2939L74.7872 45.7258C74.9486 45.6914 75.1127 45.6717 75.2776 45.667L75.0226 33.3086C74.9197 33.3138 74.8166 33.3138 74.7136 33.3086L74.5371 33.2939Z" fill="#27374D"/>
<path d="M21.3623 68.3778L24.0988 73.6792C24.2356 73.5899 24.3801 73.5128 24.5304 73.4487L21.7939 68.1719C21.6542 68.2491 21.5101 68.3178 21.3623 68.3778Z" fill="#27374D"/>
<path d="M61.5453 58.1089C61.4197 58.0046 61.3032 57.8897 61.1971 57.7656L50.3541 68.7753L47.5098 71.6687C47.6353 71.7731 47.7518 71.8879 47.858 72.012L57.8427 61.8654L61.5453 58.1089Z" fill="#27374D"/>
<path d="M17.0779 65.4403C17.0835 65.2757 17.1015 65.1118 17.1319 64.9499L14.6798 64.6802L11.5559 64.3369C11.5511 64.5018 11.5314 64.666 11.4971 64.8273L17.0779 65.4403Z" fill="#27374D"/>
<path d="M11.8769 21.0232L16.781 10.4745C16.6266 10.4189 16.4773 10.35 16.3348 10.2686L11.4307 20.8173C11.5843 20.8748 11.7335 20.9436 11.8769 21.0232Z" fill="#27374D"/>
<path d="M17.9986 63.332C18.1165 63.2197 18.2427 63.1164 18.3762 63.023L5.41959 47.5898C5.30298 47.7051 5.17666 47.8102 5.04199 47.9037L15.9094 60.8456L17.9986 63.332Z" fill="#27374D"/>
<path d="M64.2785 58.8389C64.1166 58.8692 63.9527 58.8872 63.7881 58.8928L64.4158 64.9592C64.5776 64.9283 64.7416 64.9103 64.9062 64.9052L64.2785 58.8389Z" fill="#27374D"/>
<path d="M33.1032 11.9405L39.4343 4.5844C39.304 4.48566 39.181 4.37749 39.0665 4.26074L32.7354 11.6169C32.8646 11.717 32.9874 11.8251 33.1032 11.9405Z" fill="#27374D"/>
<path d="M44.0482 77.2245C44.0345 77.0613 44.0345 76.8972 44.0482 76.7341H43.9942L36.5351 76.3613L28.8945 75.9788L42.5083 74.5959C42.4796 74.4339 42.4632 74.2699 42.4593 74.1055L28.6297 75.508H28.4434C28.502 75.8102 28.5119 76.1198 28.4728 76.4251L44.0482 77.2245Z" fill="#27374D"/>
<path d="M23.1556 74.6208C23.237 74.4847 23.3289 74.3552 23.4303 74.2334L15.9368 69.0007L11.1945 65.6953C11.1148 65.8309 11.0229 65.9589 10.9199 66.0778L23.1801 74.6159L23.1556 74.6208Z" fill="#27374D"/>
<path d="M33.6954 2.93814L38.109 2.59976L33.5384 3.66885C33.4814 3.81557 33.4142 3.95813 33.3373 4.0955C33.3079 4.14454 33.2687 4.1936 33.2344 4.24754L38.3297 3.06074C38.2339 2.75431 38.1843 2.43531 38.1826 2.11426L33.7051 2.46244C33.7134 2.62104 33.7102 2.78002 33.6954 2.93814Z" fill="#27374D"/>
<path d="M72.973 50.0712C72.8802 49.9356 72.8014 49.791 72.7376 49.6396L71.9382 50.1301L66.377 53.6022C66.4712 53.7353 66.5564 53.8745 66.632 54.019L69.7706 52.0574L72.973 50.0712Z" fill="#27374D"/>
<path d="M44.0088 3.54998L60.9622 10.6707C61.0128 10.5151 61.0768 10.3641 61.1535 10.2195L44.205 3.05957C44.1528 3.22801 44.0872 3.392 44.0088 3.54998Z" fill="#27374D"/>
<path d="M38.115 55.4851L24.7661 42.7051C24.6635 42.8322 24.5503 42.9503 24.4277 43.0582L37.7914 55.8382C37.8893 55.7117 37.9975 55.5936 38.115 55.4851Z" fill="#27374D"/>
<path d="M47.2272 31.7836C47.3387 31.6631 47.4566 31.5485 47.5803 31.4404L43.4363 27.213L33.2652 16.8262C33.1561 16.9491 33.0381 17.0639 32.9121 17.1695L42.5732 27.0316L47.2272 31.7836Z" fill="#27374D"/>
<path d="M23.3683 37.1437L29.7437 17.9099C29.5764 17.8723 29.4124 17.8214 29.2532 17.7578L22.8779 36.9917C23.0454 37.0284 23.2094 37.0793 23.3683 37.1437Z" fill="#27374D"/>
<path d="M69.1824 33.2002L64.2783 52.3261C64.4447 52.3541 64.6087 52.3951 64.7687 52.4488L69.6728 33.3228C69.5059 33.2973 69.3417 33.2562 69.1824 33.2002Z" fill="#27374D"/>
<path d="M51.0724 30.6603L53.9658 17.0073C53.7999 16.9857 53.636 16.9513 53.4754 16.9043L51.8571 24.5302L50.582 30.5622C50.7477 30.5826 50.9116 30.6154 51.0724 30.6603Z" fill="#27374D"/>
<path d="M48.4143 37.7227L41.5977 54.73C41.7524 54.779 41.9032 54.8397 42.0488 54.9115L48.8704 37.9041C48.7138 37.856 48.5612 37.7953 48.4143 37.7227Z" fill="#27374D"/>
<path d="M46.377 35.2703C46.3427 35.1427 46.3182 35.0103 46.2937 34.8779L25.4316 39.4387C25.4437 39.469 25.4535 39.5002 25.4611 39.5319C25.4943 39.6579 25.5205 39.7856 25.5395 39.9144L46.4015 35.3585C46.3966 35.3291 46.3819 35.2997 46.377 35.2703Z" fill="#27374D"/>
<path d="M37.0905 59.0947L22.9717 64.244C23.0388 64.3933 23.0945 64.5474 23.1384 64.705L37.2573 59.5557C37.1923 59.4056 37.1366 59.2517 37.0905 59.0947Z" fill="#27374D"/>
<path d="M66.9422 30.5234L53.7012 33.3139C53.7443 33.4751 53.7771 33.6389 53.7993 33.8043L67.0403 31.0188C66.9977 30.8558 66.965 30.6904 66.9422 30.5234Z" fill="#27374D"/>
<path d="M60.4287 56.1818C60.3986 56.0199 60.3806 55.856 60.3747 55.6914L51.2678 56.6722L44.0049 57.4961C44.0327 57.6583 44.0508 57.8221 44.0589 57.9865L55.5786 56.7311L60.4287 56.1818Z" fill="#27374D"/>
<path d="M18.5822 41.3369C18.5822 41.2585 18.5479 41.18 18.5331 41.1016L6.16504 44.3677C6.21867 44.5277 6.25966 44.6917 6.28764 44.8581L18.6557 41.592C18.6312 41.4988 18.6018 41.4154 18.5822 41.3369Z" fill="#27374D"/>
<path d="M20.6359 62.4827L22.0041 43.9894C21.8401 43.9877 21.6764 43.9763 21.5137 43.9551L20.1455 62.4435C20.3098 62.4434 20.4738 62.4565 20.6359 62.4827Z" fill="#27374D"/>
<path d="M25.0112 38.4819L46.2704 33.8377C46.3218 33.3951 46.4513 32.965 46.653 32.5676L32.0584 17.6641C31.6366 17.8535 31.1817 17.9584 30.7196 17.973L24.2266 37.5894C24.5373 37.8398 24.8027 38.1417 25.0112 38.4819Z" fill="#526D82"/>
<path d="M25.2559 41.8026L38.9186 54.8671C39.4035 54.6269 39.937 54.5011 40.4781 54.4993H40.5811L47.545 37.129C47.2419 36.8673 46.9821 36.5595 46.775 36.2168L25.5158 40.861C25.4752 41.1858 25.3876 41.5029 25.2559 41.8026Z" fill="#526D82"/>
<path d="M18.9443 38.5954C18.9934 38.5121 19.0473 38.4385 19.1013 38.36L14.5993 31.9062C13.7499 34.4266 13.3176 37.0687 13.3193 39.7283C13.3193 40.2873 13.3439 40.8464 13.3831 41.4055L18.4785 40.0618C18.5238 39.5446 18.6829 39.0439 18.9443 38.5954Z" fill="#526D82"/>
<path d="M50.036 38.061H49.8447L42.876 55.4362C43.2093 55.7365 43.4823 56.0977 43.6803 56.5004L56.6418 55.0684C57.6683 53.8082 58.5654 52.4478 59.3194 51.0078L50.9334 37.9482C50.6395 38.0201 50.3384 38.0579 50.036 38.061Z" fill="#526D82"/>
<path d="M61.1879 33.1768L53.7974 34.7314C53.739 35.2508 53.5719 35.7521 53.307 36.2026C53.2187 36.3583 53.117 36.506 53.0029 36.644L60.5209 48.35C62.3392 43.4962 62.5727 38.1911 61.1879 33.1964V33.1768Z" fill="#526D82"/>
<path d="M38.6978 61.1391C38.3497 60.9336 38.0395 60.6699 37.7807 60.3594L30.4834 63.0272C33.8997 64.0727 37.503 64.3605 41.0419 63.8707L40.3259 61.6099C39.7536 61.5841 39.1956 61.4227 38.6978 61.1391Z" fill="#526D82"/>
<path d="M43.5674 59.8644C43.3341 60.2572 43.0278 60.6017 42.665 60.8795L43.4693 63.4198C47.4078 62.4697 51.0439 60.5437 54.0425 57.8193L43.945 58.9228C43.8654 59.2533 43.7383 59.5705 43.5674 59.8644Z" fill="#526D82"/>
<path d="M19.1017 42.4258L18.9006 42.4846L13.6729 43.8627C14.4462 48.4228 16.5107 52.6657 19.6215 56.0886L20.5484 43.6273C20.4361 43.5792 20.3264 43.5252 20.2198 43.4654C19.7752 43.2052 19.3935 42.8503 19.1017 42.4258Z" fill="#526D82"/>
<path d="M37.2374 56.6475L23.5746 43.583C23.3862 43.6734 23.1911 43.7488 22.991 43.8086L21.917 58.3051C23.48 59.6383 25.2051 60.7687 27.0516 61.6693L36.9431 58.0599C36.9418 57.5737 37.042 57.0927 37.2374 56.6475Z" fill="#526D82"/>
<path d="M53.2918 32.3327L60.4077 30.8321C59.1812 27.7048 57.3193 24.866 54.9396 22.4951C54.6258 22.1813 54.307 21.8821 53.9588 21.5879L51.9775 31.0135C52.5203 31.3348 52.9726 31.7888 53.2918 32.3327Z" fill="#526D82"/>
<path d="M28.3694 17.1836C22.8161 19.5009 18.3068 23.7764 15.6973 29.1986L21.0918 36.952C21.3489 36.889 21.6118 36.8528 21.8764 36.8441L28.3743 17.2277C28.3743 17.2277 28.3743 17.1934 28.3694 17.1836Z" fill="#526D82"/>
<path d="M49.5801 30.5227L51.836 19.8759C48.0984 17.2005 43.675 15.6472 39.0854 15.3984L34.8188 15.5358C34.5294 15.5652 34.2401 15.6044 33.9557 15.6486C33.9164 15.7564 33.8723 15.8594 33.8232 15.9673L48.4178 30.8709C48.7836 30.692 49.1762 30.5744 49.5801 30.5227Z" fill="#526D82"/>
</g>
<path d="M121.25 34.6706H117.111C116.952 33.7864 116.656 33.0083 116.223 32.3363C115.79 31.6643 115.259 31.094 114.631 30.6254C114.004 30.1568 113.301 29.8031 112.523 29.5644C111.753 29.3256 110.935 29.2063 110.069 29.2063C108.504 29.2063 107.102 29.5997 105.865 30.3867C104.635 31.1736 103.663 32.3275 102.947 33.8483C102.239 35.3691 101.886 37.2259 101.886 39.4187C101.886 41.6292 102.239 43.4949 102.947 45.0157C103.663 46.5365 104.64 47.686 105.878 48.4641C107.116 49.2422 108.508 49.6312 110.056 49.6312C110.913 49.6312 111.727 49.5163 112.496 49.2864C113.274 49.0476 113.977 48.6984 114.605 48.2386C115.233 47.7788 115.763 47.2173 116.196 46.5542C116.638 45.8822 116.943 45.113 117.111 44.2464L121.25 44.2597C121.028 45.5948 120.6 46.8239 119.963 47.9468C119.335 49.0609 118.526 50.0247 117.536 50.8381C116.554 51.6428 115.432 52.2661 114.167 52.7082C112.903 53.1503 111.523 53.3714 110.029 53.3714C107.677 53.3714 105.582 52.8143 103.742 51.7002C101.903 50.5773 100.453 48.9725 99.3922 46.8858C98.34 44.7991 97.8139 42.3101 97.8139 39.4187C97.8139 36.5186 98.3444 34.0295 99.4054 31.9517C100.466 29.865 101.917 28.2646 103.756 27.1505C105.595 26.0276 107.686 25.4661 110.029 25.4661C111.47 25.4661 112.814 25.6739 114.061 26.0895C115.317 26.4962 116.444 27.0974 117.443 27.8932C118.442 28.6802 119.269 29.6439 119.923 30.7845C120.578 31.9163 121.02 33.2117 121.25 34.6706ZM150.122 39.4187C150.122 42.3189 149.591 44.8123 148.53 46.899C147.469 48.9769 146.015 50.5773 144.167 51.7002C142.328 52.8143 140.236 53.3714 137.893 53.3714C135.541 53.3714 133.441 52.8143 131.593 51.7002C129.754 50.5773 128.304 48.9725 127.243 46.8858C126.182 44.7991 125.652 42.3101 125.652 39.4187C125.652 36.5186 126.182 34.0295 127.243 31.9517C128.304 29.865 129.754 28.2646 131.593 27.1505C133.441 26.0276 135.541 25.4661 137.893 25.4661C140.236 25.4661 142.328 26.0276 144.167 27.1505C146.015 28.2646 147.469 29.865 148.53 31.9517C149.591 34.0295 150.122 36.5186 150.122 39.4187ZM146.063 39.4187C146.063 37.2082 145.705 35.347 144.989 33.835C144.282 32.3142 143.309 31.1647 142.071 30.3867C140.842 29.5997 139.45 29.2063 137.893 29.2063C136.328 29.2063 134.931 29.5997 133.702 30.3867C132.473 31.1647 131.501 32.3142 130.784 33.835C130.077 35.347 129.723 37.2082 129.723 39.4187C129.723 41.6292 130.077 43.4949 130.784 45.0157C131.501 46.5277 132.473 47.6771 133.702 48.4641C134.931 49.2422 136.328 49.6312 137.893 49.6312C139.45 49.6312 140.842 49.2422 142.071 48.4641C143.309 47.6771 144.282 46.5277 144.989 45.0157C145.705 43.4949 146.063 41.6292 146.063 39.4187ZM177.529 25.8375V53H173.762L159.955 33.079H159.703V53H155.605V25.8375H159.398L173.218 45.785H173.47V25.8375H177.529ZM195.72 25.8375V53H191.953L178.146 33.079H177.894V53H173.796V25.8375H177.589L191.409 45.785H191.661V25.8375H195.72ZM201.325 53V25.8375H218.354V29.3654H205.423V37.6415H217.466V41.1562H205.423V49.4721H218.513V53H201.325ZM246.762 34.6706H242.624C242.465 33.7864 242.169 33.0083 241.736 32.3363C241.302 31.6643 240.772 31.094 240.144 30.6254C239.516 30.1568 238.813 29.8031 238.035 29.5644C237.266 29.3256 236.448 29.2063 235.582 29.2063C234.017 29.2063 232.615 29.5997 231.377 30.3867C230.148 31.1736 229.176 32.3275 228.459 33.8483C227.752 35.3691 227.398 37.2259 227.398 39.4187C227.398 41.6292 227.752 43.4949 228.459 45.0157C229.176 46.5365 230.153 47.686 231.391 48.4641C232.628 49.2422 234.021 49.6312 235.568 49.6312C236.426 49.6312 237.24 49.5163 238.009 49.2864C238.787 49.0476 239.49 48.6984 240.118 48.2386C240.745 47.7788 241.276 47.2173 241.709 46.5542C242.151 45.8822 242.456 45.113 242.624 44.2464L246.762 44.2597C246.541 45.5948 246.112 46.8239 245.476 47.9468C244.848 49.0609 244.039 50.0247 243.049 50.8381C242.067 51.6428 240.944 52.2661 239.68 52.7082C238.416 53.1503 237.036 53.3714 235.542 53.3714C233.19 53.3714 231.094 52.8143 229.255 51.7002C227.416 50.5773 225.966 48.9725 224.905 46.8858C223.853 44.7991 223.327 42.3101 223.327 39.4187C223.327 36.5186 223.857 34.0295 224.918 31.9517C225.979 29.865 227.429 28.2646 229.269 27.1505C231.108 26.0276 233.199 25.4661 235.542 25.4661C236.983 25.4661 238.327 25.6739 239.574 26.0895C240.829 26.4962 241.957 27.0974 242.956 27.8932C243.955 28.6802 244.782 29.6439 245.436 30.7845C246.09 31.9163 246.532 33.2117 246.762 34.6706ZM250.7 29.3654V25.8375H271.722V29.3654H263.247V53H259.162V29.3654H250.7ZM280.839 25.8375V53H276.741V25.8375H280.839ZM289.555 25.8375L297.115 47.9601H297.42L304.98 25.8375H309.41L299.635 53H294.9L285.125 25.8375H289.555ZM313.706 53V25.8375H330.735V29.3654H317.804V37.6415H329.847V41.1562H317.804V49.4721H330.894V53H313.706Z" fill="#27374D"/>
<defs>
<clipPath id="clip0_225_7650">
<rect width="76.9942" height="79" fill="white"/>
</clipPath>
</defs>
</svg>
