<svg width="383" height="353" viewBox="0 0 383 353" fill="none" xmlns="http://www.w3.org/2000/svg">
<g clip-path="url(#clip0_44_6051)">
<path d="M325.29 135.91C325.29 136.776 325.033 137.623 324.552 138.343C324.071 139.064 323.387 139.625 322.586 139.957C321.786 140.288 320.905 140.375 320.056 140.206C319.206 140.037 318.426 139.62 317.813 139.007C317.201 138.395 316.783 137.614 316.614 136.765C316.445 135.915 316.532 135.034 316.864 134.234C317.195 133.434 317.757 132.749 318.477 132.268C319.197 131.787 320.044 131.53 320.91 131.53C322.072 131.53 323.186 131.991 324.007 132.813C324.829 133.634 325.29 134.748 325.29 135.91Z" fill="#9A9DA3"/>
<path d="M360.54 144.1C360.542 144.526 360.418 144.942 360.183 145.297C359.948 145.652 359.613 145.929 359.22 146.093C358.827 146.258 358.395 146.302 357.977 146.22C357.559 146.138 357.175 145.934 356.873 145.634C356.572 145.334 356.366 144.95 356.282 144.533C356.199 144.116 356.241 143.683 356.403 143.29C356.565 142.896 356.841 142.56 357.195 142.323C357.548 142.086 357.965 141.96 358.39 141.96C358.959 141.96 359.504 142.185 359.907 142.586C360.31 142.987 360.538 143.531 360.54 144.1Z" fill="#9A9DA3"/>
<path d="M268.3 235.63C268.3 235.911 268.217 236.185 268.061 236.419C267.905 236.652 267.683 236.834 267.423 236.942C267.164 237.049 266.878 237.077 266.603 237.023C266.327 236.968 266.074 236.833 265.876 236.634C265.677 236.435 265.542 236.182 265.487 235.907C265.432 235.632 265.461 235.346 265.568 235.087C265.676 234.827 265.858 234.605 266.091 234.449C266.325 234.293 266.599 234.21 266.88 234.21C267.257 234.21 267.618 234.36 267.884 234.626C268.15 234.892 268.3 235.253 268.3 235.63Z" fill="#9A9DA3"/>
<path d="M364.66 186.02C365.853 186.02 366.82 185.053 366.82 183.86C366.82 182.667 365.853 181.7 364.66 181.7C363.467 181.7 362.5 182.667 362.5 183.86C362.5 185.053 363.467 186.02 364.66 186.02Z" fill="#9A9DA3"/>
<path d="M312.38 54.35C313.971 54.35 315.26 53.0605 315.26 51.47C315.26 49.8794 313.971 48.59 312.38 48.59C310.789 48.59 309.5 49.8794 309.5 51.47C309.5 53.0605 310.789 54.35 312.38 54.35Z" fill="#9A9DA3"/>
<path d="M100.44 287.16C101.147 287.16 101.72 286.587 101.72 285.88C101.72 285.173 101.147 284.6 100.44 284.6C99.7332 284.6 99.1602 285.173 99.1602 285.88C99.1602 286.587 99.7332 287.16 100.44 287.16Z" fill="#9A9DA3"/>
<path d="M170.04 252.15C170.04 252.704 169.876 253.245 169.569 253.706C169.261 254.166 168.824 254.525 168.312 254.737C167.8 254.949 167.237 255.004 166.694 254.896C166.151 254.788 165.652 254.522 165.261 254.13C164.869 253.738 164.602 253.239 164.494 252.696C164.386 252.153 164.442 251.59 164.654 251.079C164.865 250.567 165.224 250.13 165.685 249.822C166.145 249.514 166.687 249.35 167.24 249.35C167.983 249.35 168.695 249.645 169.22 250.17C169.745 250.695 170.04 251.407 170.04 252.15Z" fill="#9A9DA3"/>
<path d="M356.68 105.97C358.911 105.97 360.72 104.161 360.72 101.93C360.72 99.6988 358.911 97.89 356.68 97.89C354.448 97.89 352.64 99.6988 352.64 101.93C352.64 104.161 354.448 105.97 356.68 105.97Z" fill="#DBDBDB"/>
<path d="M242.54 130.04C242.542 130.695 242.349 131.336 241.987 131.882C241.624 132.427 241.108 132.853 240.504 133.105C239.899 133.357 239.233 133.424 238.59 133.298C237.948 133.171 237.357 132.857 236.893 132.394C236.429 131.932 236.113 131.342 235.984 130.699C235.856 130.057 235.921 129.391 236.171 128.786C236.421 128.18 236.845 127.663 237.39 127.299C237.934 126.934 238.575 126.74 239.23 126.74C240.106 126.74 240.946 127.087 241.567 127.706C242.187 128.325 242.537 129.164 242.54 130.04Z" fill="#DBDBDB"/>
<path d="M239.97 308.96C239.97 309.231 239.89 309.496 239.74 309.721C239.589 309.947 239.375 310.122 239.125 310.226C238.874 310.329 238.599 310.357 238.333 310.304C238.067 310.251 237.823 310.12 237.632 309.929C237.44 309.737 237.31 309.493 237.257 309.227C237.204 308.962 237.231 308.686 237.335 308.436C237.438 308.185 237.614 307.972 237.839 307.821C238.065 307.67 238.329 307.59 238.6 307.59C238.964 307.59 239.312 307.734 239.569 307.991C239.826 308.248 239.97 308.597 239.97 308.96Z" fill="#DBDBDB"/>
<path d="M76.9299 308.59C76.9299 309.209 76.7464 309.814 76.4024 310.329C76.0585 310.844 75.5697 311.245 74.9977 311.482C74.4258 311.719 73.7965 311.781 73.1893 311.66C72.5821 311.539 72.0244 311.241 71.5867 310.803C71.1489 310.365 70.8508 309.808 70.7301 309.201C70.6093 308.593 70.6713 307.964 70.9082 307.392C71.1451 306.82 71.5463 306.331 72.061 305.987C72.5757 305.644 73.1809 305.46 73.7999 305.46C74.63 305.46 75.4262 305.79 76.0132 306.377C76.6002 306.964 76.9299 307.76 76.9299 308.59Z" fill="#DBDBDB"/>
<path d="M334.81 289.77C336.235 289.77 337.39 288.615 337.39 287.19C337.39 285.765 336.235 284.61 334.81 284.61C333.386 284.61 332.23 285.765 332.23 287.19C332.23 288.615 333.386 289.77 334.81 289.77Z" fill="#DBDBDB"/>
<path d="M221.31 195.75C221.31 196.126 221.198 196.493 220.99 196.806C220.781 197.118 220.484 197.362 220.137 197.505C219.79 197.649 219.408 197.687 219.039 197.613C218.671 197.54 218.332 197.359 218.066 197.093C217.801 196.828 217.62 196.489 217.546 196.121C217.473 195.752 217.511 195.37 217.654 195.023C217.798 194.676 218.042 194.379 218.354 194.17C218.667 193.961 219.034 193.85 219.41 193.85C219.914 193.85 220.397 194.05 220.753 194.406C221.11 194.763 221.31 195.246 221.31 195.75Z" fill="#DBDBDB"/>
<path d="M3.32 307.17C3.32 307.498 3.22265 307.819 3.04024 308.092C2.85784 308.365 2.59857 308.578 2.29525 308.704C1.99192 308.829 1.65815 308.862 1.33614 308.798C1.01413 308.734 0.718351 308.576 0.486196 308.344C0.254041 308.112 0.0959477 307.816 0.0318962 307.494C-0.0321552 307.172 0.000721946 306.838 0.126363 306.535C0.252005 306.231 0.464767 305.972 0.737753 305.79C1.01074 305.607 1.33168 305.51 1.65999 305.51C2.10025 305.51 2.52248 305.685 2.83379 305.996C3.1451 306.308 3.32 306.73 3.32 307.17Z" fill="#DBDBDB"/>
<path d="M210.82 159.67C210.82 159.939 210.74 160.202 210.59 160.426C210.441 160.649 210.229 160.823 209.98 160.926C209.732 161.029 209.458 161.056 209.194 161.004C208.93 160.951 208.688 160.822 208.498 160.632C208.308 160.441 208.178 160.199 208.126 159.935C208.073 159.671 208.1 159.398 208.203 159.149C208.306 158.901 208.48 158.689 208.704 158.539C208.928 158.39 209.191 158.31 209.46 158.31C209.82 158.31 210.166 158.453 210.421 158.708C210.676 158.963 210.82 159.309 210.82 159.67Z" fill="#005EFF"/>
<path d="M315.05 190.54C317.259 190.54 319.05 188.749 319.05 186.54C319.05 184.331 317.259 182.54 315.05 182.54C312.841 182.54 311.05 184.331 311.05 186.54C311.05 188.749 312.841 190.54 315.05 190.54Z" fill="#005EFF"/>
<path d="M172.04 195.12C172.04 195.858 171.821 196.579 171.411 197.192C171.002 197.806 170.419 198.284 169.737 198.566C169.056 198.848 168.306 198.922 167.582 198.778C166.859 198.634 166.194 198.279 165.673 197.758C165.151 197.236 164.796 196.571 164.652 195.848C164.508 195.124 164.582 194.374 164.864 193.693C165.146 193.011 165.624 192.428 166.238 192.019C166.851 191.609 167.572 191.39 168.31 191.39C169.299 191.39 170.248 191.783 170.948 192.483C171.647 193.182 172.04 194.131 172.04 195.12Z" fill="#005EFF"/>
<path d="M73.4003 248.14C73.4003 248.498 73.2941 248.848 73.0952 249.146C72.8963 249.443 72.6137 249.675 72.2829 249.812C71.9522 249.949 71.5883 249.985 71.2372 249.915C70.8861 249.845 70.5635 249.673 70.3104 249.42C70.0573 249.167 69.8849 248.844 69.8151 248.493C69.7452 248.142 69.7811 247.778 69.9181 247.447C70.055 247.117 70.287 246.834 70.5847 246.635C70.8823 246.436 71.2323 246.33 71.5903 246.33C72.0703 246.33 72.5307 246.521 72.8701 246.86C73.2096 247.2 73.4003 247.66 73.4003 248.14Z" fill="#005EFF"/>
<path d="M279.75 131.3C280.993 131.3 282 130.293 282 129.05C282 127.807 280.993 126.8 279.75 126.8C278.507 126.8 277.5 127.807 277.5 129.05C277.5 130.293 278.507 131.3 279.75 131.3Z" fill="#005EFF"/>
<path d="M280.58 287.26C280.578 288.09 280.33 288.901 279.867 289.591C279.404 290.28 278.748 290.817 277.98 291.133C277.212 291.45 276.368 291.531 275.554 291.368C274.74 291.205 273.993 290.804 273.406 290.216C272.82 289.629 272.421 288.88 272.26 288.066C272.098 287.251 272.182 286.407 272.5 285.641C272.819 284.874 273.357 284.218 274.047 283.757C274.738 283.296 275.549 283.05 276.38 283.05C276.932 283.05 277.479 283.159 277.989 283.371C278.499 283.582 278.963 283.893 279.353 284.284C279.743 284.675 280.052 285.139 280.263 285.65C280.473 286.16 280.581 286.708 280.58 287.26Z" fill="#005EFF"/>
<path d="M370.04 234.86C370.04 235.4 369.88 235.928 369.58 236.377C369.28 236.826 368.854 237.175 368.355 237.382C367.856 237.589 367.307 237.643 366.777 237.537C366.248 237.432 365.761 237.172 365.38 236.79C364.998 236.409 364.738 235.922 364.633 235.392C364.527 234.863 364.581 234.314 364.788 233.815C364.995 233.316 365.344 232.89 365.793 232.59C366.242 232.29 366.77 232.13 367.31 232.13C367.669 232.129 368.025 232.198 368.356 232.335C368.688 232.472 368.99 232.673 369.243 232.927C369.497 233.18 369.698 233.482 369.835 233.814C369.972 234.145 370.041 234.501 370.04 234.86Z" fill="#005EFF"/>
<path d="M328.4 237.47C328.4 237.877 328.279 238.276 328.053 238.614C327.827 238.953 327.505 239.217 327.129 239.373C326.752 239.529 326.338 239.57 325.938 239.49C325.539 239.411 325.172 239.215 324.884 238.927C324.596 238.638 324.399 238.271 324.32 237.872C324.24 237.472 324.281 237.058 324.437 236.682C324.593 236.305 324.857 235.983 325.196 235.757C325.535 235.531 325.933 235.41 326.34 235.41C326.887 235.41 327.411 235.627 327.797 236.013C328.183 236.4 328.4 236.924 328.4 237.47Z" fill="#0071D6"/>
<path d="M212.15 236.68C213.503 236.68 214.6 235.583 214.6 234.23C214.6 232.877 213.503 231.78 212.15 231.78C210.797 231.78 209.7 232.877 209.7 234.23C209.7 235.583 210.797 236.68 212.15 236.68Z" fill="#0071D6"/>
<path d="M34.2004 296.62C36.1831 296.62 37.7904 295.013 37.7904 293.03C37.7904 291.047 36.1831 289.44 34.2004 289.44C32.2176 289.44 30.6104 291.047 30.6104 293.03C30.6104 295.013 32.2176 296.62 34.2004 296.62Z" fill="#0071D6"/>
<path d="M195.95 302.79C196.806 302.79 197.5 302.096 197.5 301.24C197.5 300.384 196.806 299.69 195.95 299.69C195.094 299.69 194.4 300.384 194.4 301.24C194.4 302.096 195.094 302.79 195.95 302.79Z" fill="#0071D6"/>
<path d="M342.88 62.1699C342.882 62.4888 342.789 62.801 342.614 63.0671C342.438 63.3332 342.187 63.5411 341.893 63.6645C341.599 63.7879 341.275 63.8212 340.962 63.7602C340.649 63.6992 340.361 63.5467 340.135 63.3219C339.909 63.0972 339.755 62.8103 339.692 62.4977C339.629 62.1852 339.66 61.8609 339.782 61.5662C339.903 61.2714 340.11 61.0193 340.375 60.842C340.64 60.6646 340.951 60.57 341.27 60.5699C341.695 60.5699 342.103 60.7382 342.405 61.038C342.707 61.3377 342.877 61.7447 342.88 62.1699Z" fill="#0071D6"/>
<path d="M243.72 91.77C244.864 91.77 245.79 90.8432 245.79 89.7C245.79 88.5568 244.864 87.63 243.72 87.63C242.577 87.63 241.65 88.5568 241.65 89.7C241.65 90.8432 242.577 91.77 243.72 91.77Z" fill="#0071D6"/>
<path d="M129.04 303.95C129.04 304.725 128.81 305.483 128.38 306.128C127.949 306.773 127.337 307.275 126.62 307.572C125.904 307.868 125.116 307.946 124.355 307.795C123.595 307.643 122.897 307.27 122.348 306.722C121.8 306.174 121.427 305.475 121.276 304.715C121.124 303.954 121.202 303.166 121.499 302.45C121.795 301.734 122.298 301.121 122.942 300.691C123.587 300.26 124.345 300.03 125.12 300.03C125.635 300.029 126.146 300.129 126.622 300.326C127.098 300.522 127.531 300.811 127.895 301.175C128.259 301.54 128.548 301.972 128.744 302.448C128.941 302.925 129.042 303.435 129.04 303.95Z" fill="#0071D6"/>
<path d="M121.42 246.48C122.21 246.48 122.85 245.84 122.85 245.05C122.85 244.26 122.21 243.62 121.42 243.62C120.63 243.62 119.99 244.26 119.99 245.05C119.99 245.84 120.63 246.48 121.42 246.48Z" fill="#009BF4"/>
<path d="M124.41 199.57C124.41 199.952 124.297 200.325 124.085 200.642C123.872 200.96 123.571 201.207 123.218 201.353C122.866 201.499 122.478 201.537 122.103 201.463C121.729 201.388 121.385 201.205 121.115 200.935C120.845 200.665 120.661 200.321 120.587 199.947C120.512 199.572 120.551 199.184 120.697 198.831C120.843 198.479 121.09 198.177 121.408 197.965C121.725 197.753 122.098 197.64 122.48 197.64C122.992 197.64 123.483 197.843 123.845 198.205C124.206 198.567 124.41 199.058 124.41 199.57Z" fill="#009BF4"/>
<path d="M179.74 144.53C181.149 144.53 182.29 143.388 182.29 141.98C182.29 140.572 181.149 139.43 179.74 139.43C178.332 139.43 177.19 140.572 177.19 141.98C177.19 143.388 178.332 144.53 179.74 144.53Z" fill="#009BF4"/>
<path d="M228.46 270.39C228.46 270.983 228.284 271.563 227.954 272.057C227.625 272.55 227.156 272.934 226.608 273.162C226.06 273.389 225.457 273.448 224.875 273.332C224.293 273.216 223.758 272.931 223.339 272.511C222.919 272.092 222.633 271.557 222.518 270.975C222.402 270.393 222.461 269.79 222.688 269.242C222.915 268.694 223.3 268.225 223.793 267.895C224.287 267.566 224.867 267.39 225.46 267.39C226.256 267.39 227.019 267.706 227.581 268.269C228.144 268.831 228.46 269.594 228.46 270.39Z" fill="#009BF4"/>
<path d="M296.16 90.22C296.16 90.4415 296.094 90.658 295.971 90.8422C295.848 91.0264 295.673 91.17 295.469 91.2547C295.264 91.3395 295.039 91.3617 294.821 91.3185C294.604 91.2752 294.405 91.1686 294.248 91.0119C294.091 90.8553 293.985 90.6557 293.941 90.4385C293.898 90.2212 293.92 89.996 294.005 89.7914C294.09 89.5867 294.233 89.4118 294.418 89.2887C294.602 89.1657 294.818 89.1 295.04 89.1C295.187 89.1 295.333 89.1289 295.469 89.1852C295.604 89.2415 295.728 89.324 295.832 89.428C295.936 89.532 296.018 89.6555 296.075 89.7914C296.131 89.9273 296.16 90.0729 296.16 90.22Z" fill="#009BF4"/>
<path d="M156.26 295.47C156.26 295.933 156.123 296.385 155.866 296.77C155.609 297.155 155.243 297.455 154.816 297.632C154.388 297.809 153.917 297.855 153.464 297.765C153.01 297.675 152.593 297.452 152.265 297.125C151.938 296.797 151.715 296.38 151.625 295.926C151.535 295.472 151.581 295.002 151.758 294.574C151.935 294.147 152.235 293.781 152.62 293.524C153.005 293.267 153.457 293.13 153.92 293.13C154.541 293.13 155.136 293.376 155.575 293.815C156.014 294.254 156.26 294.849 156.26 295.47Z" fill="#009BF4"/>
<path d="M266.03 189.57C267.256 189.57 268.25 188.576 268.25 187.35C268.25 186.124 267.256 185.13 266.03 185.13C264.803 185.13 263.81 186.124 263.81 187.35C263.81 188.576 264.803 189.57 266.03 189.57Z" fill="#009BF4"/>
<g style="mix-blend-mode:multiply">
<path d="M355.04 48.7L307.95 39.93C307.926 39.9267 307.904 39.9164 307.886 39.9003C307.868 39.8843 307.856 39.8633 307.85 39.84C307.84 39.8197 307.835 39.7975 307.835 39.775C307.835 39.7525 307.84 39.7303 307.85 39.71L354.34 0.0299892C354.36 0.0185794 354.382 0.0125732 354.405 0.0125732C354.428 0.0125732 354.45 0.0185794 354.47 0.0299892C354.493 0.0380759 354.513 0.052921 354.527 0.0725613C354.541 0.0922015 354.549 0.115713 354.55 0.13999L355.14 48.59C355.147 48.6057 355.151 48.6227 355.151 48.64C355.151 48.6572 355.147 48.6743 355.14 48.69C355.125 48.6995 355.108 48.7053 355.091 48.7071C355.074 48.7088 355.056 48.7064 355.04 48.7ZM308.23 39.7L354.91 48.47L354.32 0.46999L308.23 39.7Z" fill="#C7C7C7"/>
<path d="M262.54 96.4699C262.507 96.4806 262.472 96.4806 262.44 96.4699C262.43 96.4497 262.425 96.4274 262.425 96.4049C262.425 96.3824 262.43 96.3602 262.44 96.3399L279.88 59.6699C279.888 59.6504 279.902 59.6336 279.92 59.6213C279.938 59.609 279.958 59.6016 279.98 59.5999C279.995 59.5878 280.015 59.5812 280.035 59.5812C280.055 59.5812 280.074 59.5878 280.09 59.5999L303.14 89.9599C303.149 89.9802 303.154 90.0024 303.154 90.0249C303.154 90.0474 303.149 90.0697 303.14 90.0899C303.131 90.1095 303.117 90.1263 303.099 90.1386C303.082 90.1509 303.061 90.1583 303.04 90.1599L262.56 96.4699H262.54ZM280.04 59.8899L262.76 96.1699L302.82 89.9499L280.04 59.8899Z" fill="#C7C7C7"/>
<path d="M303.04 90.16C303.011 90.1686 302.98 90.1686 302.95 90.16C302.943 90.1443 302.939 90.1272 302.939 90.11C302.939 90.0927 302.943 90.0757 302.95 90.06L307.86 39.83C307.862 39.8045 307.871 39.78 307.887 39.7602C307.904 39.7404 307.926 39.7263 307.95 39.72C307.969 39.7062 307.992 39.6987 308.015 39.6987C308.039 39.6987 308.062 39.7062 308.08 39.72L343.14 85.28C343.15 85.3003 343.155 85.3225 343.155 85.345C343.155 85.3675 343.15 85.3897 343.14 85.41C343.132 85.4302 343.119 85.4477 343.101 85.4601C343.083 85.4726 343.062 85.4795 343.04 85.48L303.04 90.15V90.16ZM308.04 40.16L303.17 89.93L342.76 85.3L308.04 40.16Z" fill="#C7C7C7"/>
<path d="M303.04 90.16C303.024 90.1666 303.007 90.17 302.99 90.17C302.972 90.17 302.955 90.1666 302.94 90.16L279.94 59.77C279.932 59.7543 279.929 59.7372 279.929 59.72C279.929 59.7027 279.932 59.6856 279.94 59.67C279.947 59.6383 279.964 59.61 279.99 59.59L307.99 39.75C308.011 39.7377 308.035 39.7312 308.06 39.7312C308.084 39.7312 308.108 39.7377 308.13 39.75C308.149 39.7633 308.164 39.7813 308.175 39.8023C308.185 39.8233 308.19 39.8465 308.19 39.87L303.28 90.1C303.277 90.125 303.267 90.1488 303.251 90.1683C303.235 90.1879 303.214 90.2023 303.19 90.21L303.04 90.16ZM280.16 59.68L302.95 89.68L307.8 40.04L280.16 59.68Z" fill="#C7C7C7"/>
<path d="M374.09 88.7L343.04 85.47C343.022 85.4688 343.005 85.4638 342.989 85.4551C342.974 85.4465 342.96 85.4345 342.95 85.42C342.942 85.4026 342.938 85.3839 342.938 85.365C342.938 85.3461 342.942 85.3274 342.95 85.31L354.95 48.52C354.961 48.5059 354.974 48.4943 354.99 48.4857C355.005 48.4771 355.022 48.4717 355.04 48.47C355.064 48.4702 355.088 48.4768 355.109 48.489C355.13 48.5013 355.148 48.5189 355.16 48.54L374.16 88.54C374.171 88.5587 374.176 88.5799 374.176 88.6015C374.176 88.6231 374.17 88.6443 374.158 88.6627C374.147 88.6811 374.131 88.6962 374.112 88.7063C374.093 88.7163 374.071 88.7211 374.05 88.72L374.09 88.7ZM343.17 85.26L373.88 88.47L355.04 48.91L343.17 85.26Z" fill="#C7C7C7"/>
<path d="M343.04 85.4699C343.024 85.4771 343.007 85.4809 342.99 85.4809C342.972 85.4809 342.955 85.4771 342.94 85.4699L307.85 39.8799C307.835 39.8595 307.827 39.8351 307.827 39.8099C307.827 39.7848 307.835 39.7603 307.85 39.7399C307.863 39.7191 307.883 39.7031 307.907 39.6942C307.93 39.6852 307.955 39.6837 307.98 39.6899L355.04 48.4699C355.076 48.4781 355.108 48.4995 355.13 48.5299C355.14 48.5625 355.14 48.5974 355.13 48.6299L343.13 85.4299C343.121 85.4508 343.108 85.4691 343.09 85.4831C343.073 85.4971 343.052 85.5064 343.03 85.5099L343.04 85.4699ZM308.28 39.9699L342.99 85.0899L354.88 48.6699L308.28 39.9699Z" fill="#C7C7C7"/>
<path d="M276.9 115.22L242.22 108.08C242.197 108.076 242.175 108.063 242.158 108.045C242.142 108.027 242.132 108.004 242.13 107.98C242.125 107.955 242.128 107.928 242.139 107.905C242.15 107.882 242.168 107.862 242.19 107.85L262.5 96.22C262.522 96.2003 262.551 96.1895 262.58 96.1895C262.61 96.1895 262.638 96.2003 262.66 96.22L277.04 115.02C277.053 115.041 277.059 115.065 277.059 115.09C277.059 115.115 277.053 115.139 277.04 115.16C277.025 115.182 277.004 115.2 276.979 115.211C276.955 115.221 276.927 115.225 276.9 115.22ZM242.581 107.9L276.581 114.9L262.51 96.47L242.581 107.9Z" fill="#C7C7C7"/>
<path d="M276.9 115.22C276.877 115.218 276.855 115.209 276.836 115.196C276.817 115.182 276.802 115.163 276.793 115.142C276.784 115.12 276.78 115.097 276.783 115.074C276.786 115.05 276.796 115.028 276.81 115.01L302.95 89.95C302.969 89.9411 302.989 89.9365 303.01 89.9365C303.031 89.9365 303.051 89.9411 303.07 89.95C303.108 89.9615 303.14 89.9864 303.16 90.02L311.21 110.47C311.218 110.487 311.221 110.506 311.221 110.525C311.221 110.544 311.218 110.563 311.21 110.58C311.203 110.598 311.19 110.613 311.174 110.623C311.158 110.634 311.139 110.64 311.12 110.64L276.93 115.26L276.9 115.22ZM302.99 90.22L277.26 114.92L310.92 110.38L302.99 90.22Z" fill="#C7C7C7"/>
<path d="M276.9 115.22C276.872 115.232 276.839 115.232 276.81 115.22L262.44 96.4C262.431 96.3815 262.426 96.3609 262.426 96.34C262.426 96.3191 262.431 96.2985 262.44 96.28C262.447 96.2599 262.459 96.242 262.475 96.2279C262.491 96.2139 262.51 96.2042 262.53 96.2L303.04 89.92C303.068 89.9109 303.097 89.9117 303.124 89.9223C303.15 89.9329 303.172 89.9527 303.185 89.978C303.198 90.0033 303.202 90.0326 303.196 90.0604C303.19 90.0883 303.173 90.113 303.15 90.13L277.04 115.19C277.021 115.206 276.998 115.216 276.974 115.222C276.95 115.227 276.925 115.226 276.9 115.22ZM262.77 96.47L276.91 114.96L302.67 90.27L262.77 96.47Z" fill="#C7C7C7"/>
<path d="M322.8 115.47H322.75L311.04 110.6C311.019 110.592 311.001 110.578 310.987 110.561C310.973 110.543 310.964 110.522 310.96 110.5C310.955 110.477 310.956 110.453 310.965 110.432C310.974 110.41 310.99 110.392 311.01 110.38L342.93 85.2701C342.954 85.2568 342.982 85.2515 343.009 85.2549C343.037 85.2584 343.062 85.2705 343.082 85.2894C343.102 85.3083 343.116 85.3331 343.121 85.3602C343.126 85.3872 343.122 85.4152 343.11 85.4401L322.9 115.47C322.884 115.477 322.867 115.481 322.85 115.481C322.833 115.481 322.816 115.477 322.8 115.47ZM311.34 110.47L322.75 115.21L342.46 85.9801L311.34 110.47Z" fill="#C7C7C7"/>
<path d="M311.09 110.61C311.072 110.606 311.055 110.598 311.041 110.585C311.027 110.573 311.016 110.558 311.01 110.54L302.96 90.1C302.95 90.0833 302.945 90.0643 302.945 90.045C302.945 90.0257 302.95 90.0068 302.96 89.99C302.969 89.9717 302.984 89.9563 303.001 89.9457C303.019 89.9351 303.039 89.9297 303.06 89.93L343.06 85.26C343.087 85.2535 343.114 85.257 343.139 85.27C343.163 85.2829 343.181 85.3043 343.19 85.33C343.206 85.352 343.214 85.3782 343.214 85.405C343.214 85.4319 343.206 85.4581 343.19 85.48L311.17 110.58C311.159 110.59 311.147 110.598 311.133 110.603C311.119 110.608 311.105 110.611 311.09 110.61ZM303.22 90.15L311.15 110.28L342.58 85.55L303.22 90.15Z" fill="#C7C7C7"/>
<path d="M322.801 115.47C322.773 115.471 322.747 115.462 322.725 115.446C322.703 115.43 322.687 115.406 322.681 115.38C322.673 115.353 322.675 115.325 322.685 115.299C322.696 115.274 322.716 115.253 322.741 115.24L374.041 88.47C374.062 88.4578 374.086 88.4513 374.111 88.4513C374.135 88.4513 374.159 88.4578 374.181 88.47C374.195 88.4925 374.202 88.5185 374.202 88.545C374.202 88.5716 374.195 88.5976 374.181 88.62L362.041 114.69C362.032 114.713 362.018 114.733 361.998 114.747C361.978 114.761 361.955 114.769 361.931 114.77L322.761 115.47H322.801ZM373.801 88.85L323.331 115.21L361.891 114.52L373.801 88.85Z" fill="#C7C7C7"/>
<path d="M322.8 115.47C322.786 115.476 322.77 115.48 322.755 115.48C322.739 115.48 322.724 115.476 322.71 115.47C322.693 115.449 322.684 115.422 322.684 115.395C322.684 115.368 322.693 115.341 322.71 115.32L342.91 85.32C342.928 85.3084 342.949 85.3022 342.97 85.3022C342.991 85.3022 343.012 85.3084 343.03 85.32L374.1 88.4701C374.127 88.4719 374.152 88.4828 374.172 88.501C374.192 88.5191 374.205 88.5434 374.21 88.57C374.214 88.5952 374.21 88.6209 374.199 88.6441C374.189 88.6672 374.172 88.6866 374.15 88.7001L322.86 115.47H322.8ZM343.04 85.4701L323.18 115.01L373.66 88.6501L343.04 85.4701Z" fill="#C7C7C7"/>
<path d="M225.94 160.55L190.41 147.08C190.388 147.074 190.368 147.061 190.354 147.043C190.34 147.025 190.331 147.003 190.33 146.98C190.32 146.962 190.315 146.941 190.315 146.92C190.315 146.899 190.32 146.879 190.33 146.86L242.15 107.86C242.173 107.846 242.199 107.838 242.225 107.838C242.252 107.838 242.278 107.846 242.3 107.86C242.322 107.875 242.338 107.897 242.347 107.922C242.356 107.947 242.357 107.974 242.35 108L226.04 160.47C226.036 160.485 226.028 160.5 226.018 160.512C226.007 160.524 225.995 160.533 225.98 160.54L225.94 160.55ZM190.67 146.92L225.86 160.27L242 108.27L190.67 146.92Z" fill="#C7C7C7"/>
<path d="M225.94 160.55C225.919 160.549 225.897 160.543 225.878 160.533C225.859 160.523 225.843 160.508 225.83 160.49C225.811 160.47 225.801 160.443 225.801 160.415C225.801 160.387 225.811 160.36 225.83 160.34L276.83 115C276.852 114.98 276.881 114.969 276.91 114.969C276.94 114.969 276.968 114.98 276.99 115C277.007 115.021 277.017 115.048 277.017 115.075C277.017 115.102 277.007 115.129 276.99 115.15L259.39 149.82C259.371 149.848 259.343 149.869 259.31 149.88L225.96 160.55H225.94ZM276.49 115.63L226.49 160.13L259.23 149.66L276.49 115.63Z" fill="#C7C7C7"/>
<path d="M225.94 160.55C225.917 160.558 225.892 160.558 225.87 160.55C225.849 160.534 225.833 160.512 225.825 160.487C225.816 160.462 225.814 160.436 225.82 160.41L242.11 107.94C242.119 107.912 242.138 107.888 242.164 107.873C242.19 107.858 242.221 107.854 242.25 107.86L276.93 115C276.952 115.005 276.972 115.016 276.988 115.032C277.004 115.048 277.015 115.068 277.02 115.09C277.031 115.108 277.037 115.129 277.037 115.15C277.037 115.171 277.031 115.192 277.02 115.21L226.02 160.54C225.995 160.553 225.967 160.557 225.94 160.55ZM242.32 108.11L226.19 160.04L276.63 115.17L242.32 108.11Z" fill="#C7C7C7"/>
<path d="M295.32 152.75L259.32 149.88C259.294 149.877 259.271 149.867 259.251 149.851C259.232 149.835 259.217 149.814 259.21 149.79C259.205 149.766 259.207 149.741 259.216 149.718C259.225 149.695 259.24 149.675 259.26 149.66L311.04 110.38C311.062 110.366 311.088 110.358 311.115 110.358C311.141 110.358 311.167 110.366 311.19 110.38C311.204 110.4 311.212 110.425 311.212 110.45C311.212 110.475 311.204 110.5 311.19 110.52L295.43 152.67C295.421 152.693 295.407 152.713 295.387 152.727C295.367 152.741 295.344 152.749 295.32 152.75ZM259.63 149.66L295.23 152.49L310.83 110.84L259.63 149.66Z" fill="#C7C7C7"/>
<path d="M259.29 149.88H259.21C259.196 149.858 259.188 149.832 259.188 149.805C259.188 149.778 259.196 149.752 259.21 149.73L276.82 115.07C276.841 115.036 276.873 115.012 276.91 115L311.04 110.36C311.067 110.353 311.095 110.357 311.119 110.37C311.143 110.383 311.161 110.404 311.17 110.43C311.186 110.452 311.194 110.478 311.194 110.505C311.194 110.532 311.186 110.558 311.17 110.58L259.37 149.86C259.347 149.877 259.319 149.884 259.29 149.88ZM276.98 115.21L259.65 149.33L310.65 110.67L276.98 115.21Z" fill="#C7C7C7"/>
<path d="M315.861 166.66H315.791L295.251 152.75C295.22 152.728 295.199 152.696 295.191 152.66C295.181 152.631 295.181 152.599 295.191 152.57L322.701 115.27C322.723 115.256 322.749 115.248 322.775 115.248C322.802 115.248 322.828 115.256 322.851 115.27C322.875 115.281 322.895 115.299 322.908 115.323C322.921 115.346 322.925 115.374 322.921 115.4L316.041 166.55C316.036 166.572 316.027 166.592 316.013 166.61C315.999 166.627 315.981 166.641 315.961 166.65L315.861 166.66ZM295.491 152.59L315.771 166.32L322.611 115.82L295.491 152.59Z" fill="#C7C7C7"/>
<path d="M295.32 152.75H295.26C295.233 152.737 295.212 152.714 295.201 152.687C295.19 152.659 295.19 152.628 295.2 152.6L310.98 110.47C310.983 110.454 310.99 110.439 311 110.427C311.011 110.414 311.025 110.405 311.04 110.4C311.055 110.39 311.072 110.385 311.09 110.385C311.108 110.385 311.125 110.39 311.14 110.4L322.85 115.26C322.881 115.279 322.905 115.307 322.92 115.34C322.927 115.357 322.931 115.376 322.931 115.395C322.931 115.414 322.927 115.433 322.92 115.45L295.44 152.73C295.404 152.752 295.361 152.759 295.32 152.75ZM311.17 110.65L295.75 151.83L322.61 115.4L311.17 110.65Z" fill="#C7C7C7"/>
<path d="M315.86 166.66C315.841 166.66 315.822 166.656 315.804 166.647C315.787 166.639 315.772 166.626 315.76 166.61C315.744 166.587 315.735 166.559 315.735 166.53C315.735 166.501 315.744 166.473 315.76 166.45L361.86 114.56C361.873 114.545 361.888 114.533 361.905 114.525C361.922 114.517 361.941 114.513 361.96 114.513C361.98 114.513 361.998 114.517 362.016 114.525C362.033 114.533 362.048 114.545 362.06 114.56L382.32 144.97C382.328 144.987 382.332 145.006 382.332 145.025C382.332 145.044 382.328 145.063 382.32 145.08C382.316 145.099 382.306 145.117 382.292 145.131C382.277 145.145 382.26 145.155 382.24 145.16L315.88 166.65L315.86 166.66ZM361.95 114.85L316.26 166.28L382.04 144.99L361.95 114.85Z" fill="#C7C7C7"/>
<path d="M315.86 166.66H315.81C315.785 166.649 315.765 166.631 315.753 166.607C315.74 166.584 315.735 166.556 315.74 166.53L322.68 115.34C322.684 115.311 322.699 115.284 322.721 115.264C322.742 115.244 322.77 115.232 322.8 115.23L361.97 114.53C361.993 114.53 362.016 114.536 362.035 114.549C362.055 114.561 362.07 114.579 362.08 114.6C362.092 114.621 362.099 114.645 362.099 114.67C362.099 114.695 362.092 114.719 362.08 114.74L315.98 166.63C315.964 166.645 315.945 166.655 315.924 166.66C315.903 166.665 315.881 166.665 315.86 166.66ZM322.91 115.47L316.04 166.15L361.68 114.77L322.91 115.47Z" fill="#C7C7C7"/>
<path d="M152.55 212.21C152.536 212.216 152.52 212.22 152.505 212.22C152.489 212.22 152.474 212.216 152.46 212.21C152.443 212.189 152.434 212.162 152.434 212.135C152.434 212.108 152.443 212.081 152.46 212.06L190.32 146.94C190.333 146.913 190.356 146.892 190.383 146.881C190.411 146.87 190.442 146.869 190.47 146.88C190.496 146.889 190.519 146.907 190.533 146.931C190.548 146.954 190.554 146.982 190.55 147.01L186.46 192.93C186.458 192.95 186.452 192.97 186.442 192.987C186.431 193.004 186.417 193.019 186.4 193.03L152.63 212.23L152.55 212.21ZM190.24 147.47L152.89 211.71L186.2 192.76L190.24 147.47Z" fill="#C7C7C7"/>
<path d="M218.04 204.91L186.35 193.01C186.331 193 186.314 192.986 186.3 192.968C186.286 192.951 186.276 192.931 186.27 192.91C186.266 192.887 186.269 192.864 186.278 192.843C186.287 192.821 186.301 192.803 186.32 192.79L225.94 160.34C225.962 160.328 225.986 160.321 226.01 160.321C226.035 160.321 226.059 160.328 226.08 160.34C226.103 160.352 226.121 160.372 226.132 160.395C226.143 160.419 226.146 160.445 226.14 160.47L218.2 204.83C218.198 204.847 218.192 204.864 218.181 204.878C218.171 204.892 218.157 204.903 218.14 204.91H218.04ZM186.6 192.84L217.94 204.62L225.8 160.74L186.6 192.84Z" fill="#C7C7C7"/>
<path d="M186.31 193C186.287 192.99 186.268 192.973 186.256 192.951C186.243 192.93 186.238 192.905 186.24 192.88L190.34 146.96C190.339 146.941 190.344 146.921 190.352 146.904C190.361 146.886 190.374 146.871 190.39 146.86C190.407 146.853 190.426 146.849 190.445 146.849C190.464 146.849 190.482 146.853 190.5 146.86L226.04 160.31C226.059 160.319 226.076 160.333 226.088 160.35C226.101 160.368 226.108 160.389 226.11 160.41C226.121 160.428 226.128 160.449 226.128 160.47C226.128 160.491 226.121 160.512 226.11 160.53L186.48 192.98L186.31 193ZM190.52 147.13L186.47 192.59L225.7 160.47L190.52 147.13Z" fill="#C7C7C7"/>
<path d="M218.04 204.91C218.017 204.908 217.995 204.901 217.977 204.888C217.958 204.876 217.943 204.859 217.933 204.838C217.923 204.818 217.918 204.796 217.919 204.773C217.92 204.751 217.927 204.729 217.94 204.71L259.23 149.71C259.252 149.69 259.28 149.679 259.31 149.679C259.339 149.679 259.368 149.69 259.39 149.71C259.417 149.723 259.438 149.746 259.449 149.773C259.46 149.801 259.46 149.832 259.45 149.86L248.76 180.47C248.764 180.486 248.764 180.504 248.76 180.52L218.04 204.88C218.041 204.89 218.041 204.9 218.04 204.91ZM258.91 150.47L218.69 204.07L248.49 180.28L258.91 150.47Z" fill="#C7C7C7"/>
<path d="M218.04 204.91C218.015 204.897 217.994 204.877 217.981 204.852C217.969 204.826 217.965 204.798 217.97 204.77L225.91 160.42C225.912 160.397 225.921 160.376 225.935 160.358C225.95 160.341 225.969 160.327 225.99 160.32L259.35 149.65C259.37 149.635 259.395 149.627 259.42 149.627C259.445 149.627 259.47 149.635 259.49 149.65C259.506 149.67 259.515 149.694 259.515 149.72C259.515 149.746 259.506 149.77 259.49 149.79L218.2 204.79C218.201 204.81 218.197 204.829 218.189 204.847C218.181 204.865 218.168 204.881 218.152 204.893C218.136 204.905 218.118 204.913 218.098 204.916C218.079 204.919 218.059 204.917 218.04 204.91ZM226.04 160.53L218.21 204.29L258.95 150L226.04 160.53Z" fill="#C7C7C7"/>
<path d="M305.38 181.47L248.6 180.47C248.573 180.471 248.546 180.462 248.525 180.446C248.503 180.43 248.487 180.406 248.48 180.38C248.473 180.353 248.474 180.325 248.485 180.299C248.496 180.274 248.516 180.253 248.54 180.24L295.25 152.5C295.267 152.49 295.286 152.485 295.305 152.485C295.325 152.485 295.344 152.49 295.36 152.5C295.376 152.506 295.391 152.515 295.403 152.527C295.415 152.539 295.424 152.554 295.43 152.57L305.5 181.28C305.515 181.319 305.515 181.361 305.5 181.4C305.49 181.423 305.473 181.442 305.452 181.454C305.43 181.467 305.405 181.472 305.38 181.47ZM249.04 180.25L305.2 181.25L295.2 152.85L249.04 180.25Z" fill="#C7C7C7"/>
<path d="M248.6 180.47C248.574 180.48 248.545 180.48 248.52 180.47C248.505 180.45 248.497 180.425 248.497 180.4C248.497 180.375 248.505 180.35 248.52 180.33L259.22 149.73C259.225 149.703 259.24 149.678 259.262 149.661C259.284 149.645 259.312 149.637 259.34 149.64L295.34 152.51C295.367 152.512 295.392 152.523 295.412 152.541C295.432 152.559 295.445 152.583 295.45 152.61C295.455 152.635 295.452 152.662 295.441 152.685C295.43 152.708 295.412 152.728 295.39 152.74L248.66 180.47H248.6ZM259.38 149.87L248.83 180.06L294.91 152.7L259.38 149.87Z" fill="#C7C7C7"/>
<path d="M330.16 183.9L305.37 181.47C305.32 181.47 305.28 181.47 305.27 181.4C305.258 181.381 305.251 181.358 305.251 181.335C305.251 181.312 305.258 181.289 305.27 181.27L315.76 166.47C315.769 166.452 315.784 166.436 315.801 166.426C315.819 166.415 315.839 166.41 315.86 166.41C315.879 166.411 315.898 166.416 315.915 166.425C315.933 166.433 315.948 166.445 315.96 166.46L330.26 183.69C330.275 183.71 330.283 183.735 330.283 183.76C330.283 183.785 330.275 183.81 330.26 183.83C330.251 183.849 330.237 183.866 330.22 183.879C330.202 183.891 330.182 183.898 330.16 183.9ZM305.61 181.23L329.87 183.62L315.87 166.74L305.61 181.23Z" fill="#C7C7C7"/>
<path d="M305.38 181.47C305.358 181.464 305.339 181.454 305.321 181.44C305.304 181.427 305.29 181.409 305.28 181.39L295.22 152.67C295.206 152.649 295.199 152.625 295.199 152.6C295.199 152.575 295.206 152.551 295.22 152.53C295.242 152.516 295.268 152.508 295.295 152.508C295.321 152.508 295.347 152.516 295.37 152.53L315.93 166.47C315.96 166.491 315.982 166.524 315.99 166.56C315.994 166.59 315.994 166.62 315.99 166.65L305.5 181.45C305.483 181.464 305.463 181.473 305.442 181.476C305.421 181.48 305.4 181.478 305.38 181.47ZM295.56 152.95L305.42 181.07L315.69 166.58L295.56 152.95Z" fill="#C7C7C7"/>
<path d="M330.16 183.9C330.134 183.898 330.11 183.888 330.09 183.871C330.07 183.855 330.055 183.833 330.048 183.808C330.04 183.784 330.04 183.757 330.048 183.733C330.055 183.708 330.07 183.686 330.09 183.67L382.15 144.95C382.174 144.937 382.201 144.931 382.229 144.935C382.256 144.938 382.282 144.95 382.302 144.969C382.322 144.988 382.335 145.013 382.34 145.04C382.345 145.067 382.342 145.095 382.33 145.12L360.61 178.23C360.603 178.246 360.592 178.26 360.578 178.271C360.564 178.281 360.547 178.288 360.53 178.29L330.19 183.89L330.16 183.9ZM381.73 145.57L330.67 183.57L360.43 178.07L381.73 145.57Z" fill="#C7C7C7"/>
<path d="M330.161 183.9C330.143 183.899 330.125 183.894 330.11 183.885C330.094 183.876 330.081 183.864 330.071 183.85L315.771 166.62C315.761 166.601 315.756 166.581 315.756 166.56C315.756 166.539 315.761 166.518 315.771 166.5C315.786 166.464 315.814 166.435 315.851 166.42L382.211 144.93C382.24 144.922 382.271 144.925 382.298 144.938C382.325 144.951 382.348 144.973 382.361 145C382.378 145.021 382.387 145.048 382.387 145.075C382.387 145.102 382.378 145.129 382.361 145.15L330.241 183.87C330.23 183.88 330.217 183.888 330.204 183.893C330.19 183.898 330.175 183.901 330.161 183.9ZM316.041 166.6L330.141 183.6L381.501 145.41L316.041 166.6Z" fill="#C7C7C7"/>
<path d="M115.47 236.8C115.445 236.8 115.419 236.792 115.398 236.778C115.377 236.764 115.36 236.744 115.35 236.72C115.339 236.693 115.338 236.663 115.347 236.636C115.356 236.608 115.375 236.585 115.4 236.57L152.48 211.98C152.502 211.96 152.531 211.949 152.56 211.949C152.59 211.949 152.618 211.96 152.64 211.98L169.71 228.87C169.722 228.888 169.728 228.909 169.728 228.93C169.728 228.951 169.722 228.972 169.71 228.99C169.704 229.013 169.692 229.034 169.674 229.05C169.656 229.066 169.634 229.077 169.61 229.08L115.46 236.78L115.47 236.8ZM152.53 212.25L116.04 236.47L169.4 228.89L152.53 212.25Z" fill="#C7C7C7"/>
<path d="M169.62 229.1C169.6 229.098 169.58 229.092 169.562 229.081C169.545 229.071 169.53 229.056 169.519 229.038C169.508 229.021 169.502 229.001 169.5 228.98C169.499 228.96 169.502 228.939 169.51 228.92L186.2 192.83C186.21 192.806 186.227 192.786 186.248 192.772C186.269 192.758 186.294 192.75 186.32 192.75C186.347 192.752 186.373 192.763 186.393 192.781C186.412 192.799 186.426 192.823 186.43 192.85L194.5 222.09C194.51 222.122 194.507 222.156 194.492 222.186C194.477 222.216 194.451 222.239 194.42 222.25L169.66 229.09L169.62 229.1ZM186.28 193.24L169.85 228.78L194.23 222.04L186.28 193.24Z" fill="#C7C7C7"/>
<path d="M169.62 229.1C169.591 229.112 169.559 229.112 169.53 229.1L152.46 212.17C152.453 212.154 152.449 212.137 152.449 212.12C152.449 212.103 152.453 212.086 152.46 212.07C152.464 212.051 152.473 212.032 152.485 212.017C152.497 212.001 152.512 211.989 152.53 211.98L186.29 192.77C186.313 192.759 186.339 192.754 186.365 192.758C186.391 192.761 186.415 192.772 186.434 192.789C186.453 192.807 186.467 192.829 186.473 192.854C186.48 192.879 186.479 192.906 186.47 192.93L169.78 229.03C169.756 229.064 169.721 229.089 169.68 229.1H169.62ZM152.75 212.1L169.58 228.75L186.04 193.18L152.75 212.1Z" fill="#C7C7C7"/>
<path d="M236.46 230.74L194.39 222.25C194.365 222.245 194.343 222.233 194.325 222.215C194.307 222.197 194.295 222.175 194.29 222.15C194.278 222.13 194.272 222.108 194.272 222.085C194.272 222.062 194.278 222.04 194.29 222.02L217.91 204.68C217.939 204.669 217.971 204.669 218 204.68L218.08 204.73L236.54 230.56C236.554 230.582 236.562 230.608 236.562 230.635C236.562 230.662 236.554 230.688 236.54 230.71C236.518 230.73 236.489 230.74 236.46 230.74ZM194.69 222.06L236.17 230.47L217.97 205L194.69 222.06Z" fill="#C7C7C7"/>
<path d="M194.38 222.25C194.361 222.245 194.343 222.235 194.329 222.221C194.315 222.207 194.305 222.189 194.3 222.17L186.23 192.92C186.221 192.901 186.217 192.881 186.217 192.86C186.217 192.839 186.221 192.819 186.23 192.8C186.25 192.789 186.272 192.783 186.295 192.783C186.318 192.783 186.341 192.789 186.36 192.8L218.04 204.67C218.063 204.675 218.084 204.687 218.098 204.706C218.113 204.724 218.121 204.747 218.12 204.77C218.124 204.793 218.122 204.816 218.113 204.837C218.104 204.859 218.089 204.877 218.07 204.89L194.46 222.23L194.38 222.25ZM186.5 193.08L194.5 221.92L217.78 204.82L186.5 193.08Z" fill="#C7C7C7"/>
<path d="M236.46 230.74C236.431 230.749 236.399 230.749 236.37 230.74C236.36 230.721 236.355 230.701 236.355 230.68C236.355 230.659 236.36 230.639 236.37 230.62L248.51 180.37C248.513 180.354 248.518 180.339 248.527 180.325C248.535 180.312 248.546 180.3 248.559 180.29C248.572 180.281 248.587 180.274 248.603 180.271C248.618 180.267 248.634 180.267 248.65 180.27C248.666 180.272 248.681 180.278 248.695 180.286C248.709 180.295 248.72 180.306 248.73 180.319C248.739 180.332 248.746 180.347 248.749 180.362C248.753 180.378 248.753 180.394 248.75 180.41L243.66 228.21C243.656 228.233 243.645 228.255 243.629 228.273C243.613 228.29 243.593 228.303 243.57 228.31L236.57 230.77L236.46 230.74ZM248.27 182.25L236.63 230.47L243.39 228.12L248.27 182.25Z" fill="#C7C7C7"/>
<path d="M236.461 230.74C236.441 230.74 236.422 230.736 236.404 230.727C236.387 230.719 236.372 230.706 236.361 230.69L217.901 204.86C217.889 204.849 217.88 204.836 217.874 204.821C217.868 204.806 217.865 204.791 217.865 204.775C217.865 204.759 217.868 204.744 217.874 204.729C217.88 204.714 217.889 204.701 217.901 204.69L248.501 180.27C248.522 180.253 248.548 180.244 248.576 180.244C248.603 180.244 248.629 180.253 248.651 180.27C248.671 180.286 248.687 180.308 248.696 180.333C248.704 180.358 248.706 180.384 248.701 180.41L236.561 230.66C236.554 230.683 236.541 230.703 236.523 230.719C236.505 230.735 236.484 230.746 236.461 230.75V230.74ZM218.171 204.81L236.401 230.32L248.401 180.69L218.171 204.81Z" fill="#C7C7C7"/>
<path d="M298.04 233.25L243.51 228.25C243.485 228.246 243.462 228.236 243.443 228.22C243.423 228.204 243.409 228.183 243.4 228.16C243.393 228.134 243.394 228.107 243.403 228.082C243.412 228.057 243.428 228.035 243.45 228.02L305.32 181.19C305.34 181.175 305.365 181.167 305.39 181.167C305.415 181.167 305.44 181.175 305.46 181.19C305.483 181.199 305.502 181.216 305.513 181.238C305.524 181.261 305.527 181.286 305.52 181.31L298.18 233.11C298.184 233.129 298.183 233.149 298.177 233.168C298.171 233.186 298.161 233.203 298.147 233.217C298.133 233.231 298.116 233.241 298.098 233.247C298.079 233.252 298.059 233.254 298.04 233.25ZM243.84 228.07L297.94 232.99L305.22 181.62L243.84 228.07Z" fill="#C7C7C7"/>
<path d="M243.5 228.29H243.44C243.418 228.279 243.4 228.262 243.39 228.24C243.379 228.219 243.375 228.194 243.38 228.17L248.47 180.37C248.475 180.339 248.491 180.311 248.514 180.291C248.538 180.271 248.569 180.26 248.6 180.26L305.38 181.26C305.406 181.262 305.432 181.272 305.453 181.288C305.474 181.304 305.491 181.325 305.5 181.35C305.514 181.369 305.521 181.392 305.521 181.415C305.521 181.438 305.514 181.461 305.5 181.48L243.63 228.31C243.608 228.319 243.585 228.321 243.562 228.318C243.539 228.314 243.518 228.305 243.5 228.29ZM248.71 180.49L243.66 227.89L305.04 181.47L248.71 180.49Z" fill="#C7C7C7"/>
<path d="M298.04 233.25C298.02 233.25 297.999 233.245 297.982 233.234C297.964 233.224 297.95 233.208 297.94 233.19C297.926 233.171 297.919 233.148 297.919 233.125C297.919 233.102 297.926 233.079 297.94 233.06L330.04 183.7C330.06 183.684 330.085 183.675 330.11 183.675C330.136 183.675 330.16 183.684 330.18 183.7C330.207 183.71 330.229 183.728 330.245 183.751C330.261 183.774 330.27 183.802 330.27 183.83L326.1 231.01C326.096 231.039 326.081 231.066 326.06 231.086C326.038 231.106 326.01 231.118 325.98 231.12L297.98 233.3L298.04 233.25ZM330.04 184.25L298.32 232.97L325.92 230.82L330.04 184.25Z" fill="#C7C7C7"/>
<path d="M298.041 233.25C298.013 233.243 297.989 233.225 297.974 233.201C297.959 233.177 297.954 233.148 297.961 233.12L305.311 181.33C305.315 181.299 305.331 181.271 305.355 181.251C305.379 181.231 305.409 181.22 305.441 181.22L330.231 183.66C330.252 183.662 330.273 183.669 330.29 183.681C330.308 183.694 330.322 183.71 330.331 183.73C330.34 183.749 330.345 183.769 330.345 183.79C330.345 183.811 330.34 183.831 330.331 183.85L298.141 233.2C298.114 233.228 298.079 233.246 298.041 233.25ZM305.491 181.47L298.241 232.59L329.951 183.88L305.491 181.47Z" fill="#C7C7C7"/>
<path d="M363.25 239.29L326 231.07C325.98 231.066 325.96 231.056 325.944 231.042C325.929 231.028 325.917 231.01 325.91 230.99C325.901 230.973 325.896 230.954 325.896 230.935C325.896 230.916 325.901 230.897 325.91 230.88L360.42 178.1C360.44 178.084 360.465 178.075 360.49 178.075C360.516 178.075 360.541 178.084 360.56 178.1C360.585 178.106 360.607 178.12 360.623 178.14C360.639 178.16 360.649 178.184 360.65 178.21L363.39 239.21C363.399 239.227 363.404 239.246 363.404 239.265C363.404 239.284 363.399 239.303 363.39 239.32L363.25 239.29ZM326.2 230.86L363.12 239.01L360.4 178.56L326.2 230.86Z" fill="#C7C7C7"/>
<path d="M326.04 231.07C326.014 231.061 325.991 231.043 325.977 231.019C325.962 230.996 325.956 230.968 325.96 230.94L330.04 183.76C330.042 183.733 330.053 183.708 330.071 183.688C330.089 183.668 330.114 183.654 330.14 183.65L360.49 178.04C360.514 178.035 360.539 178.039 360.56 178.05C360.582 178.06 360.6 178.078 360.61 178.1C360.624 178.119 360.631 178.142 360.631 178.165C360.631 178.188 360.624 178.211 360.61 178.23L326.1 231.01C326.087 231.036 326.066 231.057 326.04 231.07ZM330.33 183.88L326.16 230.47L360.24 178.35L330.33 183.88Z" fill="#C7C7C7"/>
<path d="M92.6004 269.71C92.5787 269.709 92.5574 269.704 92.5383 269.693C92.5193 269.683 92.5028 269.668 92.4904 269.65C92.4781 269.629 92.4717 269.605 92.4717 269.58C92.4717 269.556 92.4781 269.531 92.4904 269.51L115.36 236.6C115.36 236.6 115.43 236.6 115.47 236.6C115.491 236.6 115.511 236.605 115.529 236.616C115.547 236.626 115.561 236.642 115.57 236.66L132.21 263.06C132.22 263.079 132.225 263.099 132.225 263.12C132.225 263.141 132.22 263.162 132.21 263.18C132.204 263.2 132.192 263.217 132.176 263.229C132.16 263.242 132.141 263.249 132.12 263.25L92.6104 269.76L92.6004 269.71ZM115.47 236.9L92.8704 269.41L131.87 262.99L115.47 236.9Z" fill="#C7C7C7"/>
<path d="M151.22 264.15L132.1 263.21C132.075 263.206 132.052 263.196 132.033 263.18C132.013 263.164 131.999 263.143 131.99 263.12C131.979 263.1 131.973 263.078 131.973 263.055C131.973 263.032 131.979 263.01 131.99 262.99L169.5 228.88C169.522 228.86 169.551 228.849 169.58 228.849C169.61 228.849 169.638 228.86 169.66 228.88C169.679 228.9 169.69 228.927 169.69 228.955C169.69 228.983 169.679 229.01 169.66 229.03L151.26 264.09C151.254 264.114 151.24 264.135 151.22 264.15ZM132.42 262.97L151.15 263.9L169.15 229.54L132.42 262.97Z" fill="#C7C7C7"/>
<path d="M132.11 263.21C132.081 263.222 132.049 263.222 132.02 263.21L115.39 236.8C115.377 236.783 115.37 236.762 115.37 236.74C115.37 236.718 115.377 236.697 115.39 236.68C115.399 236.662 115.411 236.647 115.427 236.635C115.443 236.622 115.461 236.614 115.48 236.61L169.64 228.91C169.666 228.907 169.693 228.912 169.716 228.925C169.739 228.937 169.758 228.956 169.77 228.98C169.784 229.002 169.792 229.028 169.792 229.055C169.792 229.082 169.784 229.108 169.77 229.13L132.25 263.23C132.228 263.242 132.202 263.246 132.177 263.243C132.152 263.239 132.128 263.228 132.11 263.21ZM115.68 236.77L132.14 262.89L169.24 229.15L115.68 236.77Z" fill="#C7C7C7"/>
<path d="M151.22 264.15C151.198 264.149 151.177 264.143 151.158 264.133C151.138 264.123 151.122 264.108 151.11 264.09C151.095 264.068 151.088 264.042 151.088 264.015C151.088 263.988 151.095 263.962 151.11 263.94L194.27 222.04C194.287 222.031 194.306 222.027 194.325 222.027C194.344 222.027 194.363 222.031 194.38 222.04C194.4 222.044 194.42 222.054 194.435 222.068C194.451 222.082 194.463 222.1 194.47 222.12L204.36 251.66C204.367 251.676 204.371 251.693 204.371 251.71C204.371 251.727 204.367 251.744 204.36 251.76C204.353 251.776 204.342 251.79 204.328 251.801C204.314 251.811 204.297 251.818 204.28 251.82L151.23 264.19L151.22 264.15ZM194.33 222.35L151.63 263.8L204.11 251.57L194.33 222.35Z" fill="#C7C7C7"/>
<path d="M151.22 264.15C151.197 264.158 151.172 264.158 151.15 264.15C151.132 264.127 151.122 264.099 151.122 264.07C151.122 264.041 151.132 264.013 151.15 263.99L169.55 228.94C169.569 228.909 169.597 228.885 169.63 228.87L194.39 222.02C194.416 222.014 194.444 222.017 194.469 222.027C194.494 222.038 194.516 222.057 194.53 222.08C194.547 222.101 194.556 222.128 194.556 222.155C194.556 222.182 194.547 222.209 194.53 222.23L151.37 264.14C151.349 264.159 151.324 264.17 151.296 264.171C151.269 264.173 151.242 264.166 151.22 264.15ZM169.71 229.08L151.71 263.39L193.96 222.39L169.71 229.08Z" fill="#C7C7C7"/>
<path d="M229.28 268.55C229.257 268.558 229.233 268.558 229.21 268.55L204.21 251.79C204.193 251.779 204.18 251.764 204.171 251.747C204.161 251.729 204.156 251.71 204.156 251.69C204.156 251.67 204.161 251.651 204.171 251.633C204.18 251.616 204.193 251.601 204.21 251.59L236.39 230.47C236.412 230.46 236.436 230.455 236.46 230.455C236.484 230.455 236.508 230.46 236.53 230.47C236.55 230.485 236.565 230.505 236.574 230.528C236.583 230.551 236.585 230.576 236.58 230.6L229.4 268.47C229.398 268.491 229.391 268.512 229.379 268.529C229.366 268.547 229.349 268.561 229.33 268.57L229.28 268.55ZM204.5 251.66L229.19 268.21L236.28 230.88L204.5 251.66Z" fill="#C7C7C7"/>
<path d="M204.27 251.79C204.234 251.775 204.205 251.746 204.19 251.71L194.31 222.17C194.298 222.152 194.292 222.131 194.292 222.11C194.292 222.089 194.298 222.068 194.31 222.05C194.329 222.041 194.349 222.036 194.37 222.036C194.391 222.036 194.411 222.041 194.43 222.05L236.48 230.47C236.504 230.475 236.527 230.487 236.545 230.505C236.562 230.523 236.575 230.545 236.58 230.57C236.585 230.594 236.583 230.619 236.574 230.642C236.565 230.665 236.55 230.685 236.53 230.7L204.34 251.7C204.34 251.721 204.334 251.741 204.321 251.757C204.308 251.774 204.29 251.785 204.27 251.79ZM194.57 222.29L204.34 251.47L236.13 230.68L194.57 222.29Z" fill="#C7C7C7"/>
<path d="M272.94 280.65L229.28 268.55C229.264 268.546 229.248 268.539 229.234 268.529C229.22 268.518 229.209 268.505 229.2 268.49C229.193 268.474 229.189 268.457 229.189 268.44C229.189 268.423 229.193 268.406 229.2 268.39L243.42 228.13C243.43 228.108 243.445 228.088 243.464 228.074C243.483 228.06 243.506 228.052 243.53 228.05C243.554 228.045 243.579 228.049 243.601 228.059C243.622 228.07 243.64 228.088 243.65 228.11L273.04 280.47C273.053 280.491 273.059 280.515 273.059 280.54C273.059 280.564 273.053 280.589 273.04 280.61C273.027 280.623 273.012 280.633 272.994 280.64C272.977 280.647 272.959 280.65 272.94 280.65ZM229.44 268.34L272.68 280.34L243.53 228.47L229.44 268.34Z" fill="#C7C7C7"/>
<path d="M229.28 268.55C229.251 268.541 229.227 268.522 229.21 268.496C229.194 268.471 229.187 268.44 229.19 268.41L236.36 230.6C236.366 230.578 236.377 230.558 236.393 230.542C236.408 230.526 236.429 230.515 236.45 230.51L243.45 228.05C243.474 228.043 243.498 228.042 243.522 228.049C243.545 228.055 243.567 228.067 243.583 228.085C243.6 228.103 243.611 228.125 243.616 228.149C243.621 228.173 243.619 228.197 243.61 228.22L229.4 268.47C229.39 268.493 229.373 268.513 229.352 268.527C229.33 268.541 229.306 268.549 229.28 268.55ZM236.57 230.71L229.71 266.83L243.3 228.37L236.57 230.71Z" fill="#C7C7C7"/>
<path d="M272.941 280.65C272.912 280.661 272.88 280.661 272.851 280.65C272.834 280.629 272.824 280.602 272.824 280.575C272.824 280.548 272.834 280.521 272.851 280.5L297.941 233.11C297.955 233.084 297.978 233.065 298.005 233.054C298.032 233.043 298.062 233.041 298.091 233.05C298.12 233.059 298.144 233.078 298.161 233.104C298.177 233.129 298.184 233.16 298.181 233.19L292.221 272.47C292.216 272.489 292.208 272.507 292.196 272.523C292.184 272.539 292.168 272.551 292.151 272.56L273.041 280.64L272.941 280.65ZM297.801 233.84L273.211 280.27L291.981 272.37L297.801 233.84Z" fill="#C7C7C7"/>
<path d="M272.94 280.65C272.917 280.65 272.894 280.644 272.875 280.631C272.855 280.619 272.84 280.601 272.83 280.58L243.39 228.22C243.377 228.203 243.37 228.182 243.37 228.16C243.37 228.138 243.377 228.117 243.39 228.1C243.402 228.082 243.418 228.066 243.437 228.056C243.457 228.045 243.478 228.04 243.5 228.04L298.03 233.04C298.051 233.042 298.071 233.05 298.089 233.062C298.106 233.074 298.12 233.09 298.13 233.109C298.14 233.127 298.145 233.148 298.145 233.169C298.145 233.191 298.14 233.211 298.13 233.23L273.04 280.58C273.031 280.6 273.017 280.616 273 280.629C272.982 280.641 272.962 280.648 272.94 280.65ZM243.73 228.31L272.94 280.31L297.84 233.31L243.73 228.31Z" fill="#C7C7C7"/>
<path d="M292.1 272.58C292.078 272.582 292.056 272.578 292.036 272.567C292.016 272.557 292 272.54 291.99 272.52C291.976 272.5 291.968 272.475 291.968 272.45C291.968 272.425 291.976 272.4 291.99 272.38L325.89 230.87C325.898 230.853 325.911 230.84 325.927 230.831C325.944 230.822 325.962 230.818 325.98 230.82C326 230.82 326.019 230.824 326.036 230.833C326.054 230.841 326.069 230.854 326.08 230.87L349.96 261.8C349.97 261.819 349.975 261.839 349.975 261.86C349.975 261.881 349.97 261.902 349.96 261.92C349.954 261.94 349.942 261.958 349.926 261.972C349.91 261.986 349.891 261.996 349.87 262L292.1 272.58ZM326.04 231.15L292.41 272.27L349.64 261.79L326.04 231.15Z" fill="#C7C7C7"/>
<path d="M292.1 272.58H292.04C292.014 272.571 291.991 272.553 291.977 272.529C291.962 272.506 291.956 272.478 291.96 272.45L297.9 233.12C297.905 233.093 297.919 233.068 297.938 233.048C297.958 233.029 297.983 233.015 298.01 233.01L326.01 230.83C326.035 230.824 326.062 230.828 326.084 230.841C326.107 230.854 326.123 230.875 326.13 230.9C326.146 230.918 326.154 230.941 326.154 230.965C326.154 230.989 326.146 231.012 326.13 231.03L292.23 272.55C292.215 272.569 292.194 272.582 292.17 272.587C292.147 272.592 292.122 272.59 292.1 272.58ZM298.1 233.24L292.25 272.02L325.67 231.09L298.1 233.24Z" fill="#C7C7C7"/>
<path d="M355.91 266.37H355.84L349.79 262C349.772 261.976 349.762 261.946 349.762 261.915C349.762 261.884 349.772 261.854 349.79 261.83L363.17 239.13C363.185 239.102 363.21 239.081 363.239 239.07C363.269 239.059 363.301 239.059 363.33 239.07C363.359 239.081 363.382 239.103 363.395 239.131C363.408 239.159 363.41 239.191 363.4 239.22L356.04 266.28C356.036 266.299 356.026 266.317 356.012 266.331C355.997 266.345 355.98 266.355 355.96 266.36L355.91 266.37ZM350.04 261.84L355.85 266.04L362.9 240.04L350.04 261.84Z" fill="#C7C7C7"/>
<path d="M349.87 262C349.85 262.002 349.83 261.999 349.812 261.99C349.794 261.981 349.78 261.967 349.77 261.95L325.89 231.02C325.876 230.999 325.868 230.974 325.868 230.949C325.868 230.923 325.875 230.899 325.889 230.877C325.903 230.856 325.923 230.839 325.946 230.829C325.969 230.819 325.995 230.816 326.02 230.82L363.28 239.05C363.298 239.053 363.316 239.061 363.33 239.073C363.344 239.086 363.354 239.102 363.36 239.12C363.369 239.137 363.375 239.156 363.375 239.175C363.375 239.194 363.369 239.213 363.36 239.23L349.98 261.94C349.97 261.958 349.955 261.972 349.938 261.983C349.92 261.993 349.9 261.999 349.88 262H349.87ZM326.3 231.14L349.85 261.66L363.04 239.25L326.3 231.14Z" fill="#C7C7C7"/>
<path d="M56.2399 300.15C56.2139 300.151 56.1882 300.144 56.1666 300.13C56.1449 300.116 56.1285 300.095 56.1199 300.07C56.1094 300.042 56.1098 300.011 56.1209 299.983C56.132 299.956 56.153 299.933 56.1799 299.92L132.04 262.97C132.06 262.951 132.087 262.94 132.115 262.94C132.143 262.94 132.17 262.951 132.19 262.97C132.21 262.992 132.22 263.02 132.22 263.05C132.22 263.079 132.21 263.108 132.19 263.13L111.04 289.32C111.04 289.32 111.04 289.32 110.97 289.32L56.2799 300.1L56.2399 300.15ZM131.66 263.47L57.1599 299.75L110.86 289.16L131.66 263.47Z" fill="#C7C7C7"/>
<path d="M56.2403 300.15C56.1985 300.148 56.159 300.13 56.1303 300.1C56.1117 300.076 56.1016 300.046 56.1016 300.015C56.1016 299.984 56.1117 299.954 56.1303 299.93L92.5203 269.47H92.5803L132.08 262.97C132.1 262.959 132.123 262.953 132.145 262.953C132.168 262.953 132.191 262.959 132.21 262.97C132.23 262.992 132.241 263.021 132.241 263.05C132.241 263.08 132.23 263.108 132.21 263.13L56.3403 300.07L56.2403 300.15ZM92.6503 269.7L57.1003 299.47L131.28 263.34L92.6503 269.7Z" fill="#C7C7C7"/>
<path d="M161.61 290.91L110.92 289.37C110.895 289.369 110.87 289.359 110.851 289.343C110.831 289.327 110.817 289.305 110.81 289.28C110.8 289.255 110.799 289.226 110.808 289.2C110.817 289.174 110.836 289.153 110.86 289.14L151.16 263.92C151.176 263.913 151.193 263.909 151.21 263.909C151.228 263.909 151.245 263.913 151.26 263.92C151.279 263.924 151.295 263.933 151.309 263.945C151.323 263.957 151.334 263.973 151.34 263.99L161.73 290.75C161.74 290.769 161.745 290.789 161.745 290.81C161.745 290.831 161.74 290.852 161.73 290.87C161.718 290.89 161.699 290.904 161.678 290.911C161.656 290.919 161.632 290.918 161.61 290.91ZM111.34 289.13L161.43 290.66L151.16 264.22L111.34 289.13Z" fill="#C7C7C7"/>
<path d="M110.93 289.37C110.915 289.377 110.898 289.38 110.88 289.38C110.863 289.38 110.846 289.377 110.83 289.37C110.811 289.348 110.8 289.32 110.8 289.29C110.8 289.261 110.811 289.232 110.83 289.21L132.04 263C132.057 262.99 132.076 262.985 132.095 262.985C132.115 262.985 132.134 262.99 132.15 263L151.26 263.94C151.287 263.944 151.311 263.955 151.331 263.973C151.351 263.991 151.364 264.014 151.37 264.04C151.381 264.065 151.382 264.094 151.373 264.12C151.363 264.146 151.345 264.167 151.32 264.18L111.04 289.35L110.93 289.37ZM132.17 263.21L111.5 288.74L150.82 264.13L132.17 263.21Z" fill="#C7C7C7"/>
<path d="M187.56 309.87C187.549 309.875 187.537 309.877 187.525 309.877C187.513 309.877 187.501 309.875 187.49 309.87L161.54 290.89C161.525 290.88 161.513 290.866 161.505 290.851C161.496 290.835 161.491 290.818 161.49 290.8C161.481 290.785 161.477 290.768 161.477 290.75C161.477 290.732 161.481 290.715 161.49 290.7L204.15 251.57C204.171 251.553 204.198 251.544 204.225 251.544C204.252 251.544 204.279 251.553 204.3 251.57C204.324 251.583 204.343 251.604 204.352 251.63C204.361 251.656 204.361 251.685 204.35 251.71L187.68 309.77C187.676 309.791 187.666 309.81 187.652 309.826C187.638 309.842 187.62 309.853 187.6 309.86L187.56 309.87ZM161.81 290.78L187.49 309.53L204.04 252.05L161.81 290.78Z" fill="#C7C7C7"/>
<path d="M161.611 290.91C161.591 290.904 161.572 290.894 161.556 290.88C161.541 290.866 161.529 290.849 161.521 290.83L151.111 264.07C151.103 264.054 151.1 264.037 151.1 264.02C151.1 264.003 151.103 263.986 151.111 263.97C151.119 263.953 151.132 263.939 151.148 263.928C151.163 263.918 151.182 263.911 151.201 263.91L204.201 251.54C204.226 251.536 204.253 251.54 204.276 251.552C204.3 251.563 204.319 251.581 204.332 251.604C204.345 251.627 204.351 251.653 204.349 251.679C204.347 251.705 204.337 251.73 204.321 251.75L161.661 290.88L161.611 290.91ZM151.391 264.12L161.661 290.57L203.841 251.89L151.391 264.12Z" fill="#C7C7C7"/>
<path d="M187.56 309.87C187.528 309.882 187.492 309.882 187.46 309.87C187.449 309.859 187.44 309.846 187.434 309.831C187.428 309.816 187.425 309.801 187.425 309.785C187.425 309.769 187.428 309.753 187.434 309.739C187.44 309.724 187.449 309.711 187.46 309.7L229.18 268.38C229.202 268.36 229.231 268.349 229.26 268.349C229.29 268.349 229.318 268.36 229.34 268.38C229.365 268.395 229.384 268.418 229.393 268.446C229.403 268.473 229.401 268.503 229.39 268.53L222.04 286.65C222.036 286.663 222.03 286.675 222.021 286.685C222.013 286.695 222.002 286.704 221.99 286.71L187.68 309.84C187.665 309.856 187.646 309.868 187.625 309.873C187.603 309.879 187.581 309.878 187.56 309.87ZM228.94 268.94L188.59 308.94L221.77 286.57L228.94 268.94Z" fill="#C7C7C7"/>
<path d="M187.56 309.87H187.5C187.476 309.857 187.456 309.836 187.445 309.811C187.434 309.785 187.433 309.757 187.44 309.73L204.15 251.65C204.156 251.63 204.166 251.611 204.18 251.596C204.194 251.58 204.211 251.568 204.23 251.56C204.247 251.55 204.266 251.545 204.285 251.545C204.305 251.545 204.324 251.55 204.34 251.56L229.34 268.32C229.371 268.341 229.392 268.373 229.4 268.41C229.407 268.426 229.41 268.443 229.41 268.46C229.41 268.477 229.407 268.494 229.4 268.51L187.68 309.83C187.646 309.857 187.604 309.872 187.56 309.87ZM204.35 251.87L187.81 309.32L229.09 268.47L204.35 251.87Z" fill="#C7C7C7"/>
<path d="M244.76 316.17C244.741 316.17 244.721 316.166 244.704 316.157C244.686 316.149 244.671 316.136 244.66 316.12L221.77 286.68C221.757 286.663 221.75 286.642 221.75 286.62C221.75 286.598 221.757 286.577 221.77 286.56C221.777 286.538 221.791 286.52 221.808 286.505C221.826 286.491 221.847 286.482 221.87 286.48L272.93 280.4C272.955 280.396 272.981 280.4 273.004 280.41C273.027 280.421 273.047 280.438 273.06 280.46C273.072 280.481 273.079 280.505 273.079 280.53C273.079 280.554 273.072 280.579 273.06 280.6L244.88 316.12C244.866 316.137 244.847 316.151 244.826 316.16C244.805 316.168 244.783 316.172 244.76 316.17ZM222.11 286.71L244.76 315.84L272.65 280.68L222.11 286.71Z" fill="#C7C7C7"/>
<path d="M221.871 286.73C221.851 286.729 221.833 286.724 221.815 286.715C221.798 286.707 221.783 286.695 221.771 286.68C221.761 286.661 221.756 286.641 221.756 286.62C221.756 286.599 221.761 286.578 221.771 286.56L229.181 268.37C229.185 268.355 229.192 268.341 229.203 268.329C229.213 268.317 229.225 268.307 229.24 268.301C229.254 268.294 229.269 268.291 229.285 268.291C229.301 268.29 229.316 268.294 229.331 268.3L272.981 280.4C273.009 280.407 273.033 280.424 273.05 280.448C273.067 280.472 273.074 280.501 273.071 280.53C273.071 280.559 273.059 280.587 273.038 280.608C273.018 280.628 272.99 280.64 272.961 280.64L221.901 286.73H221.871ZM229.361 268.57L222.041 286.47L272.261 280.47L229.361 268.57Z" fill="#C7C7C7"/>
<path d="M244.76 316.17C244.737 316.17 244.715 316.164 244.695 316.151C244.675 316.139 244.66 316.121 244.65 316.1C244.633 316.079 244.624 316.052 244.624 316.025C244.624 315.998 244.633 315.971 244.65 315.95L292.04 272.36C292.059 272.35 292.079 272.345 292.1 272.345C292.121 272.345 292.142 272.35 292.16 272.36C292.18 272.366 292.199 272.376 292.214 272.39C292.23 272.404 292.242 272.421 292.25 272.44L301.2 300.76C301.207 300.774 301.211 300.789 301.211 300.805C301.211 300.821 301.207 300.836 301.2 300.85C301.195 300.865 301.186 300.879 301.174 300.89C301.161 300.9 301.146 300.907 301.13 300.91L244.83 316.18L244.76 316.17ZM292.04 272.68L245.22 315.79L300.9 300.69L292.04 272.68Z" fill="#C7C7C7"/>
<path d="M244.76 316.17C244.738 316.168 244.716 316.161 244.697 316.148C244.679 316.136 244.663 316.119 244.653 316.098C244.643 316.078 244.639 316.056 244.64 316.033C244.641 316.011 244.648 315.989 244.66 315.97L272.84 280.47C272.857 280.465 272.874 280.465 272.89 280.47L292.04 272.34C292.062 272.324 292.088 272.316 292.115 272.316C292.142 272.316 292.168 272.324 292.19 272.34C292.21 272.362 292.221 272.39 292.221 272.42C292.221 272.449 292.21 272.478 292.19 272.5L244.84 316.14C244.83 316.15 244.817 316.158 244.803 316.163C244.79 316.168 244.775 316.171 244.76 316.17ZM273.04 280.62L245.85 314.87L291.49 272.87L273.04 280.62Z" fill="#C7C7C7"/>
<path d="M301.04 300.9C301.017 300.898 300.995 300.891 300.976 300.879C300.957 300.866 300.941 300.85 300.93 300.83C300.913 300.809 300.903 300.782 300.903 300.755C300.903 300.728 300.913 300.701 300.93 300.68L349.74 261.78C349.751 261.769 349.764 261.76 349.779 261.754C349.793 261.748 349.809 261.745 349.825 261.745C349.84 261.745 349.856 261.748 349.871 261.754C349.885 261.76 349.898 261.769 349.91 261.78C349.929 261.802 349.94 261.83 349.94 261.86C349.94 261.889 349.929 261.918 349.91 261.94L325.64 294.11C325.623 294.135 325.598 294.152 325.57 294.16L301.09 300.89L301.04 300.9ZM349.16 262.59L301.61 300.47L325.47 293.91L349.16 262.59Z" fill="#C7C7C7"/>
<path d="M301.04 300.9C301.021 300.895 301.003 300.885 300.989 300.871C300.975 300.857 300.965 300.839 300.96 300.82L291.96 272.5C291.953 272.484 291.949 272.467 291.949 272.45C291.949 272.433 291.953 272.416 291.96 272.4C291.98 272.372 292.008 272.351 292.04 272.34L349.82 261.76C349.848 261.756 349.876 261.762 349.899 261.777C349.923 261.791 349.941 261.814 349.95 261.84C349.967 261.861 349.976 261.888 349.976 261.915C349.976 261.942 349.967 261.969 349.95 261.99L301.13 300.87C301.118 300.881 301.104 300.89 301.089 300.895C301.073 300.9 301.056 300.902 301.04 300.9ZM292.25 272.55L301.11 300.55L349.39 262.08L292.25 272.55Z" fill="#C7C7C7"/>
<path d="M325.54 294.16C325.516 294.16 325.492 294.153 325.471 294.141C325.45 294.129 325.432 294.111 325.42 294.09C325.408 294.069 325.401 294.044 325.401 294.02C325.401 293.995 325.408 293.971 325.42 293.95L355.78 266.15C355.798 266.142 355.816 266.139 355.835 266.139C355.854 266.139 355.873 266.142 355.89 266.15C355.909 266.154 355.928 266.162 355.943 266.175C355.959 266.187 355.971 266.202 355.98 266.22L370.04 292.47C370.05 292.49 370.055 292.512 370.055 292.535C370.055 292.557 370.05 292.58 370.04 292.6C370.028 292.618 370.011 292.633 369.992 292.643C369.973 292.653 369.952 292.659 369.93 292.66L325.6 294.2L325.54 294.16ZM355.87 266.47L325.87 293.92L369.66 292.4L355.87 266.47Z" fill="#C7C7C7"/>
<path d="M325.54 294.16C325.514 294.17 325.486 294.17 325.46 294.16C325.449 294.149 325.44 294.136 325.434 294.121C325.428 294.106 325.425 294.091 325.425 294.075C325.425 294.059 325.428 294.044 325.434 294.029C325.44 294.014 325.449 294.001 325.46 293.99L349.79 261.83C349.801 261.819 349.814 261.81 349.829 261.804C349.844 261.798 349.859 261.795 349.875 261.795C349.891 261.795 349.907 261.798 349.921 261.804C349.936 261.81 349.949 261.819 349.96 261.83L355.96 266.19C355.976 266.201 355.989 266.216 355.997 266.234C356.006 266.251 356.011 266.271 356.01 266.29C356.018 266.305 356.022 266.323 356.022 266.34C356.022 266.357 356.018 266.374 356.01 266.39L325.65 294.18L325.54 294.16ZM349.89 262.05L326.47 293.05L355.71 266.29L349.89 262.05Z" fill="#C7C7C7"/>
<path d="M69.8401 352.88H69.7901L20.4601 327.93C20.443 327.919 20.4286 327.904 20.4182 327.887C20.4078 327.87 20.4016 327.85 20.4001 327.83C20.3913 327.813 20.3867 327.794 20.3867 327.775C20.3867 327.756 20.3913 327.737 20.4001 327.72L56.1201 299.94C56.1386 299.93 56.1592 299.925 56.1801 299.925C56.201 299.925 56.2215 299.93 56.2401 299.94C56.2601 299.947 56.2781 299.958 56.2922 299.974C56.3062 299.99 56.3158 300.009 56.3201 300.03L69.9301 352.75C69.9349 352.774 69.9328 352.799 69.924 352.822C69.9151 352.845 69.8999 352.865 69.8801 352.88C69.8668 352.882 69.8533 352.882 69.8401 352.88ZM20.7501 327.79L69.6501 352.52L56.1601 300.24L20.7501 327.79Z" fill="#C7C7C7"/>
<path d="M69.8403 352.88C69.802 352.876 69.7665 352.858 69.7403 352.83C69.7256 352.81 69.7178 352.785 69.7178 352.76C69.7178 352.735 69.7256 352.71 69.7403 352.69L110.82 289.18C110.84 289.164 110.865 289.155 110.89 289.155C110.916 289.155 110.941 289.164 110.96 289.18C110.985 289.186 111.007 289.2 111.023 289.22C111.04 289.24 111.049 289.264 111.05 289.29L112.96 341.75C112.959 341.779 112.949 341.808 112.931 341.831C112.913 341.854 112.889 341.872 112.86 341.88L69.8603 352.88H69.8403ZM110.84 289.65L70.1403 352.55L112.72 341.61L110.84 289.65Z" fill="#C7C7C7"/>
<path d="M69.8398 352.88C69.8166 352.872 69.7955 352.859 69.7782 352.842C69.7608 352.824 69.7477 352.803 69.7398 352.78L56.1398 300.06C56.1326 300.044 56.1289 300.027 56.1289 300.01C56.1289 299.993 56.1326 299.976 56.1398 299.96C56.148 299.946 56.1596 299.934 56.1736 299.925C56.1875 299.916 56.2034 299.911 56.2198 299.91L110.91 289.12C110.935 289.115 110.961 289.118 110.985 289.128C111.008 289.139 111.027 289.157 111.04 289.18C111.054 289.199 111.061 289.222 111.061 289.245C111.061 289.268 111.054 289.291 111.04 289.31L69.9598 352.82C69.9492 352.842 69.9317 352.86 69.91 352.87C69.8883 352.881 69.8636 352.885 69.8398 352.88ZM56.3898 300.13L69.8898 352.47L110.66 289.47L56.3898 300.13Z" fill="#C7C7C7"/>
<path d="M112.83 341.83C112.81 341.83 112.79 341.825 112.772 341.814C112.754 341.804 112.74 341.788 112.73 341.77C112.713 341.749 112.704 341.722 112.704 341.695C112.704 341.668 112.713 341.641 112.73 341.62L161.51 290.7C161.529 290.69 161.55 290.685 161.57 290.685C161.591 290.685 161.612 290.69 161.63 290.7C161.652 290.705 161.672 290.716 161.688 290.732C161.704 290.748 161.715 290.768 161.72 290.79L169.8 326.36C169.805 326.376 169.806 326.392 169.804 326.409C169.802 326.425 169.796 326.44 169.788 326.454C169.779 326.468 169.768 326.481 169.755 326.49C169.742 326.5 169.726 326.507 169.71 326.51L112.86 341.85L112.83 341.83ZM161.54 291.04L113.23 341.47L169.54 326.27L161.54 291.04Z" fill="#C7C7C7"/>
<path d="M112.83 341.83C112.807 341.822 112.787 341.807 112.773 341.787C112.758 341.768 112.75 341.744 112.75 341.72L110.84 289.26C110.833 289.246 110.83 289.23 110.83 289.215C110.83 289.199 110.833 289.184 110.84 289.17C110.84 289.17 110.89 289.17 110.93 289.17L161.61 290.71C161.634 290.714 161.658 290.723 161.679 290.737C161.699 290.75 161.717 290.769 161.73 290.79C161.744 290.81 161.752 290.835 161.752 290.86C161.752 290.885 161.744 290.91 161.73 290.93L112.95 341.84C112.931 341.852 112.91 341.857 112.888 341.855C112.866 341.853 112.846 341.844 112.83 341.83ZM111.04 289.37L112.93 341.37L161.31 290.88L111.04 289.37Z" fill="#C7C7C7"/>
<path d="M176.38 334.25C176.348 334.262 176.313 334.262 176.28 334.25L169.59 326.47C169.569 326.445 169.558 326.413 169.558 326.38C169.558 326.347 169.569 326.315 169.59 326.29L187.46 309.68C187.482 309.66 187.511 309.649 187.54 309.649C187.57 309.649 187.598 309.66 187.62 309.68C187.639 309.7 187.65 309.727 187.65 309.755C187.65 309.783 187.639 309.81 187.62 309.83L176.49 334.17C176.482 334.189 176.47 334.206 176.454 334.22C176.439 334.234 176.42 334.244 176.4 334.25H176.38ZM169.86 326.36L176.35 333.89L187.18 310.26L169.86 326.36Z" fill="#C7C7C7"/>
<path d="M169.69 326.47C169.67 326.464 169.651 326.453 169.637 326.437C169.623 326.421 169.613 326.401 169.61 326.38L161.53 290.82C161.524 290.796 161.525 290.77 161.534 290.747C161.543 290.724 161.559 290.704 161.58 290.69C161.601 290.675 161.625 290.667 161.65 290.667C161.675 290.667 161.7 290.675 161.72 290.69L187.67 309.64C187.685 309.65 187.697 309.664 187.705 309.679C187.714 309.695 187.719 309.712 187.72 309.73C187.729 309.745 187.734 309.762 187.734 309.78C187.734 309.798 187.729 309.815 187.72 309.83L169.77 326.47C169.744 326.48 169.716 326.48 169.69 326.47ZM161.81 291.08L169.81 326.08L187.41 309.71L161.81 291.08Z" fill="#C7C7C7"/>
<path d="M176.38 334.25C176.354 334.249 176.33 334.241 176.309 334.227C176.287 334.213 176.271 334.193 176.26 334.17C176.246 334.149 176.239 334.125 176.239 334.1C176.239 334.075 176.246 334.051 176.26 334.03L221.75 286.52C221.769 286.508 221.792 286.501 221.815 286.501C221.838 286.501 221.86 286.508 221.88 286.52C221.903 286.526 221.924 286.538 221.94 286.556C221.956 286.574 221.966 286.596 221.97 286.62L227.37 330.42C227.377 330.434 227.38 330.449 227.38 330.465C227.38 330.481 227.377 330.496 227.37 330.51C227.359 330.525 227.346 330.537 227.33 330.545C227.315 330.554 227.297 330.559 227.28 330.56L176.38 334.28V334.25ZM221.78 286.88L176.69 333.97L227.14 330.29L221.78 286.88Z" fill="#C7C7C7"/>
<path d="M176.38 334.25C176.369 334.255 176.357 334.257 176.345 334.257C176.333 334.257 176.321 334.255 176.31 334.25C176.294 334.228 176.286 334.202 176.286 334.175C176.286 334.148 176.294 334.122 176.31 334.1L187.5 309.72C187.494 309.704 187.494 309.686 187.5 309.67L221.8 286.47C221.824 286.451 221.854 286.441 221.885 286.441C221.916 286.441 221.946 286.451 221.97 286.47C221.981 286.48 221.99 286.493 221.995 286.506C222.001 286.52 222.004 286.535 222.004 286.55C222.004 286.565 222.001 286.58 221.995 286.593C221.99 286.607 221.981 286.62 221.97 286.63L176.48 334.15C176.471 334.172 176.457 334.193 176.44 334.21C176.423 334.227 176.403 334.241 176.38 334.25ZM187.66 309.82L176.8 333.47L220.98 287.33L187.66 309.82Z" fill="#C7C7C7"/>
<path d="M251.98 343.2H251.92L227.22 330.53C227.203 330.519 227.189 330.504 227.178 330.487C227.168 330.47 227.162 330.45 227.16 330.43C227.151 330.413 227.146 330.394 227.146 330.375C227.146 330.356 227.151 330.337 227.16 330.32L244.64 315.96C244.659 315.95 244.679 315.945 244.7 315.945C244.721 315.945 244.742 315.95 244.76 315.96C244.779 315.968 244.797 315.98 244.81 315.996C244.824 316.012 244.834 316.03 244.84 316.05L252.06 343.05C252.073 343.069 252.079 343.092 252.079 343.115C252.079 343.138 252.073 343.161 252.06 343.18C252.037 343.197 252.009 343.204 251.98 343.2ZM227.51 330.38L251.79 342.84L244.69 316.26L227.51 330.38Z" fill="#C7C7C7"/>
<path d="M227.28 330.53H227.23C227.21 330.522 227.192 330.508 227.18 330.49C227.167 330.473 227.16 330.452 227.16 330.43L221.75 286.63C221.745 286.604 221.75 286.576 221.762 286.553C221.775 286.529 221.795 286.511 221.82 286.5C221.842 286.484 221.868 286.476 221.895 286.476C221.922 286.476 221.948 286.484 221.97 286.5L244.86 315.94C244.871 315.951 244.88 315.964 244.886 315.979C244.892 315.993 244.895 316.009 244.895 316.025C244.895 316.041 244.892 316.056 244.886 316.071C244.88 316.085 244.871 316.099 244.86 316.11L227.36 330.47C227.352 330.485 227.341 330.499 227.327 330.509C227.313 330.52 227.297 330.527 227.28 330.53ZM222.04 287.04L227.37 330.16L244.57 316.02L222.04 287.04Z" fill="#C7C7C7"/>
<path d="M251.98 343.2C251.955 343.2 251.93 343.192 251.908 343.178C251.887 343.164 251.87 343.144 251.86 343.12C251.847 343.099 251.84 343.075 251.84 343.05C251.84 343.025 251.847 343.001 251.86 342.98L300.93 300.68C300.95 300.669 300.972 300.663 300.995 300.663C301.018 300.663 301.041 300.669 301.06 300.68C301.083 300.688 301.103 300.703 301.117 300.723C301.132 300.742 301.14 300.766 301.14 300.79L303.8 342.01C303.809 342.039 303.809 342.071 303.8 342.1C303.771 342.109 303.74 342.109 303.71 342.1L251.97 343.18L251.98 343.2ZM300.98 301.03L252.35 342.94L303.61 341.87L300.98 301.03Z" fill="#C7C7C7"/>
<path d="M251.981 343.2C251.961 343.192 251.944 343.18 251.93 343.164C251.917 343.148 251.906 343.13 251.901 343.11L244.681 316.11C244.671 316.077 244.676 316.041 244.692 316.011C244.709 315.981 244.737 315.959 244.771 315.95L301.041 300.65C301.07 300.642 301.101 300.645 301.128 300.658C301.155 300.671 301.178 300.693 301.191 300.72C301.205 300.742 301.212 300.768 301.212 300.795C301.212 300.821 301.205 300.847 301.191 300.87L252.041 343.17C252.024 343.186 252.003 343.196 251.981 343.2ZM244.911 316.13L252.041 342.85L300.551 301.04L244.911 316.13Z" fill="#C7C7C7"/>
<path d="M303.72 342.12C303.687 342.132 303.652 342.132 303.62 342.12C303.607 342.101 303.601 342.078 303.601 342.055C303.601 342.032 303.607 342.009 303.62 341.99L325.45 293.99C325.453 293.976 325.459 293.964 325.468 293.953C325.476 293.942 325.487 293.933 325.499 293.926C325.511 293.92 325.525 293.916 325.539 293.915C325.553 293.914 325.567 293.915 325.58 293.92C325.607 293.925 325.632 293.939 325.651 293.958C325.671 293.978 325.684 294.003 325.69 294.03L327.31 336.19C327.313 336.204 327.313 336.219 327.31 336.234C327.307 336.248 327.301 336.262 327.292 336.274C327.284 336.286 327.273 336.296 327.261 336.304C327.248 336.312 327.234 336.318 327.22 336.32L303.77 342.12H303.72ZM325.44 294.57L303.94 341.81L327.04 336.1L325.44 294.57Z" fill="#C7C7C7"/>
<path d="M303.72 342.12C303.692 342.114 303.666 342.099 303.646 342.078C303.626 342.056 303.614 342.029 303.61 342L300.95 300.78C300.949 300.752 300.957 300.723 300.973 300.7C300.99 300.676 301.013 300.659 301.04 300.65L325.53 293.92C325.55 293.91 325.573 293.904 325.595 293.904C325.618 293.904 325.64 293.91 325.66 293.92C325.673 293.939 325.679 293.962 325.679 293.985C325.679 294.008 325.673 294.031 325.66 294.05L303.84 342.05C303.83 342.073 303.813 342.092 303.792 342.104C303.77 342.117 303.745 342.122 303.72 342.12ZM301.19 300.87L303.81 341.47L325.32 294.21L301.19 300.87Z" fill="#C7C7C7"/>
</g>
</g>
<defs>
<clipPath id="clip0_44_6051">
<rect width="382.35" height="352.88" fill="white"/>
</clipPath>
</defs>
</svg>
