<svg width="311" height="312" viewBox="0 0 311 312" fill="none" xmlns="http://www.w3.org/2000/svg">
<g opacity="0.15">
<path opacity="0.4" d="M302.078 110.724L302.513 112.171L303.594 116.119C303.317 115.198 303.317 115.198 302.078 110.658V110.724Z" fill="#73A6C8"/>
<path opacity="0.4" d="M305.32 123.409L305.162 122.646L305.439 123.83L305.663 124.922L305.347 123.514V123.409H305.32Z" fill="#73A6C8"/>
<path opacity="0.4" d="M304.991 189.27C304.885 189.704 304.793 190.151 304.688 190.586C303.37 194.915 301.446 200.626 299.72 204.797C299.76 204.558 299.813 204.321 299.878 204.087C301.393 199.639 303.713 193.796 304.991 189.27Z" fill="#73A6C8"/>
<path opacity="0.4" d="M297.466 211.127L297.782 210.403C297.151 212.979 296.377 215.519 295.463 218.009L295.002 219.022C295.961 216.476 296.766 213.874 297.413 211.232V211.127H297.466Z" fill="#73A6C8"/>
<path opacity="0.4" d="M166.864 309.201L165.837 309.28C165.336 309.28 162.911 309.28 156.612 309.346C158.603 309.19 160.6 309.155 162.595 309.24C166.126 309.24 166.759 309.24 166.917 309.24L166.864 309.201Z" fill="#73A6C8"/>
<path opacity="0.4" d="M39.715 52.2843C41.1164 51.8136 42.5851 51.5737 44.0636 51.5737C43.945 51.6922 43.8396 51.8237 43.721 51.9553C43.6024 52.0869 43.6156 52.2448 43.4442 52.2843C42.7286 52.3985 42.0071 52.4732 41.2831 52.508C40.526 52.5656 39.7807 52.7295 39.0693 52.9949L39.715 52.2843Z" fill="#73A6C8"/>
<path opacity="0.4" d="M199.254 8.0832L198.767 7.92529C201.89 8.96485 206.08 10.2939 209.164 11.4388L210.653 12.0177C207.266 10.8203 202.746 9.16224 199.32 8.07004L199.254 8.0832Z" fill="#73A6C8"/>
<path opacity="0.4" d="M296.451 213.074L296.701 212.653C291.958 225.47 291.76 225.97 285.646 236.524C285.329 237.024 285.013 237.537 284.684 238.037C291.734 225.825 292.01 225.339 296.412 213.127L296.451 213.074Z" fill="#73A6C8"/>
<path opacity="0.4" d="M97.169 12.2678C98.7816 11.7087 100.433 11.2688 102.111 10.9519C101.821 11.0703 101.531 11.2019 101.228 11.294C100.622 11.4783 99.7913 11.6362 99.172 11.7809C98.2759 11.9915 97.1163 12.3862 96.2598 12.6889L97.169 12.3204V12.2678Z" fill="#73A6C8"/>
<path opacity="0.4" d="M70.893 25.8216C81.3428 19.5973 84.6635 17.7419 99.1192 12.1099C93.8482 14.4522 88.3268 16.4129 83.1217 18.9789C78.9972 21.0054 73.7262 24.124 69.8125 26.519L70.893 25.8216Z" fill="#73A6C8"/>
<path opacity="0.4" d="M148.903 1.4248H149.43C135.95 2.28014 125.316 2.95125 107.157 9.1623L106.656 9.32021C118.318 5.53042 127.516 2.54332 148.824 1.4248H148.903Z" fill="#73A6C8"/>
<path opacity="0.4" d="M123.589 9.29389C123.405 9.386 123.273 9.55707 123.049 9.58339C116.46 10.1098 109.779 10.2677 103.164 10.8993C103.968 10.5835 104.89 10.2282 123.589 9.26758V9.29389Z" fill="#73A6C8"/>
<path opacity="0.4" d="M136.688 308.701L138.532 308.898H138.69L136.688 308.688V308.701Z" fill="#73A6C8"/>
<path opacity="0.4" d="M39.043 258.104L40.0181 259.197C39.6887 258.828 39.3592 258.473 39.043 258.104Z" fill="#73A6C8"/>
<path opacity="0.4" d="M85.7837 293.634C83.3854 292.318 83.3459 292.239 82.4366 290.805C82.1072 290.291 82.4367 289.357 82.7134 288.804L83.504 289.278C83.2932 289.844 82.9374 290.765 83.2668 291.265C84.0442 292.562 85.2447 293.551 86.6666 294.068C86.3635 293.936 86.0736 293.792 85.7837 293.634Z" fill="#73A6C8"/>
<path opacity="0.4" d="M6.56035 110.724C11.5283 96.7488 17.7217 79.3657 41.283 55.4558C40.1365 58.5877 36.0779 61.2326 33.8114 63.667C21.1678 77.5951 11.7234 94.1131 6.13867 112.066V111.842L6.45493 110.789L6.56035 110.724Z" fill="#73A6C8"/>
<path opacity="0.4" d="M4.68944 117.448C4.7685 117.172 4.84756 116.882 4.91345 116.593C6.07307 118.632 10.593 120.343 30.2406 123.08C30.1351 123.501 30.122 123.619 30.0429 124.014C12.5827 121.619 5.22972 119.751 4.66309 117.566V117.448H4.68944Z" fill="#73A6C8"/>
<path opacity="0.4" d="M38.1468 256.881C38.0018 256.723 37.8701 256.552 37.7383 256.394C49.7166 268.382 57.7944 274.698 79.2737 286.357L79.6558 286.686C58.2688 275.211 50.2042 268.921 38.1995 256.946V256.881H38.1468Z" fill="#73A6C8"/>
<path opacity="0.4" d="M35.8279 254.157L35.248 253.459C36.8557 253.631 39.5439 253.933 69.7071 254.42C69.8257 254.644 69.9575 254.854 70.0893 255.065C53.9864 255.065 37.0007 254.381 35.8279 254.21V254.157Z" fill="#73A6C8"/>
<path opacity="0.4" d="M43.4443 198.955L43.8001 199.6C29.8319 216.943 20.9503 230.852 33.917 251.788C16.4305 230.536 36.0517 207.587 43.4443 198.955Z" fill="#73A6C8"/>
<path opacity="0.4" d="M2.00049 180.874C0.392836 161.307 7.69316 147.082 29.9104 126.528C29.9104 126.725 29.9104 127.001 29.9894 127.199C9.8938 146.779 0.076579 160.636 2.19815 182.019L2.00049 180.874Z" fill="#73A6C8"/>
<path opacity="0.4" d="M4.58398 193.244C5.48005 193.691 7.21947 194.56 42.4956 195.875C42.4956 196.297 42.5878 196.402 42.6537 196.744C33.0605 196.468 5.50641 195.428 4.83436 194.204L4.58398 193.244Z" fill="#73A6C8"/>
<path opacity="0.4" d="M265.34 233.418C265.564 233.102 265.722 232.826 265.801 232.694C275.117 240.59 278.689 246.143 272.39 254.775L271.731 255.552C276.659 248.525 277.002 243.182 265.287 233.51L265.353 233.418H265.34Z" fill="#73A6C8"/>
<path opacity="0.4" d="M145.068 309.425H144.106C144.726 309.425 145.424 309.425 147.849 309.504H148.6L145.147 309.438L145.068 309.425Z" fill="#73A6C8"/>
<path opacity="0.4" d="M85.915 290.607L86.4817 290.87C93.2285 294.463 99.356 299.2 106.696 301.687C120.466 306.372 125.658 307.319 140.219 309.069C108.659 306.174 92.7146 295.265 85.915 290.647V290.607Z" fill="#73A6C8"/>
<path opacity="0.4" d="M179.172 304.977C177.683 305.582 159.024 308.846 156.902 309.214C158.458 308.834 160.033 308.535 161.62 308.319C170.146 306.78 175.153 305.78 179.172 304.977Z" fill="#73A6C8"/>
<path opacity="0.4" d="M42.495 55.6532C42.64 55.5611 42.8245 55.4163 42.9563 55.311C36.6443 67.1541 27.1433 85.0241 32.7569 118.777C32.5549 118.933 32.3613 119.1 32.1771 119.277C30.1873 104.263 27.1697 81.5764 42.4423 55.7058L42.495 55.6532Z" fill="#73A6C8"/>
<path opacity="0.4" d="M97.4589 12.9917H97.617C83.7938 19.6502 68.1258 27.1771 48.8604 47.6262C58.3218 37.9017 71.262 24.5848 97.4062 13.018L97.4589 12.9917Z" fill="#73A6C8"/>
<path opacity="0.4" d="M99.6592 12.2678L100.318 12.0178C92.0031 16.5972 76.4932 25.1768 79.9985 44.5074C79.6954 44.7311 79.6163 44.7969 79.3264 45.0338C78.404 37.1384 76.8622 23.9004 99.5802 12.3073H99.6592V12.2678Z" fill="#73A6C8"/>
<path opacity="0.4" d="M77.2576 47.3103C77.1008 47.5307 76.9557 47.7591 76.8228 47.9946C59.9688 49.7052 54.4211 50.4553 46.4092 51.8502C46.8704 51.3106 47.7269 50.2974 77.2576 47.3103Z" fill="#73A6C8"/>
<path opacity="0.4" d="M72.2372 257.525C72.5402 257.775 72.6193 257.841 72.9224 258.065C72.0922 268.197 72.2635 275.672 81.7645 286.686C81.6459 286.62 69.9048 278.698 72.2372 257.525Z" fill="#73A6C8"/>
<path opacity="0.4" d="M88.0897 291.002L87.8262 290.752C104.258 298.647 120.968 305.898 144.608 309.175H144.937C130.956 307.135 115.038 304.069 88.1161 291.028L88.0897 291.002Z" fill="#73A6C8"/>
<path opacity="0.4" d="M86.9954 290.068L86.4814 289.686C102.413 295.979 118.729 301.253 135.33 305.477L135.568 305.595C119.08 301.485 102.881 296.298 87.0744 290.068H87.0085H86.9954Z" fill="#73A6C8"/>
<path opacity="0.4" d="M33.1923 129.83L33.7195 129.633C34.4706 144.634 35.393 163.32 44.7095 190.757C44.5069 190.817 44.3087 190.892 44.1165 190.98C39.4517 175.992 33.6404 157.346 33.1133 129.844L33.1923 129.83Z" fill="#73A6C8"/>
<path opacity="0.4" d="M76.5195 51.2449L76.8358 51.4159C59.705 72.3124 48.0825 89.1954 35.7748 118.527L35.4717 118.343C44.6959 95.8276 54.3023 77.6155 76.5195 51.2317V51.2449Z" fill="#73A6C8"/>
<path opacity="0.4" d="M79.445 51.0607L80.0512 50.7317C78.6675 72.1019 82.489 92.9326 106.077 136.134C105.826 136.265 105.497 136.476 105.247 136.634C86.8903 102.354 76.77 77.4182 79.3528 51.1001H79.445V51.0607Z" fill="#73A6C8"/>
<path opacity="0.4" d="M36.6572 125.409C36.6572 125.225 36.7758 124.988 36.8681 124.541C47.1333 127.528 62.6432 132.041 103.111 139.989C103.111 140.213 103.006 140.502 102.966 140.739C80.5988 136.853 58.4554 131.775 36.6309 125.527V125.409H36.6572Z" fill="#73A6C8"/>
<path opacity="0.4" d="M121.231 11.2942C110.689 18.1632 99.7122 25.2691 83.8201 43.4285L83.4248 43.31C92.3328 33.625 103.428 21.5714 121.231 11.2942Z" fill="#73A6C8"/>
<path opacity="0.4" d="M139.191 33.4934C139.191 33.6776 139.191 33.9013 139.191 34.0856C121.098 38.0333 102.4 41.981 83.8457 46.7314L84.1092 46.2182C92.2266 44.0601 100.607 41.8231 139.231 33.4934H139.191Z" fill="#73A6C8"/>
<path opacity="0.4" d="M103.481 144.634C103.573 144.832 103.718 145.095 103.837 145.292C78.9182 164.768 66.4128 174.558 49.3875 193.586C49.2821 193.402 49.1372 193.152 49.0186 192.967C56.5692 184.098 66.9267 171.913 103.481 144.634Z" fill="#73A6C8"/>
<path opacity="0.4" d="M76.5722 259.026L76.8885 258.828C86.3499 269.184 108.514 293.436 134.751 304.885C127.266 301.411 104.443 290.831 76.5195 259.039L76.5722 259.026Z" fill="#73A6C8"/>
<path opacity="0.4" d="M47.8847 202.179C48.0668 202.161 48.2473 202.13 48.425 202.087C53.8014 217.746 57.6492 229.063 70.4973 250.288C70.3286 250.302 70.1612 250.328 69.9965 250.367C61.0359 235.247 55.5804 225.549 47.8057 202.192L47.8847 202.179Z" fill="#73A6C8"/>
<path opacity="0.4" d="M50.5336 197.323C50.5336 197.126 50.5336 196.928 50.415 196.494C66.2939 198.284 80.1961 199.784 114.563 202.744C114.563 202.955 114.563 203.231 114.563 203.442C88.0631 201.718 54.3156 197.876 50.5468 197.441V197.323H50.5336Z" fill="#73A6C8"/>
<path opacity="0.4" d="M77.2577 256.578C77.2577 256.446 77.1655 256.288 77.0469 255.973C89.236 260.46 98.0254 263.644 123.761 272.092C123.761 272.264 123.761 272.514 123.761 272.698C98.0781 264.263 89.8686 261.328 77.2445 256.657V256.578H77.2577Z" fill="#73A6C8"/>
<path opacity="0.4" d="M119.781 209.232H120.414C122.219 238.853 122.97 251.104 127.121 269.842H126.515C124.209 259.223 120.743 243.169 119.781 209.206V209.232Z" fill="#73A6C8"/>
<path opacity="0.4" d="M115.604 206.692C115.787 206.961 115.99 207.216 116.21 207.455C99.2373 221.536 83.2662 235.576 74.7009 252.407C74.411 252.117 74.3451 252.051 74.042 251.788C79.0758 242.708 85.3483 231.418 115.604 206.692Z" fill="#73A6C8"/>
<path opacity="0.4" d="M124.235 10.544L124.749 10.2939C124.077 15.7813 126.238 20.2553 140.365 30.822C140.218 30.9749 140.081 31.1376 139.956 31.3089C126.779 21.4001 123.3 16.7419 124.143 10.5834H124.222L124.235 10.544Z" fill="#73A6C8"/>
<path opacity="0.4" d="M151.763 1.34595H152.659C133.618 1.80651 124.302 4.25409 124.987 8.63604L124.354 8.92554C123.972 4.35936 133.157 1.81968 151.658 1.37227L151.763 1.34595Z" fill="#73A6C8"/>
<path opacity="0.4" d="M154.399 1.33276L154.53 1.47751C153.142 2.00955 151.72 2.44915 150.274 2.79341C142.657 4.84622 135.001 6.74112 127.385 8.80708C127.727 8.58338 127.727 8.58337 132.867 7.17536C133.42 7.03061 135.739 6.41214 145.425 3.9514C153.147 1.99071 153.806 1.76701 154.544 1.41171H154.399V1.33276Z" fill="#73A6C8"/>
<path opacity="0.4" d="M155.808 309.28C155.676 309.359 155.676 309.359 153.99 309.385C150.366 309.385 149.338 309.49 148.995 309.503H148.297C150.168 309.503 152.171 309.398 155.808 309.332V309.28Z" fill="#73A6C8"/>
<path opacity="0.4" d="M138.375 306.793C139.297 307.095 140.049 307.74 141.01 308.03C142.925 308.58 144.87 309.02 146.835 309.346C143.862 309.196 140.97 308.334 138.401 306.832L138.375 306.793Z" fill="#73A6C8"/>
<path opacity="0.4" d="M236.705 25.1899L237.548 25.7295C238.399 26.2932 239.144 27.0013 239.749 27.8217C239.983 28.451 240.006 29.1389 239.815 29.7824L239.037 29.2166C239.164 28.461 239.072 27.6852 238.774 26.9796C238.197 26.2648 237.496 25.6587 236.705 25.1899Z" fill="#73A6C8"/>
<path opacity="0.4" d="M126.831 276.817C127.036 276.918 127.247 277.006 127.464 277.08C126.66 285.331 125.434 297.818 136.069 305.069C135.95 305.069 123.484 299.977 126.844 276.817H126.831Z" fill="#73A6C8"/>
<path opacity="0.4" d="M139.706 306.569L139.337 306.385C150.024 308.03 153.621 308.582 156.006 309.188C155.756 309.319 155.334 309.109 155.058 309.056C152.251 308.477 149.602 308.082 139.759 306.582L139.706 306.569Z" fill="#73A6C8"/>
<path opacity="0.4" d="M154.886 1.39844C156.375 2.46432 157.271 3.10911 155.005 9.63598C153.252 14.6627 148.667 23.0845 144.99 29.8351L144.595 29.6903C154.504 10.9519 158.207 3.93813 154.886 1.39844Z" fill="#73A6C8"/>
<path opacity="0.4" d="M169.736 300.371L169.881 300.476C164.821 304.424 161.764 306.78 157.429 308.832C161.806 306.433 165.93 303.598 169.736 300.371Z" fill="#73A6C8"/>
<path opacity="0.4" d="M130.626 276.869C130.751 276.782 130.87 276.685 130.982 276.58C151.921 297.726 158.22 304.937 156.796 308.833L156.625 308.898C157.495 304.832 153.12 299.45 130.573 276.896L130.626 276.869Z" fill="#73A6C8"/>
<path opacity="0.4" d="M166.073 253.723C166.139 253.921 166.218 254.114 166.31 254.302C144.647 264.631 141.273 266.211 130.81 272.224C130.705 272.041 130.581 271.87 130.441 271.711C142.38 264.789 147.678 262.263 166.021 253.723H166.073Z" fill="#73A6C8"/>
<path opacity="0.4" d="M131.496 275.711C131.553 275.558 131.593 275.399 131.614 275.238C156.651 287.304 164.887 291.647 171.252 297.2C171.132 297.294 171.017 297.395 170.909 297.503C162.924 291.265 157.034 288.015 131.482 275.777V275.711H131.496Z" fill="#73A6C8"/>
<path opacity="0.4" d="M141.247 36.4541L141.787 36.5594C127.332 76.5101 120.058 96.6171 110.399 135.726L109.832 135.594C114.233 115.487 121.072 89.5375 141.247 36.4673V36.4541Z" fill="#73A6C8"/>
<path opacity="0.4" d="M296.491 209.653C296.491 209.653 293.078 217.101 266.921 230.286C267.039 229.905 267.066 229.813 267.158 229.457C279.624 223.023 288.4 218.154 296.491 209.719V209.653Z" fill="#73A6C8"/>
<path opacity="0.4" d="M173.215 72.6809L173.729 73.102C154.596 95.5644 132.879 115.592 112.968 137.344C112.823 137.186 112.612 136.976 112.454 136.831C131.97 114.75 153.673 94.7222 173.215 72.6809Z" fill="#73A6C8"/>
<path opacity="0.4" d="M124.183 207.995C124.384 207.824 124.569 207.634 124.736 207.429C162.028 242.366 162.028 242.366 167.892 248.38L167.405 248.775C164.532 246.011 164.532 246.011 124.104 208.074L124.183 207.995Z" fill="#73A6C8"/>
<path opacity="0.4" d="M125.777 204.508C125.777 204.258 125.777 203.942 125.777 203.692C203.195 209.982 203.195 209.982 211.853 210.771C211.787 211.035 211.708 211.403 211.655 211.679C206.384 211.206 206.384 211.206 125.777 204.626V204.508Z" fill="#73A6C8"/>
<path opacity="0.4" d="M109.016 147.674C109.3 147.654 109.582 147.61 109.859 147.542C112.191 163.017 114.023 175.242 119.268 198.02L118.582 198.113C114.408 181.498 111.17 164.663 108.884 147.687L109.016 147.674Z" fill="#73A6C8"/>
<path opacity="0.4" d="M114.273 142.305C114.273 142.029 114.273 141.674 114.273 141.397C146.387 143.095 178.5 144.634 210.614 146.411C210.614 146.713 210.614 147.121 210.614 147.424C178.487 145.648 146.347 144.121 114.221 142.41V142.305H114.273Z" fill="#73A6C8"/>
<path opacity="0.4" d="M211.154 149.898C211.285 150.174 211.457 150.543 211.615 150.806C183.468 168.794 153.845 184.217 125.144 201.244L124.644 200.415C153.436 183.506 183.086 168.044 211.154 149.898Z" fill="#73A6C8"/>
<path opacity="0.4" d="M144.818 35.9015C144.988 35.8043 145.147 35.6896 145.293 35.5593C152.474 44.1916 154.649 46.7971 173.255 65.3776C173.047 65.5267 172.853 65.694 172.675 65.8777C155.98 49.0999 151.592 44.3495 144.739 35.9541H144.818V35.9015Z" fill="#73A6C8"/>
<path opacity="0.4" d="M161.817 5.05683L162.094 5.17527C162.212 10.3073 160.644 14.4787 145.793 30.3616C145.657 30.2406 145.512 30.1306 145.358 30.0326C156.045 18.5185 162.489 11.0968 161.817 5.03052V5.05683Z" fill="#73A6C8"/>
<path opacity="0.4" d="M192.046 24.2031L192.376 24.5979C181.834 27.1376 170.317 29.0193 146.663 32.6907C146.663 32.5196 146.663 32.2828 146.663 32.1117C164.308 29.3746 178.289 27.2034 192.073 24.2163L192.046 24.2031Z" fill="#73A6C8"/>
<path opacity="0.4" d="M186.499 7.26758C203.379 14.5971 221.433 24.3743 240.21 55.1532H239.881C227.336 35.9411 214.659 19.0712 186.499 7.30706V7.26758Z" fill="#73A6C8"/>
<path opacity="0.4" d="M240.263 31.8354C240.355 31.8354 249.487 39.5729 243.781 57.3376L243.122 56.7191C245.191 49.4159 247.155 42.5206 240.263 31.8354Z" fill="#73A6C8"/>
<path opacity="0.4" d="M184.206 6.67527C187.29 7.62272 191.322 11.5441 191.612 11.9389C194.682 16.2945 194.722 16.9656 195.051 22.0976C194.84 21.9529 194.669 21.8608 194.445 21.7292C193.865 14.0575 192.626 11.6889 184.206 6.66211V6.67527Z" fill="#73A6C8"/>
<path opacity="0.4" d="M163.583 5.17508V5.05664C171.713 9.38595 178.184 13.0968 190.992 21.4133C190.951 21.5031 190.916 21.5954 190.887 21.6896C179.027 13.9916 173.15 10.3466 163.557 5.18824L163.583 5.17508Z" fill="#73A6C8"/>
<path opacity="0.4" d="M216.254 153.411C216.554 153.41 216.854 153.383 217.15 153.333C218.349 171.992 218.982 184.914 217.572 206.126H216.939C217.572 187.362 217.954 176.032 216.254 153.372V153.411Z" fill="#73A6C8"/>
<path opacity="0.4" d="M154.543 1.33276H154.385C155.992 1.42488 162.581 1.97755 179.725 5.20151L180.384 5.41205C162.845 2.08283 156.19 1.46435 154.556 1.33276H154.543Z" fill="#73A6C8"/>
<path opacity="0.4" d="M162.911 4.29363L162.674 4.12256C172.596 4.8463 175.1 5.05685 180.661 5.51742L181.359 5.75428C176.088 5.30688 173.176 5.07001 162.911 4.31995V4.29363Z" fill="#73A6C8"/>
<path opacity="0.4" d="M198.227 26.506C198.265 26.4086 198.292 26.307 198.306 26.2034C212.2 35.3313 225.574 45.2246 238.366 55.8375L238.234 56.298C225.454 45.6384 212.093 35.6926 198.214 26.506H198.227Z" fill="#73A6C8"/>
<path opacity="0.4" d="M194.431 26.2822L194.892 26.5191C194.721 33.5723 194.484 43.231 179.607 65.7461C179.382 65.5762 179.149 65.4181 178.908 65.2724C185.576 54.7452 194.721 40.336 194.431 26.2822Z" fill="#73A6C8"/>
<path opacity="0.4" d="M258.276 139.134C258.276 139.581 258.342 139.713 258.421 140.134C244.282 142.937 239.907 143.753 221.524 146.845C221.501 146.505 221.457 146.167 221.393 145.832C239.841 142.726 244.282 141.884 258.289 139.134H258.276Z" fill="#73A6C8"/>
<path opacity="0.4" d="M178.935 73.9441L179.594 73.6677C191.269 94.3274 202.286 113.842 214.224 141.358L213.592 141.634C202.035 116.763 197.779 107.421 178.843 73.9704H178.935V73.9441Z" fill="#73A6C8"/>
<path opacity="0.4" d="M239.34 59.772L239.696 60.351C234.28 61.5221 223.013 63.9697 181.636 69.128C181.636 68.9438 181.544 68.6938 181.491 68.5096C234.517 60.6141 234.517 60.6141 239.34 59.772Z" fill="#73A6C8"/>
<path opacity="0.4" d="M242.437 63.259L242.792 63.4827C243.86 83.1028 240.328 103.131 219.402 142.305C219.154 142.11 218.894 141.93 218.625 141.766C231.315 117.54 243.662 91.5246 242.437 63.259Z" fill="#73A6C8"/>
<path opacity="0.4" d="M171.397 256.288C171.624 256.235 171.849 256.169 172.069 256.091C174.243 267.171 177.524 283.922 173.281 296.239L172.833 296.358C174.48 289.66 176.787 280.488 171.305 256.315H171.397V256.288Z" fill="#73A6C8"/>
<path opacity="0.4" d="M212.195 215.272C212.332 215.501 212.495 215.713 212.682 215.904C198.622 228.549 196.869 230.089 174.784 248.946C174.679 248.814 174.52 248.656 174.415 248.538C186.96 237.392 199.768 226.549 212.195 215.272Z" fill="#73A6C8"/>
<path opacity="0.4" d="M175.074 253.302C175.166 253.093 175.241 252.877 175.298 252.657C190.215 256.315 217.954 263.105 232.264 270.698L231.79 271.171C220.668 266.355 210.166 261.815 175.048 253.394V253.302H175.074Z" fill="#73A6C8"/>
<path opacity="0.4" d="M173.585 299.24L173.928 298.924C178.935 301.174 180.516 302.121 181.412 304.082L180.753 304.332C179.963 302.556 178.922 301.7 173.532 299.279L173.585 299.24Z" fill="#73A6C8"/>
<path opacity="0.4" d="M229.879 273.527C229.813 273.619 227.784 276.251 174.969 297.529L175.048 297.266C216.306 280.027 216.306 280.027 229.879 273.58V273.527Z" fill="#73A6C8"/>
<path opacity="0.4" d="M260.425 236.497C260.526 236.54 260.632 236.571 260.741 236.589C253.269 248.669 249.527 254.723 237.404 268.171L237.074 268.092C246.641 257.104 251.016 252.091 260.425 236.51V236.497Z" fill="#73A6C8"/>
<path opacity="0.4" d="M219.086 215.996C219.245 215.877 219.416 215.732 219.719 215.456C232.027 236.116 238.062 250.749 234.689 268.842L234.175 269.171C235.874 255.828 235.822 243.445 218.994 216.061L219.086 215.996Z" fill="#73A6C8"/>
<path opacity="0.4" d="M198.833 7.93848C212.438 11.9944 225.132 18.6339 236.217 27.4928L235.993 27.3743L235.783 27.2559C233.295 25.6685 230.922 23.9096 228.68 21.9923C224.121 18.6236 215.252 13.4389 198.833 7.93848Z" fill="#73A6C8"/>
<path opacity="0.4" d="M186.38 6.91206L186.011 6.75415C203.046 11.7589 219.439 18.7275 234.86 27.5191L235.242 27.9007C219.853 19.0607 203.492 12.0266 186.485 6.93838L186.38 6.91206Z" fill="#73A6C8"/>
<path opacity="0.4" d="M246.377 63.4958C246.441 63.3645 246.494 63.228 246.535 63.0879C259.027 75.2731 267.316 83.6028 279.663 100.617C279.663 100.736 279.545 100.894 279.505 101.012C269.569 87.9716 263.587 80.1025 246.351 63.5353L246.377 63.4958Z" fill="#73A6C8"/>
<path opacity="0.4" d="M244.506 64.1538H244.888C250.554 76.2206 260.029 96.4329 262.519 132.739H262.124C259.634 111.118 257.275 90.6955 244.506 64.1538Z" fill="#73A6C8"/>
<path opacity="0.4" d="M260.002 143.503C260.173 143.684 260.353 143.855 260.543 144.016C253.769 158.701 246.047 175.334 220.681 207.377C220.493 207.191 220.295 207.015 220.088 206.85C240.104 181.124 250.172 165.136 260.002 143.503Z" fill="#73A6C8"/>
<path opacity="0.4" d="M281.31 193.06C281.419 193.127 281.534 193.184 281.653 193.231C276.659 206.824 274.379 213.035 266.617 226.694C266.486 226.626 266.35 226.568 266.209 226.523C272.798 214.022 276.474 207.14 281.31 193.06Z" fill="#73A6C8"/>
<path opacity="0.4" d="M221.05 213.522C221.165 213.273 221.266 213.018 221.353 212.759C239.63 219.22 249.236 223.023 261.399 229.773C261.188 230.115 261.122 230.234 260.912 230.602C252.847 226.181 245.876 222.378 220.997 213.627C220.999 213.592 220.999 213.557 220.997 213.522H221.05Z" fill="#73A6C8"/>
<path opacity="0.4" d="M280.19 188.599C280.19 188.822 280.19 189.112 280.19 189.322C269.332 194.586 257.433 199.85 221.854 210.627C221.867 210.395 221.867 210.162 221.854 209.929C258.75 197.784 263.534 196.231 280.256 188.599H280.19Z" fill="#73A6C8"/>
<path opacity="0.4" d="M281.126 108.434C281.279 108.697 281.447 108.952 281.627 109.197C277.186 118.909 275.526 122.54 265.682 135.515C265.543 135.233 265.384 134.96 265.208 134.699C272.97 124.277 275.869 120.382 281.126 108.381V108.434Z" fill="#73A6C8"/>
<path opacity="0.4" d="M265.181 143.845C265.34 143.672 265.485 143.487 265.616 143.292C271.717 154.491 278.016 166.057 282.47 182.506C282.29 182.692 282.122 182.89 281.969 183.098C278.042 169.374 272.378 156.205 265.115 143.911C265.13 143.883 265.153 143.86 265.181 143.845Z" fill="#73A6C8"/>
<path opacity="0.4" d="M229.405 275.382L229.576 275.54C219.034 284.094 205.857 294.752 185.221 303.174C196.764 297.911 209.849 291.963 229.405 275.422V275.382Z" fill="#73A6C8"/>
<path opacity="0.4" d="M283.841 71.6677C294.686 89.8535 296.847 94.6828 303.067 114.685C296.623 94.2749 294.462 89.4587 283.841 71.6677Z" fill="#73A6C8"/>
<path opacity="0.4" d="M266.789 261.039L266.117 261.75C263.64 263.737 259.91 266.737 236.125 271.658C236.309 271.448 236.362 271.132 236.665 271.027C238.469 270.531 240.299 270.136 242.147 269.842C248.248 268.527 262.862 265.053 266.789 261.039Z" fill="#73A6C8"/>
<path opacity="0.4" d="M250.607 275.961L249.289 276.988C239.063 284.383 234.398 287.765 219.613 294.792C225.596 291.528 231.789 288.66 237.614 285.107C241.686 282.633 246.838 278.843 250.594 275.961H250.607Z" fill="#73A6C8"/>
<path opacity="0.4" d="M233.345 274.172L233.964 273.711C233.213 279.488 232.277 286.699 218.072 295.173L217.281 295.529C223.751 291.397 232.607 285.738 233.252 274.237L233.345 274.172Z" fill="#73A6C8"/>
<path opacity="0.4" d="M243.36 32.8353L243.03 32.4932C253.375 39.5464 266.249 48.284 277.858 63.18L278.122 63.5747C270.914 55.074 262.744 45.4548 243.386 32.8879L243.36 32.8353Z" fill="#73A6C8"/>
<path opacity="0.4" d="M242.925 33.4275C243.188 33.5196 270.966 53.6924 281.798 100.117L281.495 99.9726C276.567 82.2211 269.833 57.8638 242.925 33.4275Z" fill="#73A6C8"/>
<path opacity="0.4" d="M281.996 69.0359C286.7 75.7865 290.904 87.1295 284.223 102.947C284.086 102.67 283.932 102.402 283.762 102.144C286.78 93.8538 290.535 83.5503 281.996 69.0359Z" fill="#73A6C8"/>
<path opacity="0.4" d="M184.878 4.35938L186.09 4.6094L191.361 5.84635L184.772 4.35938H184.878Z" fill="#73A6C8"/>
<path opacity="0.4" d="M163.188 1.58288H164.242C174.929 2.37242 180.2 3.5041 182.453 5.45163C182.188 5.39706 181.929 5.32228 181.675 5.22793C181.363 5.05692 181.075 4.84445 180.819 4.59629C179.291 3.80409 177.644 3.26627 175.943 3.00405C171.729 2.22575 167.468 1.729 163.188 1.51709V1.58288Z" fill="#73A6C8"/>
<path opacity="0.4" d="M183.678 5.89902L182.993 5.68848C188.765 5.99113 191.229 6.17536 193.535 6.4517L194.497 6.71488C192.336 6.4517 190.267 6.26747 183.731 5.92534H183.665L183.678 5.89902Z" fill="#73A6C8"/>
<path opacity="0.4" d="M305.596 126.106C308.008 142.463 311.645 167.176 299.97 202.745C305.241 184.519 311.711 161.833 305.596 126.106Z" fill="#73A6C8"/>
<path opacity="0.4" d="M285.66 189.783C285.791 189.428 285.884 189.125 285.936 188.967C291.589 194.231 296.043 198.363 297.862 205.916L297.506 206.811C295.925 201.679 294.778 197.968 285.646 189.901V189.783H285.66Z" fill="#73A6C8"/>
<path opacity="0.4" d="M181.267 304.964L181.887 304.753C182.849 305.464 184.654 306.793 176.51 308.096L174.534 308.385L173.506 308.517C179.844 307.661 183.587 306.74 181.254 305.043H181.175H181.267V304.964Z" fill="#73A6C8"/>
<path opacity="0.4" d="M212.287 298.108L212.985 297.832C208.387 299.961 203.639 301.751 198.78 303.187L197.62 303.529C202.6 302.097 207.467 300.298 212.181 298.147H212.287V298.108Z" fill="#73A6C8"/>
<path opacity="0.4" d="M213.908 297.055C213.908 297.055 207.385 299.819 182.822 304.398C183.025 304.291 183.236 304.203 183.455 304.135C193.601 301.74 203.919 300.121 213.908 297.055Z" fill="#73A6C8"/>
<path opacity="0.4" d="M283.735 110.974L284.091 111.039C288.651 134.726 289.929 151.306 284.869 181.638L284.5 181.559C288.453 155.017 289.178 139.344 283.735 110.974Z" fill="#73A6C8"/>
<path opacity="0.4" d="M285.62 106.999C285.554 106.644 285.475 106.328 285.436 106.197C295.859 111.21 299.509 113.434 303.607 118.579C303.673 118.895 303.739 119.211 303.818 119.527C300.01 114.961 297.453 112.71 285.633 107.118V106.999H285.62Z" fill="#73A6C8"/>
<path opacity="0.4" d="M304.898 123.883C304.964 124.119 311.25 148.371 286.45 183.861C286.405 183.639 286.348 183.419 286.278 183.203C294.686 170.281 307.362 150.766 304.951 123.883H304.898Z" fill="#73A6C8"/>
<path opacity="0.4" d="M6.24389 111.75C5.54549 114.132 4.21456 119.198 3.6084 121.606C4.35951 118.277 5.21605 115.027 6.24389 111.75Z" fill="#73A6C8"/>
<path opacity="0.4" d="M138.691 308.911H138.401C141.34 309.214 145.412 309.569 150.722 309.688H150.446C146.492 309.596 142.539 309.346 138.691 308.951V308.911Z" fill="#73A6C8"/>
<path opacity="0.4" d="M31.8212 249.288C31.7904 249.252 31.7639 249.212 31.7422 249.169C32.0321 249.485 39.1084 258.052 39.1611 258.118C39.2138 258.183 39.0952 258.118 39.082 258.039C36.552 255.214 34.1317 252.297 31.8212 249.288Z" fill="#73A6C8"/>
<path opacity="0.4" d="M154.306 1.33276C151.67 1.33276 149.404 1.33276 147.954 1.46435C150.062 1.37224 152.184 1.33276 154.306 1.33276Z" fill="#73A6C8"/>
<path opacity="0.4" d="M102.941 10.5835C101.056 11.227 99.2231 12.0145 97.459 12.9389C98.2101 12.8468 107.843 9.08332 108.185 8.85962H108.12C106.355 9.32495 104.617 9.88727 102.914 10.544L102.941 10.5835Z" fill="#73A6C8"/>
<path opacity="0.4" d="M43.8786 51.7713C45.9738 49.4026 48.0822 47.6393 48.8729 47.5999C50.1906 47.8499 44.6956 54.1794 42.4423 55.7058C41.5067 56.3374 41.0191 56.3506 41.1245 55.7058C41.7799 54.2319 42.705 52.8931 43.8522 51.7581L43.8786 51.7713Z" fill="#73A6C8"/>
<path opacity="0.4" d="M81.8827 288.37C79.3658 286.725 78.4434 285.738 78.8519 285.581H78.9573C80.5913 285.712 88.8536 290.949 88.2606 291.476C87.9971 291.726 85.1902 290.528 81.8827 288.383V288.37Z" fill="#73A6C8"/>
<path opacity="0.4" d="M30.0686 123.883C30.5693 121.119 32.1242 118.264 34.483 118.145C38.1727 118.145 37.8169 125.883 34.7729 128.87C32.5723 131.028 29.7918 129.87 29.8841 125.672C29.8973 125.072 29.959 124.473 30.0686 123.883Z" fill="#73A6C8"/>
<path opacity="0.4" d="M42.5878 196.428C41.8103 192.481 43.4706 190.73 45.3418 190.691C50.3493 191.02 51.9306 199.442 49.3741 201.573C47.4371 203.218 43.6288 201.573 42.5878 196.428Z" fill="#73A6C8"/>
<path opacity="0.4" d="M148.232 309.425C146.871 309.353 145.516 309.203 144.173 308.977C147.072 309.122 149.945 309.569 152.857 309.635C152.343 309.635 150.485 309.635 148.232 309.425Z" fill="#73A6C8"/>
<path opacity="0.4" d="M69.931 254.762C68.3761 252.13 68.6133 250.328 70.6162 250.275C74.7671 250.525 78.839 257.104 76.8887 258.828C75.7291 259.855 72.2107 258.578 69.931 254.762Z" fill="#73A6C8"/>
<path opacity="0.4" d="M77.2572 47.3498C78.575 45.4812 80.7756 43.4021 83.0817 43.2837C85.7172 43.2837 84.2281 46.9551 81.7639 49.35C79.1284 51.9818 76.0844 52.166 76.0186 50.2448C76.1298 49.1891 76.5362 48.1858 77.1913 47.3498H77.2572Z" fill="#73A6C8"/>
<path opacity="0.4" d="M123.458 9.39929C124.96 8.54568 126.594 7.94965 128.294 7.63599C128.465 7.63599 128.847 7.63598 128.294 8.13603C126.554 9.74142 121.072 12.2416 121.138 11.1889C121.138 10.8336 122.021 10.1625 123.431 9.39929H123.458Z" fill="#73A6C8"/>
<path opacity="0.4" d="M136.701 306.174C135.08 305.503 134.501 305.03 134.764 304.859C134.833 304.842 134.906 304.842 134.975 304.859C136.293 304.859 141.05 307.017 141.037 307.372C139.536 307.209 138.072 306.805 136.701 306.174Z" fill="#73A6C8"/>
<path opacity="0.4" d="M102.901 141.516C102.874 140.734 103.006 139.954 103.287 139.224C103.569 138.494 103.995 137.828 104.539 137.265C105.084 136.703 105.737 136.256 106.458 135.951C107.179 135.645 107.955 135.488 108.739 135.489C114.892 135.489 115.815 143.003 112.428 146.161C111.593 146.957 110.533 147.478 109.392 147.655C108.251 147.831 107.083 147.655 106.046 147.149C105.008 146.643 104.151 145.832 103.589 144.825C103.026 143.818 102.786 142.663 102.901 141.516Z" fill="#73A6C8"/>
<path opacity="0.4" d="M123.985 273.566C123.247 271.421 124.301 269.908 126.515 269.869C130.771 269.869 132.827 274.698 130.982 276.58C129.427 278.159 125.223 277.225 123.985 273.566Z" fill="#73A6C8"/>
<path opacity="0.4" d="M114.589 203.718C114.47 202.993 114.515 202.251 114.721 201.546C114.927 200.84 115.288 200.19 115.779 199.642C116.269 199.095 116.876 198.664 117.555 198.381C118.234 198.098 118.967 197.97 119.702 198.007C125.737 198.139 127.332 204.942 124.354 207.85C121.376 210.758 114.998 208.942 114.589 203.718Z" fill="#73A6C8"/>
<path opacity="0.4" d="M139.271 32.7564C139.513 31.8315 140.056 31.013 140.814 30.4295C141.573 29.846 142.504 29.5305 143.461 29.5325C147.032 29.5325 147.414 33.3881 145.556 35.3224C143.448 37.441 139.126 36.862 139.139 33.796C139.136 33.4452 139.181 33.0956 139.271 32.7564Z" fill="#73A6C8"/>
<path opacity="0.4" d="M165.942 251.525C166.162 250.311 166.82 249.218 167.791 248.455C168.762 247.691 169.979 247.309 171.213 247.38C176.576 247.564 176.405 252.854 173.849 255.104C170.818 257.736 165.586 256.42 165.942 251.999C165.942 251.854 165.942 251.67 165.942 251.525Z" fill="#73A6C8"/>
<path opacity="0.4" d="M154.306 1.33264C154.563 1.31454 154.822 1.34125 155.07 1.41159H154.846C154.666 1.39745 154.485 1.39745 154.306 1.41159V1.33264Z" fill="#73A6C8"/>
<path opacity="0.4" d="M155.769 309.306C156.212 309.022 156.711 308.834 157.231 308.753C157.495 308.753 157.469 308.872 157.363 308.964C156.673 309.343 155.909 309.568 155.123 309.622C155.326 309.537 155.524 309.44 155.716 309.332L155.769 309.306Z" fill="#73A6C8"/>
<path opacity="0.4" d="M171.582 68.7858C171.565 68.2056 171.671 67.6284 171.893 67.0918C172.114 66.5552 172.447 66.0712 172.868 65.6715C173.29 65.2717 173.791 64.9651 174.339 64.7716C174.887 64.5782 175.47 64.5022 176.049 64.5487C181.439 64.6934 183.112 70.5097 180.569 72.9836C178.026 75.4575 171.595 74.0363 171.582 68.7858Z" fill="#73A6C8"/>
<path opacity="0.4" d="M160.394 4.0434C159.946 3.62231 159.538 3.10911 160.117 3.09595C161.356 3.09595 164.136 4.74083 163.504 5.28035C163.175 5.55669 161.778 5.37246 160.394 4.0434Z" fill="#73A6C8"/>
<path opacity="0.4" d="M170.132 298.371C170.552 297.746 171.108 297.224 171.758 296.844C172.408 296.463 173.136 296.234 173.888 296.174C175.469 296.174 175.456 297.489 173.888 298.976C172.056 300.713 169.486 301.2 169.526 299.792C169.602 299.272 169.816 298.782 170.145 298.371H170.132Z" fill="#73A6C8"/>
<path opacity="0.4" d="M210.64 147.135C210.64 143.582 212.735 141.147 215.911 141.068C221.999 141.226 222.908 149.293 219.574 152.175C216.478 154.806 210.666 153.293 210.601 147.135H210.64Z" fill="#73A6C8"/>
<path opacity="0.4" d="M211.667 211.693C211.816 210.208 212.496 208.828 213.583 207.805C214.671 206.782 216.092 206.186 217.584 206.126C223.132 206.284 222.499 212.811 219.64 215.509C216.569 218.417 211.562 217.351 211.575 212.772C211.584 212.411 211.615 212.05 211.667 211.693Z" fill="#73A6C8"/>
<path opacity="0.4" d="M191.572 23.5847C191.177 23.0057 190.017 21.0845 192.007 20.9529C195.341 21.0976 199.36 25.5585 198.029 26.7428C197.001 27.664 193.641 26.5718 191.572 23.5452V23.5847Z" fill="#73A6C8"/>
<path opacity="0.4" d="M180.042 304.608C181.623 303.888 183.281 303.35 184.984 303.003C185.142 303.003 185.287 303.003 185.142 303.2C184.456 304.029 177.789 306.214 176.998 306.043C177.103 305.924 177.222 305.779 180.055 304.648L180.042 304.608Z" fill="#73A6C8"/>
<path opacity="0.4" d="M258.211 138.068C258.211 134.91 259.621 132.804 261.887 132.739C266.328 132.739 268.015 141.081 265.116 143.911C262.691 146.279 258.277 144.24 258.211 138.068Z" fill="#73A6C8"/>
<path opacity="0.4" d="M238.932 59.0744C237.614 56.3505 238.339 55.1267 239.696 55.1267C243.096 55.1267 248.143 61.9826 246.126 63.838C244.809 65.0354 241.08 63.3774 238.932 59.0876V59.0744Z" fill="#73A6C8"/>
<path opacity="0.4" d="M181.359 5.75413C180.124 5.39505 178.913 4.95548 177.735 4.43823C178.987 4.43823 186.643 6.62262 186.736 7.26741C184.892 6.96612 183.089 6.4585 181.359 5.75413Z" fill="#73A6C8"/>
<path opacity="0.4" d="M231.157 271.856C233.16 269.592 235.36 268.118 236.929 268.026C238.497 267.934 237.798 270.119 235.163 272.645C232.251 275.448 229.338 276.382 229.299 275.027C229.573 273.803 230.223 272.694 231.157 271.856Z" fill="#73A6C8"/>
<path opacity="0.4" d="M260.424 231.484C261.742 228.549 263.851 226.575 265.695 226.457C268.805 226.457 266.71 232.444 263.851 235.142C261.584 237.3 259.449 237.05 259.515 234.655C259.613 233.55 259.922 232.473 260.424 231.484Z" fill="#73A6C8"/>
<path opacity="0.4" d="M280.428 186.809C280.968 184.361 282.286 181.703 284.381 181.545C287.702 181.664 286.925 189.691 284.052 192.467C282.457 194.02 280.099 193.652 280.099 189.559C280.117 188.633 280.232 187.711 280.441 186.809H280.428Z" fill="#73A6C8"/>
<path opacity="0.4" d="M279.676 104.723C279.109 102.447 279.11 99.9727 280.823 99.8411C283.827 99.8411 287.266 108.473 285.158 110.658C283.919 111.974 281.007 109.974 279.676 104.723Z" fill="#73A6C8"/>
<path opacity="0.4" d="M237.509 29.7957C235.835 28.4798 233.977 26.9139 234.597 26.8218C236.31 26.927 244.322 32.8618 243.702 33.5592C243.518 33.7829 241.976 33.2697 237.509 29.7957Z" fill="#73A6C8"/>
<path opacity="0.4" d="M215.081 296.529C216.841 295.651 218.649 294.874 220.497 294.2C220.22 294.871 210.851 298.792 209.955 298.95C209.955 298.845 209.955 298.845 215.121 296.529H215.081Z" fill="#73A6C8"/>
<path opacity="0.4" d="M297.045 208.1C298.217 204.863 299.285 202.771 299.825 202.652C300.826 202.876 297.295 212.93 295.872 213.745C295.476 213.969 295.476 213.18 295.872 211.679C296.162 210.495 296.649 209.048 297.005 208.1H297.045Z" fill="#73A6C8"/>
<path opacity="0.4" d="M194.168 6.62256C192.323 6.12252 190.439 5.75407 188.607 5.18823C191.019 5.6488 198.095 7.55685 200.072 8.2806C199.808 8.23327 199.548 8.16731 199.294 8.08321C196.593 7.29367 195.776 7.05681 194.168 6.62256Z" fill="#73A6C8"/>
<path opacity="0.4" d="M303.989 120.277C303.45 118.419 303.11 116.509 302.975 114.579C303.489 114.987 305.926 125.343 305.729 126.251C305.399 126.133 304.49 122.461 303.989 120.277Z" fill="#73A6C8"/>
<path opacity="0.4" d="M280.19 66.4567C279.202 65.0487 278.161 63.667 277.199 62.2458L278.899 64.5092L283.92 71.7598C282.602 70.0228 281.442 68.22 280.19 66.4962V66.4567Z" fill="#73A6C8"/>
<path d="M209.876 300.279L209.349 300.516C221.208 295.831 226.044 293.937 238.629 286.199L239.802 285.436C229.457 291.739 225.583 294.094 209.942 300.253H209.876V300.279Z" fill="#73A6C8"/>
<path d="M249.658 278.383L250.607 277.633C257.459 271.75 257.591 271.632 260.596 268.079C260.385 268.263 260.161 268.434 259.95 268.632C258.566 269.948 256.919 271.869 255.628 273.251C253.753 275.09 251.759 276.805 249.658 278.383Z" fill="#73A6C8"/>
<path d="M210.864 299.753C229.563 291.331 239.051 286.291 257.895 270.04V269.948C241.989 283.396 233.292 289.857 210.891 299.753H210.864Z" fill="#73A6C8"/>
<path d="M265.195 46.4419L264.378 45.6128L263.666 44.9154C253.124 35.2567 233.358 17.2815 197.173 6.43848C221.986 15.6498 241.594 23.0188 265.195 46.4419Z" fill="#73A6C8"/>
<path d="M273.43 55.4558L272.758 54.6531C271.52 53.4162 269.859 51.7581 268.502 50.6265C268.713 50.8633 268.897 51.1265 269.121 51.3371C270.439 52.653 272.231 54.1268 273.43 55.4558Z" fill="#73A6C8"/>
<path d="M298.902 118.408L299.232 118.935C298.388 105.986 297.242 88.2611 281.574 65.9961L280.599 64.6802C288.044 75.9969 298.243 91.4982 298.863 118.382V118.448L298.902 118.408Z" fill="#73A6C8"/>
<path d="M197.304 11.4125L197.937 11.7283C198.529 10.1098 198.688 9.67551 197.673 8.24118C196.523 7.07944 195.133 6.18141 193.601 5.60938L192.679 5.34619C194.958 6.42523 196.105 6.96476 197.067 8.24118C197.405 8.68988 197.6 9.23015 197.626 9.7913C197.652 10.3525 197.507 10.9083 197.212 11.3862H197.304V11.4125Z" fill="#73A6C8"/>
<path d="M262.849 45.5077C247.155 31.1249 230.353 17.2947 197.607 6.60962C218.441 13.9392 237.733 21.9267 262.849 45.5077Z" fill="#73A6C8"/>
<path d="M264.378 47.4683C264.259 47.3235 249.553 32.3486 200.651 13.3733C202.628 14.9787 206.107 15.6893 208.452 16.6367C241.633 30.0326 257.525 42.2968 264.378 47.4683Z" fill="#73A6C8"/>
<path d="M208.308 300.595C208.439 300.595 221.393 295.66 230.05 284.633C229.806 284.752 229.569 284.883 229.339 285.028C227.926 286.349 226.634 287.794 225.478 289.344C225.267 289.568 220.286 295.029 208.347 300.595H208.308Z" fill="#73A6C8"/>
<path d="M266.354 261.763C287.649 238.708 297.163 221.904 305.544 192.638C305.834 191.493 306.098 190.335 306.361 189.177C302.092 205.231 294.936 232.115 266.354 261.749V261.763Z" fill="#73A6C8"/>
<path d="M309.985 151.516V150.306C309.115 142.911 308.377 136.515 301.156 125.975C301.116 126.272 301.116 126.573 301.156 126.87C301.841 128.844 303.686 131.028 304.766 132.804C307.97 138.542 309.776 144.952 310.037 151.516H309.985Z" fill="#73A6C8"/>
<path d="M287.728 172.347C287.828 172.483 287.92 172.623 288.005 172.768C292.907 160.333 297.532 148.595 298.982 128.817C298.823 128.58 298.784 128.541 298.613 128.265C297.295 140.674 295.977 152.398 287.688 172.282V172.347H287.728Z" fill="#73A6C8"/>
<path d="M288.677 176.045C288.677 176.44 288.677 176.769 288.677 176.94C302.026 170.847 308.996 166.478 310.024 159.543C310.024 159.188 310.024 158.833 310.024 158.478C308.944 163.61 306.769 167.86 288.703 175.926V176.045H288.677Z" fill="#73A6C8"/>
<path d="M172.807 308.793C182.677 306.293 201.033 301.648 226.729 285.594L226.795 285.344C215.423 292.134 196.395 303.503 172.768 308.793H172.807Z" fill="#73A6C8"/>
<path d="M260.872 77.6155L261.294 78.2208C268.95 69.0884 272.323 62.18 268.265 51.7843C268.054 51.5475 267.83 51.3238 267.606 51.0869C270.676 59.7587 270.439 65.9171 260.793 77.5234L260.872 77.6155Z" fill="#73A6C8"/>
<path d="M298.152 117.645L298.415 117.843C295.49 102.052 291.484 80.4711 270.743 53.9425L270.439 53.7451C279.901 66.562 292.841 84.103 298.112 117.619L298.152 117.645Z" fill="#73A6C8"/>
<path d="M296.623 120.093C296.623 118.777 287.399 103.657 263.1 83.0632C263.1 83.2211 263.1 83.4317 263.1 83.5896C275.684 94.9458 286.542 104.736 296.649 120.093H296.623Z" fill="#73A6C8"/>
<path d="M234.926 280.83L234.518 281.225C243.147 277.54 251.452 273.139 259.344 268.066L259.937 267.434C252.012 272.593 243.663 277.07 234.979 280.817L234.926 280.83Z" fill="#73A6C8"/>
<path d="M265.129 262.381C265.392 262.171 292.393 237.524 286.595 182.835L286.279 183.151C288.097 209.061 287.755 232.892 265.129 262.381Z" fill="#73A6C8"/>
<path d="M262.875 264.408C262.981 264.302 273.575 253.67 254.547 233.115C254.373 233.385 254.184 233.644 253.98 233.892C261.887 242.879 268.476 251.972 262.875 264.408Z" fill="#73A6C8"/>
<path d="M155.333 0.0563965C156.031 0.0995524 156.731 0.0995524 157.429 0.0563965H156.493C156.103 0.0825492 155.711 0.0825492 155.32 0.0563965H155.333Z" fill="#73A6C8"/>
<path d="M190.913 4.83294C187.224 3.83286 169.236 1.21422 155.677 0.0957031C187.303 4.16184 187.303 4.16183 190.913 4.83294Z" fill="#73A6C8"/>
<path d="M188.726 4.13572L189.345 4.28047C181.175 2.15214 172.816 0.829898 164.387 0.332764H163.069C171.696 0.751041 180.26 2.02496 188.634 4.13572H188.726Z" fill="#73A6C8"/>
<path d="M165.059 310.648L166.64 310.53C183.112 308.727 187.381 307.898 201.718 303.306C191.176 306.609 181.952 309.451 165.059 310.648Z" fill="#73A6C8"/>
<path d="M170.936 309.293L170.343 309.425C181.193 307.844 191.938 305.616 202.522 302.753L203.366 302.437C192.729 305.364 181.926 307.649 171.015 309.28L170.936 309.293Z" fill="#73A6C8"/>
<path d="M195.933 295.344L195.644 295.647C210.06 290.936 217.755 288.081 227.718 284.159L228.245 283.633C216.635 288.199 210.995 290.291 195.973 295.292L195.933 295.344Z" fill="#73A6C8"/>
<path d="M233.872 279.488C234.017 279.422 248.143 267.868 252.004 235.695C251.859 235.787 251.648 235.892 251.49 235.971C249.224 250.275 247.26 262.618 233.872 279.488Z" fill="#73A6C8"/>
<path d="M171.978 308.832C179.021 307.178 185.495 303.676 190.729 298.687C190.552 298.719 190.38 298.772 190.215 298.845C188.512 300.019 186.916 301.34 185.445 302.792C182.058 305.543 174.402 308.174 171.978 308.872V308.832Z" fill="#73A6C8"/>
<path d="M155.005 311.017H156.085C165.824 310.846 168.037 310.227 168.881 309.701L168.143 309.833C167.989 309.884 167.843 309.955 167.708 310.043C166.35 310.402 164.959 310.623 163.557 310.701C162.542 310.793 160.078 310.964 155.005 311.017Z" fill="#73A6C8"/>
<path d="M154.306 311.017C158.276 310.924 162.237 310.586 166.165 310.004L166.772 309.898C162.647 310.525 158.489 310.899 154.319 311.017H154.306Z" fill="#73A6C8"/>
<path d="M285.224 171.768L285.62 171.597C284.763 154.372 283.327 125.541 262.164 85.1687L261.742 85.3266C272.811 107.815 283.735 133.015 285.224 171.768Z" fill="#73A6C8"/>
<path d="M255.535 226.523C255.603 226.587 255.665 226.657 255.72 226.733C264.14 215.996 272.85 204.889 283.392 183.309C283.245 183.158 283.117 182.99 283.01 182.809C276.052 196.56 271.019 206.495 255.535 226.51V226.523Z" fill="#73A6C8"/>
<path d="M251.081 227.181L251.516 226.852C249.816 216.535 245.283 189.151 209.625 138.423C209.414 138.608 209.111 138.844 208.874 139.015C227.059 165.676 246.285 197.007 251.042 227.181H251.081Z" fill="#73A6C8"/>
<path d="M282.655 175.913L282.826 175.203C266.618 162.044 245.85 150.569 211.128 135.515C211.128 135.739 211.009 136.028 210.943 136.252C241.08 150.266 262.849 160.399 282.616 175.953L282.655 175.913Z" fill="#73A6C8"/>
<path d="M173.453 69.9306C173.703 69.9306 174.032 69.9306 174.283 69.9306C172.029 58.0875 165.19 22.3476 157.916 5.06982H157.666C159.511 9.95182 165.151 24.8083 173.479 69.9701L173.453 69.9306Z" fill="#73A6C8"/>
<path d="M193.825 11.0705C192.6 10.1494 168.09 2.05657 156.27 0.187988C163.385 1.67496 172.254 3.51721 193.825 11.0705Z" fill="#73A6C8"/>
<path d="M194.866 11.7942C194.287 11.4126 194.273 11.3994 189.24 10.2941C179.067 8.05702 168.841 6.08317 158.668 3.81982L158.734 4.01721C170.752 6.75428 182.849 9.08342 194.866 11.7942Z" fill="#73A6C8"/>
<path d="M154.873 311.004C161.765 310.332 169.566 309.569 188.871 298.832L188.792 298.674C178.817 304.095 167.523 310.24 154.886 311.004H154.873Z" fill="#73A6C8"/>
<path d="M256.089 75.0233L256.392 74.9444C243.03 51.6134 228.562 32.4276 201.363 14.584C219.522 27.3219 236.178 40.6783 256.089 75.0233Z" fill="#73A6C8"/>
<path d="M177.92 71.0492L178.434 71.4967C196.198 51.5476 210.996 30.7827 199.031 14.0707L198.385 13.7812C206.015 25.6244 205.448 39.9808 177.828 70.9835C177.859 70.9895 177.89 70.9895 177.92 70.9835V71.0492Z" fill="#73A6C8"/>
<path d="M210.007 129.87C210.192 130.133 210.31 130.33 210.429 130.528C231.21 114.671 247.247 100.499 257.789 83.4317C257.57 83.1879 257.363 82.9331 257.169 82.6685C249.671 94.0905 240.421 106.276 209.994 129.778L210.073 129.87H210.007Z" fill="#73A6C8"/>
<path d="M255.733 80.2473C255.627 79.9841 255.483 79.642 255.39 79.3788C239.986 78.2208 222.631 76.997 180.028 74.76C180.048 75.0448 180.048 75.3306 180.028 75.6153C198.609 76.6023 229.694 78.2471 255.667 80.2473H255.733Z" fill="#73A6C8"/>
<path d="M154.306 311.017C159.063 311.017 161.013 309.53 160.13 306.609L159.853 306.767C159.932 307.74 159.853 309.333 159.129 309.925C157.678 310.79 155.989 311.173 154.306 311.017Z" fill="#73A6C8"/>
<path d="M161.422 304.937V305.095C170.765 302.635 189.292 297.608 189.464 297.555L189.859 297.16C180.397 299.792 170.91 302.24 161.461 304.898L161.422 304.937Z" fill="#73A6C8"/>
<path d="M248.999 229.747L249.382 229.102C235.255 219.351 217.756 210.785 185.062 197.521L184.799 198.218C221.907 214.259 231.882 218.575 248.999 229.734V229.747Z" fill="#73A6C8"/>
<path d="M196.132 293.95C210.785 283.199 228.548 267.961 249.158 236.326L248.67 236.116C239.446 249.92 224.055 273.04 196.105 293.936L196.132 293.95Z" fill="#73A6C8"/>
<path d="M191.901 295.45L192.521 295.068C188.976 287.739 183.059 282.712 166.166 272.619C166.049 272.818 165.917 273.007 165.771 273.185C182.769 283.33 188.647 288.331 191.954 295.45H191.901Z" fill="#73A6C8"/>
<path d="M166.482 269.013C166.539 269.164 166.587 269.318 166.627 269.474C220.22 247.788 239.472 238.011 247.708 233.826C247.721 233.566 247.747 233.307 247.787 233.05C223.132 245.314 212.208 249.854 166.456 268.934V269.013H166.482Z" fill="#73A6C8"/>
<path d="M170.488 71.5228C170.607 71.3781 170.778 71.207 170.91 71.0754C142.618 44.1653 136.728 38.5595 129.968 26.5059L129.546 26.8085C137.347 40.6123 147.48 50.4947 170.488 71.5491V71.5228Z" fill="#73A6C8"/>
<path d="M169.5 74.4573C169.5 74.2072 169.5 73.8783 169.5 73.6282C135.384 68.1015 119.808 65.5749 95.7064 60.6008C95.6009 60.8377 95.4428 61.1403 95.3242 61.364C120.111 66.4303 134.567 68.7857 169.487 74.5231L169.5 74.4573Z" fill="#73A6C8"/>
<path d="M181.754 190.217C181.983 190.298 182.207 190.39 182.426 190.493C190.508 173.908 197.722 156.914 204.037 139.581C203.724 139.474 203.42 139.342 203.128 139.187C196.539 156.517 192.929 166.057 181.636 190.178H181.754V190.217Z" fill="#73A6C8"/>
<path d="M202.562 128.238C202.76 128.146 203.01 128.015 203.208 127.936C197.146 115.04 194.115 108.566 177.854 79.4841C177.683 79.5762 177.459 79.6684 177.274 79.7473C197.976 118.816 197.976 118.816 202.562 128.238Z" fill="#73A6C8"/>
<path d="M88.9463 131.883C89.0253 132.002 89.1044 132.173 89.1835 132.291C116.21 113.974 143.817 96.525 170.884 78.2076C170.712 77.9971 170.488 77.7076 170.33 77.4839C143.145 95.5907 115.235 112.487 88.8936 131.778C88.8959 131.813 88.8959 131.848 88.8936 131.883H88.9463Z" fill="#73A6C8"/>
<path d="M89.7891 135.186C89.7891 135.357 89.7891 135.607 89.7891 135.778C103.256 135.962 103.256 135.962 199.966 134.278C199.966 133.962 199.966 133.554 199.966 133.252C163.253 133.883 126.554 134.423 89.855 135.107V135.186H89.7891Z" fill="#73A6C8"/>
<path d="M117.896 298.608L118.371 298.871C121.415 292.292 128.979 285.962 158.654 272.961C158.552 272.772 158.468 272.574 158.404 272.369C135.449 282.554 120.664 290.489 117.817 298.568H117.896V298.608Z" fill="#73A6C8"/>
<path d="M159.919 303.871H160.236C161.303 299.411 162.871 292.66 162.871 274.816C162.643 274.836 162.414 274.836 162.186 274.816C162.186 283.12 162.186 295.66 159.906 303.845L159.919 303.871Z" fill="#73A6C8"/>
<path d="M151.631 310.885C141.089 309.569 130.798 305.227 121.731 301.385C131.125 306.129 141.22 309.336 151.631 310.885Z" fill="#73A6C8"/>
<path d="M152.554 310.938H152.87C152.224 310.85 151.607 310.616 151.065 310.254C151.487 309.385 151.75 308.819 157.799 306.306C157.792 306.232 157.792 306.157 157.799 306.082C156.056 306.772 154.35 307.55 152.686 308.411C151.975 308.821 151.349 309.361 150.841 310.004C151.236 310.688 151.249 310.701 152.528 310.872L152.554 310.938Z" fill="#73A6C8"/>
<path d="M157.917 305.477L157.996 305.279C145.359 303.174 132.616 301.753 119.939 299.897C120.44 300.253 120.44 300.253 124.921 300.911C135.911 302.529 146.927 303.845 157.864 305.477H157.917Z" fill="#73A6C8"/>
<path d="M95.3901 56.061C95.5007 56.1518 95.6023 56.2532 95.6932 56.3637C107.171 44.7706 112.402 39.4807 125.619 27.2165C125.491 27.138 125.375 27.0404 125.277 26.927C115.407 36.1383 106.934 44.0337 95.3242 56.0216L95.3901 56.061Z" fill="#73A6C8"/>
<path d="M158.708 269.145L158.984 268.698C128.162 250.538 95.9171 234.879 65.7011 215.654C65.7011 215.811 65.7011 216.022 65.6221 216.18C76.2563 223.246 78.7995 224.931 93.2157 233.129C114.866 245.459 137.031 256.815 158.708 269.145Z" fill="#73A6C8"/>
<path d="M163.188 266.895H163.557C170.383 242.445 177.947 205.771 178.79 201.666C178.471 201.652 178.154 201.612 177.841 201.547C174.297 218.733 171.964 230.089 163.096 266.855L163.188 266.895Z" fill="#73A6C8"/>
<path d="M174.125 193.178L174.652 192.309C111.229 154.24 111.229 154.24 89.1438 138.529C89.0121 138.805 88.8144 139.16 88.6562 139.423C109.74 154.214 109.74 154.214 174.125 193.178Z" fill="#73A6C8"/>
<path d="M65.1206 212.048C65.1206 212.219 65.2524 212.443 65.3183 212.627C136.701 202.1 136.701 202.1 173.558 197.139C173.558 196.849 173.492 196.455 173.479 196.165C123.918 202.745 94.0056 206.692 65.0811 211.956V212.074L65.1206 212.048Z" fill="#73A6C8"/>
<path d="M157.429 2.56975L157.627 2.67502L157.442 1.1749L156.349 0.306396H156.164L157.284 1.18806C157.284 1.60915 157.363 2.16182 157.403 2.58291L157.429 2.56975Z" fill="#73A6C8"/>
<path d="M126.396 6.12263L125.961 6.33317C154.385 0.793225 154.385 0.793224 155.558 0.266864V0.148438H155.347V0.293187C154.846 0.503732 154.846 0.503732 126.475 6.12263H126.409H126.396Z" fill="#73A6C8"/>
<path d="M131.786 21.9792C131.786 22.0582 131.865 22.1766 131.905 22.2687C148.297 11.7415 152.751 8.33333 156.533 4.62249L156.323 4.45142C152.712 7.80696 150.524 9.83345 131.76 21.9397L131.786 21.9792Z" fill="#73A6C8"/>
<path d="M126.567 22.7687L127.068 22.3213C123.312 17.7683 119.412 13.11 123.312 7.5437C122.588 7.84636 120.281 9.30701 121.52 15.1101C121.889 16.8076 123.589 19.3868 126.567 22.7687Z" fill="#73A6C8"/>
<path d="M125.817 6.39909L125.355 6.62279C133.157 5.92536 155.73 3.84623 155.927 3.83308C155.921 3.75862 155.921 3.68383 155.927 3.60938C145.939 4.51735 135.937 5.37268 125.948 6.37276H125.883L125.817 6.39909Z" fill="#73A6C8"/>
<path d="M114.3 297.384C102.111 287.383 79.4058 268.763 63.1448 218.68H62.7363C69.9839 241.458 83.2141 274.409 114.3 297.345V297.384Z" fill="#73A6C8"/>
<path d="M21.6221 161.004C21.6221 161.228 21.7011 161.544 21.7407 161.78C38.7791 152.819 50.0327 147.858 79.2999 137.91C79.2208 137.476 79.2076 137.384 79.1549 136.91C50.7047 146.582 37.7908 151.951 21.5957 160.872V161.004H21.6221Z" fill="#73A6C8"/>
<path d="M61.4448 207.85L61.8269 208.035C66.584 183.782 69.5753 171.781 82.2125 141.595C81.941 141.475 81.677 141.338 81.4218 141.187C68.5079 172.031 64.9368 186.085 61.3525 207.811H61.4448V207.85Z" fill="#73A6C8"/>
<path d="M83.7411 129.686L84.4 129.581C84.6635 101.302 85.2565 89.235 90.8306 64.8645C90.591 64.909 90.349 64.9397 90.1058 64.9566C85.3619 85.7347 83.4249 99.328 83.7411 129.686Z" fill="#73A6C8"/>
<path d="M79.893 132.817C80.0353 132.508 80.2074 132.212 80.4069 131.936C64.3699 118.869 51.311 107.605 41.362 91.5508C41.1946 91.8213 41.0097 92.0806 40.8086 92.3272C48.188 103.591 55.3038 113.092 79.893 132.817Z" fill="#73A6C8"/>
<path d="M128.716 308.109C128.959 308.13 129.198 308.183 129.427 308.267C124.473 306.569 120.546 305.227 118.582 301.016L117.91 300.7C119.452 303.464 120.546 305.477 128.623 308.082H128.716V308.109Z" fill="#73A6C8"/>
<path d="M114.009 297.832C96.8785 287.962 86.3365 281.58 66.5703 265.171V265.447C81.1324 277.965 97.0431 288.826 114.009 297.832Z" fill="#73A6C8"/>
<path d="M60.8515 257.789L61.339 258.078C58.216 244.288 57.3858 237.261 60.5088 218.101C60.2563 217.956 60.0142 217.793 59.7841 217.614C57.2277 234.274 56.9905 242.84 60.7592 257.736H60.8515V257.789Z" fill="#73A6C8"/>
<path d="M56.8716 209.693C56.928 209.503 56.9985 209.319 57.0825 209.14C42.6927 194.731 32.3088 184.322 21.5033 167.031C21.3979 167.347 21.3979 167.347 21.2529 167.715C28.2633 178.453 35.5241 189.559 56.9112 209.719L56.8716 209.693Z" fill="#73A6C8"/>
<path d="M125.646 5.55672L126.252 5.3725C129.296 4.30662 133.249 2.58278 136.372 1.76692C139.445 1.10458 142.556 0.638683 145.688 0.37207C134.184 1.2932 127.754 4.504 125.646 5.55672Z" fill="#73A6C8"/>
<path d="M91.9766 55.8769L92.5168 55.7058C95.7058 40.6124 99.659 21.8214 120.888 8.41235C120.677 8.41235 98.5785 16.8473 91.9766 55.8769Z" fill="#73A6C8"/>
<path d="M91.3708 15.3866L90.791 15.7024C98.5657 13.2417 104.72 11.3073 121.099 7.39912L121.692 7.10962C105.51 10.9257 99.4618 12.768 91.384 15.334H91.3049L91.3708 15.3866Z" fill="#73A6C8"/>
<path d="M43.312 86.169C43.312 86.3532 43.312 86.5901 43.2461 86.7743C57.4983 78.0264 72.1835 70.0024 87.2457 62.7328C87.2324 62.4917 87.2324 62.2501 87.2457 62.009C72.1776 69.2354 57.5117 77.2697 43.312 86.0769V86.169Z" fill="#73A6C8"/>
<path d="M89.1175 57.9823C89.3147 57.7503 89.526 57.5306 89.75 57.3244C77.271 42.152 72.8302 30.809 87.1145 17.6763C84.0663 19.6358 81.5868 22.3602 79.9241 25.5771C78.2614 28.794 77.4737 32.3905 77.6399 36.0068C78.0748 44.7443 85.0062 53.0345 89.1439 57.9823H89.1175Z" fill="#73A6C8"/>
<path d="M23.4014 71.3912C25.9051 67.8515 29.2654 63.1011 31.9667 59.7061L32.2434 59.3113C29.8583 62.4431 26.643 66.5751 24.4292 69.8385C24.0734 70.3648 23.7308 70.8781 23.4014 71.4044V71.3912Z" fill="#73A6C8"/>
<path d="M34.958 55.7452V55.8373C35.1688 55.5872 35.3797 55.3241 35.6037 55.074V54.9819L34.958 55.7452Z" fill="#73A6C8"/>
<path d="M125.908 307.517C110.794 302.832 87.9703 295.752 65.5159 265.934L65.0283 265.829C77.9027 281.975 93.2017 298.49 125.882 307.517H125.908Z" fill="#73A6C8"/>
<path d="M126.593 307.806C105.167 301.832 100.08 300.411 81.79 291.37C81.8955 291.449 96.3907 300.582 126.593 307.806Z" fill="#73A6C8"/>
<path d="M4.51758 112.987C7.23214 106.947 11.4621 101.144 35.8009 90.8404C35.8931 90.4587 35.9195 90.3535 36.0381 89.9456C18.3276 97.5646 8.10184 103.341 4.80747 111.961C4.70205 112.303 4.60982 112.645 4.51758 112.987Z" fill="#73A6C8"/>
<path d="M19.0923 156.78L19.3953 156.899C21.9386 138.792 24.3369 121.685 37.0004 94.4064L36.5392 94.2222C29.7792 109.618 22.1099 127.12 19.0264 156.767L19.0923 156.78Z" fill="#73A6C8"/>
<path d="M37.3565 87.0374C37.5272 86.7564 37.7119 86.4841 37.91 86.2216C32.3095 77.2208 28.5144 69.378 34.5629 57.2717C32.3227 59.9035 25.9316 69.707 37.3565 87.0374Z" fill="#73A6C8"/>
<path d="M39.9648 84.1556L40.5578 83.8398C44.3661 67.8648 50.7308 41.1125 84.5311 18.8738C84.2016 19.0054 50.0588 35.9015 39.9648 84.1556Z" fill="#73A6C8"/>
<path d="M58.559 257.368C45.1311 238.313 26.7354 212.219 19.8963 169.202L19.4746 169.347C22.5845 185.94 29.0414 220.443 58.559 257.315V257.368Z" fill="#73A6C8"/>
<path d="M74.7275 286.91L75.281 287.225C66.7683 278.711 64.5545 274.711 62.8283 264.644C62.5779 264.447 62.433 264.342 62.1299 264.079C63.8693 273.882 65.7273 278.067 74.6485 286.87H74.7275V286.91Z" fill="#73A6C8"/>
<path d="M8.59014 210.364C15.93 226.352 26.0635 238.932 58.5064 259.565C58.4273 259.407 58.401 259.144 58.2824 259.026C56.3321 257.078 52.8928 255.525 50.5867 254.038C19.0926 233.655 11.7264 217.193 8.18164 209.298C8.31342 209.679 8.45836 210.048 8.59014 210.416V210.364Z" fill="#73A6C8"/>
<path d="M0.0112346 134.41C-0.0678302 140.542 -0.160064 148.187 15.956 161.438C15.956 161.017 15.956 160.886 16.0614 160.438C6.71857 152.28 -0.93754 144.648 0.169368 133.318L0.0112346 134.41Z" fill="#73A6C8"/>
<path d="M3.46346 194.178C2.54104 187.598 1.50002 180.032 16.3247 165.899C16.2324 165.491 16.2061 165.36 16.127 164.912C9.22202 171.834 0.630309 180.453 3.19992 193.112C3.27898 193.467 3.37122 193.823 3.46346 194.178Z" fill="#73A6C8"/>
<path d="M154.306 311.017H153.067C153.287 311.03 153.507 311.03 153.726 311.017H154.306Z" fill="#73A6C8"/>
<path d="M153.16 310.991C150.972 310.899 144.555 310.491 132.379 308.859C133.855 309.148 145.28 310.635 153.16 310.991Z" fill="#73A6C8"/>
<path d="M102.73 302.24C107.816 303.898 114.141 305.951 129.361 308.451C106.722 303.621 106.722 303.621 101.688 301.871C102.018 301.99 102.347 302.121 102.69 302.227L102.73 302.24Z" fill="#73A6C8"/>
<path d="M146.215 310.806C141.499 310.653 136.809 310.049 132.208 309.004L131.312 308.846C133.341 309.385 136.398 310.162 145.148 310.754H146.215V310.806Z" fill="#73A6C8"/>
<path d="M18.7363 231.958C26.2211 243.959 40.1497 266.303 72.6717 286.291C70.3261 283.765 66.0039 281.791 63.1312 279.883C44.3894 266.842 28.8322 249.75 17.6162 229.878C17.9852 230.563 18.3541 231.194 18.7363 231.905V231.958Z" fill="#73A6C8"/>
<path d="M89.1175 296.726C84.5185 294.41 81.9884 293.12 78.9444 290.41L78.1143 289.936C81.1251 292.529 84.5046 294.662 88.1423 296.266L89.1175 296.726Z" fill="#73A6C8"/>
<path d="M55.9498 275.988C61.7039 280.513 67.913 284.429 74.4773 287.673C74.2533 287.515 74.0425 287.344 73.8184 287.199C72.0395 286.067 69.5094 284.857 67.6646 283.857C63.2311 281.339 59.0132 278.461 55.0537 275.251L55.9498 275.988Z" fill="#73A6C8"/>
<path d="M150.34 0.0695365C149.75 0.0664544 149.161 0.097209 148.574 0.161649C150.577 0.0563771 150.577 0.0563719 151.394 0.0432129H150.34V0.0695365Z" fill="#73A6C8"/>
<path d="M120.848 3.63547C108.211 6.76731 101.543 8.78063 90.7246 14.9259C94.9019 13.0442 98.7629 10.5308 103.072 8.95171C109.233 6.5576 115.585 4.68677 122.061 3.35913L120.743 3.63547H120.848Z" fill="#73A6C8"/>
<path d="M93.5575 14.0706C93.4837 14.1306 93.4043 14.1835 93.3203 14.2285C106.498 8.83326 121.428 2.72749 144.146 0.477295H144.554C131.864 2.03006 117.475 3.7802 93.5839 14.0837L93.5575 14.0706Z" fill="#73A6C8"/>
<path d="M89.2621 14.2416C88.6888 14.5059 88.1772 14.8869 87.7599 15.3602C87.6018 15.597 87.7599 16.0576 87.8785 16.3208L88.735 15.8734C88.6597 15.6942 88.6208 15.5018 88.6208 15.3075C88.6208 15.1132 88.6597 14.9208 88.735 14.7417C89.1295 14.3386 89.6057 14.0245 90.1318 13.8206L89.2094 14.2416H89.2621Z" fill="#73A6C8"/>
<path d="M41.4279 48.5078L37.5801 52.8239C38.3839 51.9554 38.3839 51.9554 42.3371 47.5603L41.4279 48.5078Z" fill="#73A6C8"/>
<path d="M39.2011 51.508L39.043 51.7185C49.0315 42.0466 60.3378 31.0852 83.6092 18.8999L83.8859 18.6631C71.6045 25.44 56.3186 33.8749 39.2275 51.4685L39.2011 51.508Z" fill="#73A6C8"/>
<path d="M266.407 49.8105C268.924 52.5476 270.584 54.0872 270.967 54.0345C271.177 53.2318 264.088 45.5864 262.889 45.3364C262.796 45.6128 263.996 47.1129 266.46 49.7973L266.407 49.8105Z" fill="#73A6C8"/>
<path d="M261.149 266.131C257.604 269.737 257.789 270.079 257.934 270.079C258.896 270.079 266.829 262.25 266.328 261.723C266.077 261.723 265.076 262.25 261.202 266.184L261.149 266.131Z" fill="#73A6C8"/>
<path d="M204.617 301.977C199.913 303.727 199.913 303.727 199.755 303.819C200.651 303.937 209.941 300.437 210.837 299.792C210.468 299.792 210.468 299.792 204.617 302.016V301.977Z" fill="#73A6C8"/>
<path d="M191.73 5.05684C197.594 6.6754 197.594 6.6754 197.713 6.6754C197.291 6.20168 187.896 3.7541 186.288 3.59619C186.828 3.77657 187.378 3.92596 187.935 4.0436L191.73 5.05684Z" fill="#73A6C8"/>
<path d="M297.176 124.277C298.178 128.607 299.812 130.449 300.708 129.199C302.025 127.278 300.102 117.672 297.677 117.487C296.214 117.711 296.504 121.277 297.176 124.277Z" fill="#73A6C8"/>
<path d="M229.325 282.672C226.69 284.923 226.387 285.804 226.993 285.87C228.917 286.081 236.744 280.067 235.822 279.093C235.773 279.051 235.717 279.019 235.656 278.998C235.595 278.978 235.53 278.97 235.466 278.975C234.28 278.975 231.934 280.435 229.325 282.672Z" fill="#73A6C8"/>
<path d="M282.26 178.572C281.957 183.23 284.223 184.98 286.279 183.151C289.178 180.519 289.731 171.716 286.2 171.505C284.171 171.571 282.51 174.545 282.247 178.572H282.26Z" fill="#73A6C8"/>
<path d="M255.667 80.1026C257.868 85.3662 262.032 86.6821 262.928 84.2214C263.824 81.7607 260.516 75.089 256.734 74.918C254.837 74.918 254.389 77.076 255.667 80.1026Z" fill="#73A6C8"/>
<path d="M248.209 231.484C246.733 235.563 248.71 237.274 251.411 236.024C255.364 234.181 257.789 227.115 254.837 226.075C254.581 225.979 254.307 225.934 254.033 225.944C251.714 226.036 249.369 228.273 248.209 231.484Z" fill="#73A6C8"/>
<path d="M195.854 12.4258C199.663 14.7154 201.494 14.9128 201.455 14.3865C201.363 13.3074 195.222 10.0308 193.127 9.93872C192.889 9.93872 192.494 9.93871 193.39 10.7546C194.175 11.3635 194.998 11.9217 195.854 12.4258Z" fill="#73A6C8"/>
<path d="M167.866 309.675C166.68 309.912 165.468 310.017 164.295 310.346C167.221 310.083 170.116 309.541 172.939 308.727C172.834 308.727 172.834 308.727 167.919 309.701L167.866 309.675Z" fill="#73A6C8"/>
<path d="M190.412 296.621C188.778 298.016 188.343 298.924 189.266 298.976C191.585 299.108 197.396 295.029 196.329 294.055C196.16 293.926 195.947 293.869 195.736 293.897C193.745 294.255 191.908 295.205 190.465 296.621H190.412Z" fill="#73A6C8"/>
<path d="M199.901 133.752C200.243 140.055 206.871 141.397 209.823 138.213C212.459 135.331 211.721 127.883 205.316 127.528C201.89 127.607 199.716 130.159 199.901 133.752Z" fill="#73A6C8"/>
<path d="M155.162 0.0825635C155.452 0.0825635 155.716 0.17468 156.032 0.240475C156.29 0.330349 156.563 0.370531 156.836 0.358901C156.022 0.0854095 155.163 -0.0306986 154.306 0.0167745C154.591 -0.00591701 154.877 -0.00591701 155.162 0.0167745V0.0825635Z" fill="#73A6C8"/>
<path d="M173.453 195.889C173.295 201.889 179.949 203.179 183.323 200.179C186.696 197.178 185.958 190.336 180.16 189.901H179.673C175.192 190.138 173.519 193.152 173.453 195.902V195.889Z" fill="#73A6C8"/>
<path d="M169.5 75.2731C170.172 80.5367 176.734 81.3263 179.119 78.4445C181.162 75.9706 179.91 70.1016 174.309 69.8648C173.611 69.8124 172.911 69.9221 172.262 70.1854C171.614 70.4486 171.035 70.8583 170.572 71.3822C170.109 71.906 169.773 72.53 169.592 73.205C169.41 73.8801 169.388 74.5879 169.526 75.2731H169.5Z" fill="#73A6C8"/>
<path d="M157.851 305.648C157.456 307.069 158.695 307.424 159.96 306.714C161.225 306.003 162.121 304.319 160.777 303.924C160.614 303.876 160.446 303.85 160.276 303.845C159.732 303.847 159.203 304.023 158.766 304.348C158.33 304.672 158.009 305.128 157.851 305.648Z" fill="#73A6C8"/>
<path d="M155.861 3.59612C155.964 4.01091 156.205 4.3782 156.545 4.63679C156.886 4.89539 157.305 5.02968 157.732 5.0173C159.05 5.0173 159.05 3.89878 158.115 3.04345C157.733 2.66296 157.229 2.42984 156.691 2.3855C155.624 2.3855 155.835 3.47769 155.861 3.59612Z" fill="#73A6C8"/>
<path d="M158.233 271.145C158.233 275.014 162.964 276.014 165.455 273.514C167.721 271.237 167.128 266.934 162.819 266.934C159.433 267.105 158.233 269.25 158.233 271.198V271.145Z" fill="#73A6C8"/>
<path d="M125.224 24.7031C124.104 27.335 126.397 28.0587 128.492 27.335C131.378 26.2691 133.104 22.3345 131.127 21.3871C130.814 21.2584 130.478 21.1914 130.139 21.1897C129.082 21.2971 128.073 21.6842 127.216 22.3111C126.359 22.9379 125.685 23.7819 125.263 24.7558L125.224 24.7031Z" fill="#73A6C8"/>
<path d="M153.594 311.004H154.306C153.424 311.004 152.544 310.947 151.67 310.833H151.156C151.959 310.955 152.769 311.021 153.581 311.03L153.594 311.004Z" fill="#73A6C8"/>
<path d="M79.1416 135.884C78.878 141.884 84.6103 143.384 87.7201 140.529C90.83 137.673 91.0277 129.923 84.8211 129.567C82.1856 129.567 79.3393 131.581 79.1416 135.884Z" fill="#73A6C8"/>
<path d="M87.6545 60.43C86.0864 64.4829 89.2094 65.7725 92.0557 64.4698C95.9036 62.7196 97.7352 56.8376 94.7703 55.7322C94.4205 55.6029 94.0495 55.5404 93.6766 55.548C92.309 55.6975 91.0137 56.2375 89.9456 57.1034C88.8775 57.9693 88.0821 59.1242 87.6545 60.43Z" fill="#73A6C8"/>
<path d="M116.474 299.884C119.228 301.529 122.008 302.345 121.89 301.661C121.732 300.766 116.553 297.384 114.497 297.371C113.838 297.371 113.812 297.766 114.418 298.384C115.052 298.951 115.741 299.454 116.474 299.884Z" fill="#73A6C8"/>
<path d="M57.228 213.903C58.9938 218.904 64.0276 220.154 65.398 216.943C66.5972 214.127 64.4229 207.6 59.7712 207.482C56.5427 207.666 56.187 210.943 57.228 213.903Z" fill="#73A6C8"/>
<path d="M122.548 6.76741C120.242 7.7675 119.438 8.45177 119.913 8.5702C120.783 8.82022 128.136 5.70153 128.109 5.08306C128.057 5.0755 128.004 5.0755 127.951 5.08306C126.085 5.40835 124.269 5.97455 122.548 6.76741Z" fill="#73A6C8"/>
<path d="M60.1265 262.052C63.0255 265.579 66.399 266.947 66.6098 265.25C66.8338 263.25 62.2085 257.354 59.1118 257.262C57.7941 257.262 57.6096 258.973 60.1265 262.052Z" fill="#73A6C8"/>
<path d="M36.3278 89.1034C34.6938 93.3406 36.2092 95.3144 38.6075 94.1827C42.2445 92.4721 44.9063 84.6161 42.1654 83.6555C41.9906 83.6008 41.8083 83.5741 41.6251 83.5766C39.7407 83.5766 37.5665 85.8926 36.3541 89.077L36.3278 89.1034Z" fill="#73A6C8"/>
<path d="M148.811 0.187985C146.057 0.319575 144.054 0.516961 143.725 0.569597C147.243 0.451166 150.761 0.0563965 154.267 0.0563965C152.435 0.0563965 150.59 0.0563945 148.798 0.187985H148.811Z" fill="#73A6C8"/>
<path d="M130.666 308.714C133.499 309.28 136.121 309.648 136.411 309.648C136.411 309.648 126.37 307.543 125.869 307.517C127.453 308.037 129.074 308.438 130.718 308.714H130.666Z" fill="#73A6C8"/>
<path d="M15.9561 163.36C16.2723 168.873 18.9869 170.545 20.5813 168.715C22.861 166.084 22.0045 156.872 18.6442 156.754C16.5359 156.899 15.7716 160.175 16.0088 163.333L15.9561 163.36Z" fill="#73A6C8"/>
<path d="M87.378 16.5708C85.6123 17.5182 83.5302 18.742 83.4248 19.2026C83.886 19.5315 93.3606 14.6627 93.7691 13.939H93.7032C91.4952 14.6415 89.3665 15.5721 87.3517 16.7155L87.378 16.5708Z" fill="#73A6C8"/>
<path d="M76.8091 289.16C79.2337 290.647 82.08 292.134 82.4622 291.989C82.304 291.397 73.5278 286.015 72.4737 285.87H72.4078C72.3024 286.212 74.6084 287.818 76.8091 289.147V289.16Z" fill="#73A6C8"/>
<path d="M35.1815 55.5873C33.8971 57.0054 32.7459 58.5383 31.7422 60.1666C34.5684 57.3696 37.1394 54.3266 39.4246 51.0737C37.8902 52.4617 36.4752 53.9759 35.1947 55.6004L35.1815 55.5873Z" fill="#73A6C8"/>
<path d="M6.94226 116.171L6.67871 116.606C9.78859 98.9069 12.0288 90.4193 23.4009 71.3914C23.7304 70.865 24.073 70.3518 24.4288 69.8254C13.4124 88.077 10.4738 95.8671 6.98179 116.106L6.94226 116.171Z" fill="#73A6C8"/>
<path d="M34.958 55.7453L35.6037 54.9821C36.4075 54.7057 37.3958 54.3636 51.1663 53.7583L50.5997 54.5084C42.8118 54.8637 35.7487 55.2321 34.958 55.7453Z" fill="#73A6C8"/>
<path d="M5.54562 119.566L5.30842 120.435C3.99067 116.632 3.8589 116.053 4.51778 112.987C4.61002 112.645 4.70225 112.303 4.80767 111.96C4.33328 115.684 4.25422 116.263 5.58515 119.448V119.566H5.54562Z" fill="#73A6C8"/>
<path d="M8.58975 210.364C8.45797 209.995 8.31302 209.627 8.18125 209.245C7.60144 207.245 6.69219 204.6 6.27051 202.56C7.19293 205.113 7.65415 207.824 8.58975 210.364Z" fill="#73A6C8"/>
<path d="M0.0107422 134.41L0.168875 133.318C1.6184 127.883 1.737 127.436 4.75464 123.001C4.74401 123.325 4.69984 123.647 4.62286 123.962C3.86958 125.385 3.01526 126.753 2.06643 128.054C1.0429 130.048 0.348719 132.195 0.0107422 134.41Z" fill="#73A6C8"/>
<path d="M4.68925 197.297C4.76831 197.573 4.83419 197.836 4.90008 198.112C4.4784 196.928 3.8986 195.362 3.46374 194.165C3.3715 193.809 3.27926 193.454 3.2002 193.099L4.6629 197.165V197.283L4.68925 197.297Z" fill="#73A6C8"/>
<path d="M102.73 302.24C102.387 302.134 102.058 302.003 101.728 301.884C100.489 301.411 98.8422 300.779 97.6299 300.253C99.3298 300.911 101.003 301.634 102.73 302.24Z" fill="#73A6C8"/>
<path d="M152.896 311.004H153.792C150.603 311.004 149.746 311.004 146.215 310.793H145.147C148.495 310.951 149.193 310.991 152.777 311.043L152.896 311.004Z" fill="#73A6C8"/>
<path d="M18.7363 231.958C18.3542 231.287 17.9852 230.642 17.6163 229.931C11.3701 217.312 10.7244 215.996 7.20605 204.837C7.20605 204.929 7.32466 205.047 7.36419 205.14C8.68193 208.153 9.82838 212.377 10.8958 215.469C12.6615 220.654 16.1667 227.115 18.8022 231.958H18.7363Z" fill="#73A6C8"/>
<path d="M93.9792 298.74L94.7435 299.069C93.0436 298.384 90.7903 297.476 89.1167 296.726L88.1416 296.266C89.8547 297.016 92.0948 298.016 93.887 298.7H93.9792V298.74Z" fill="#73A6C8"/>
<path d="M55.9494 275.987L55.0533 275.251C49.6638 270.329 46.9492 267.855 43.7734 262.092C43.9843 262.302 44.2346 262.499 44.4323 262.723C45.4563 264.097 46.3852 265.539 47.2128 267.039C47.305 267.184 49.5847 270.645 55.9494 275.948V275.987Z" fill="#73A6C8"/>
<path d="M120.849 3.63565L122.166 3.35931C130.926 1.56025 139.821 0.499409 148.759 0.187988C139.371 0.555778 130.033 1.73128 120.849 3.70144V3.63565Z" fill="#73A6C8"/>
<path d="M89.2617 14.2417L90.1841 13.8206C91.9895 13.1232 94.4536 12.1889 103.836 10.7151C103.575 10.862 103.302 10.9853 103.019 11.0835C102.025 11.3173 101.017 11.4843 100.001 11.5836C99.2107 11.7152 92.2135 12.8995 89.2617 14.2154V14.2417Z" fill="#73A6C8"/>
<path d="M41.4277 48.5078L42.337 47.5603C49.8613 40.415 65.5425 25.519 101.161 12.031C98.3521 13.3914 95.4657 14.5865 92.5168 15.6103C84.3381 19.0356 76.3927 22.9917 68.7315 27.4534C54.368 36.2304 47.6475 41.9283 41.4277 48.5078Z" fill="#73A6C8"/>
<path d="M108.673 8.85979L108.225 9.00454C119.663 4.33309 127.095 1.60919 146.953 0.201172H147.546C134.171 1.30653 124.499 2.09606 108.752 8.87295L108.673 8.85979Z" fill="#73A6C8"/>
<path d="M105.893 10.7152C106.736 10.3205 107.21 10.1362 132.432 9.09668C132.313 9.18879 132.287 9.35987 132.103 9.37303C123.379 9.91255 114.629 10.1626 105.893 10.6889V10.7152Z" fill="#73A6C8"/>
<path d="M148.587 310.912H148.824C134.962 309.859 121.863 308.859 102.216 301.871L102.005 301.779C115.406 306.043 128.057 310.083 148.561 310.898L148.587 310.912Z" fill="#73A6C8"/>
<path d="M91.5288 297.502C74.3358 289.703 58.9667 278.399 46.4092 264.315C49.44 265.908 52.0228 269.974 54.4211 272.421C65.2979 282.796 77.8414 291.274 91.5288 297.502Z" fill="#73A6C8"/>
<path d="M96.5227 299.555C95.429 299.095 95.205 299.029 94.7833 298.384C94.4965 297.877 94.381 297.291 94.4539 296.713C94.5856 295.831 96.101 294.884 97.3266 294.081L98.0645 294.516C96.3251 295.634 95.6003 296.095 95.284 297.147C94.9678 298.2 95.6662 298.713 96.5227 299.503V299.555Z" fill="#73A6C8"/>
<path d="M4.57074 194.125C1.60581 178.795 -2.01799 159.715 4.74205 127.264C1.50039 146.213 -1.56996 164.11 4.57074 194.125Z" fill="#73A6C8"/>
<path d="M8.3125 116.632C8.3125 116.474 15.4151 91.5114 49.1627 57.7454V58.048C33.0334 74.9574 19.7901 89.9981 8.3125 116.632Z" fill="#73A6C8"/>
<path d="M52.7471 128.699C52.6947 128.942 52.6551 129.188 52.6285 129.436C45.2227 128.738 20.0933 126.159 7.56152 122.461C7.64059 122.132 7.70647 121.803 7.78554 121.488C15.7974 123.711 25.7201 125.58 52.7734 128.633V128.738L52.7471 128.699Z" fill="#73A6C8"/>
<path d="M94.3879 291.871L94.5592 292.055C85.1373 287.581 65.5687 278.304 46.7645 263.381L46.3955 262.842C61.2041 274.319 77.3012 284.035 94.3615 291.792L94.3879 291.871Z" fill="#73A6C8"/>
<path d="M93.9402 261.289L94.2037 261.815C74.7933 261.815 44.8409 260.657 44.6037 260.644L43.958 259.907C49.1236 260.144 57.7548 260.552 93.927 261.223L93.9402 261.289Z" fill="#73A6C8"/>
<path d="M39.0431 255.854C29.9902 245.327 17.5902 230.852 7.8916 205.442V205.192C13.5316 218.549 20.5288 235.168 39.03 255.828L39.0431 255.854Z" fill="#73A6C8"/>
<path d="M42.4949 258.315C42.3236 258.157 28.4477 240.524 70.4443 206.1C70.5629 206.311 70.721 206.561 70.8396 206.758C55.3298 220.786 36.0248 238.234 42.4949 258.315Z" fill="#73A6C8"/>
<path d="M5.88875 197.27C5.80969 197.02 -1.76736 172.637 52.6951 132.173C52.6951 132.383 52.8137 132.66 52.8796 132.87C33.2979 148.437 6.48174 169.716 5.88875 197.27Z" fill="#73A6C8"/>
<path d="M69.5093 203.087C69.5093 203.271 69.5093 203.534 69.6148 203.718C47.6743 203.481 14.019 201.587 6.86364 200.429L6.58691 199.442C12.4377 200.297 22.1231 201.284 69.4962 203.008V203.087H69.5093Z" fill="#73A6C8"/>
<path d="M275.012 253.644C277.133 250.13 278.965 247.064 276.764 241.695L277.344 240.893C278.425 244.59 279.36 247.775 275.671 252.828L275.012 253.644Z" fill="#73A6C8"/>
<path d="M150.313 310.964C119.452 310.096 106.59 300.437 100.41 295.779C100.568 295.845 100.779 295.91 100.924 295.989C102.675 297.13 104.36 298.369 105.971 299.7C109.71 302.244 113.81 304.213 118.134 305.543C130.679 309.359 134.593 310.017 150.313 310.964Z" fill="#73A6C8"/>
<path d="M154.78 311.017C162.18 310.646 169.551 309.829 176.853 308.569C169.549 309.809 162.179 310.627 154.78 311.017Z" fill="#73A6C8"/>
<path d="M55.5147 124.198C55.3302 124.317 55.0799 124.514 54.8954 124.659C50.0724 108.868 42.7721 84.9713 51.4429 58.1269L52.0754 57.719C46.8044 76.918 45.6184 93.9326 55.607 124.133L55.5147 124.198Z" fill="#73A6C8"/>
<path d="M56.6874 49.6132H56.4238C65.3054 38.8491 76.3745 25.4532 100.107 12.9653H100.344C87.918 20.0054 73.8444 27.9798 56.6874 49.6263V49.6132Z" fill="#73A6C8"/>
<path d="M98.8293 46.6788C98.658 46.8104 98.4998 46.9551 98.3417 47.0999C94.0063 39.3097 85.9417 24.8348 102.479 12.2548L103.217 11.9521C97.0503 17.0973 86.706 25.7165 98.9083 46.613H98.8293V46.6788Z" fill="#73A6C8"/>
<path d="M55.5801 54.1398C55.725 53.9555 55.8568 53.7581 55.9886 53.5739C61.8526 52.7449 67.4003 51.9685 96.5357 49.6262C96.4193 49.8608 96.3181 50.1025 96.2326 50.35C74.0417 52.1396 66.8073 52.8897 55.5801 54.1529V54.1398Z" fill="#73A6C8"/>
<path d="M97.4712 292.16C97.379 292.16 88.023 285.172 96.1535 264.315C96.3721 264.503 96.6009 264.679 96.8387 264.842C93.1095 274.961 91.291 281.843 97.4712 292.16Z" fill="#73A6C8"/>
<path d="M152.725 310.991H153.015C141.84 310.083 129.612 308.267 103.085 296.16L102.888 295.897C118.701 303.095 134.514 309.648 152.699 310.977L152.725 310.991Z" fill="#73A6C8"/>
<path d="M146.123 308.846L146.321 308.977C123.919 302.911 111.927 298.713 102.295 295.358C102.137 295.213 101.965 295.081 101.794 294.95C111.361 298.318 123.26 302.516 146.097 308.832L146.123 308.846Z" fill="#73A6C8"/>
<path d="M72.4871 197.902L72.1049 197.994C64.5317 177.923 59.5414 156.973 57.2539 135.647L58.0182 135.436C60.4104 156.744 65.2748 177.703 72.5134 197.889L72.4871 197.902Z" fill="#73A6C8"/>
<path d="M59.5602 123.883C59.3403 123.767 59.1111 123.67 58.875 123.593C69.0217 98.749 77.3235 81.9449 97.0106 53.6531L97.3269 53.811C81.2899 78.1157 72.2897 92.2748 59.5602 123.883Z" fill="#73A6C8"/>
<path d="M144.186 142.66L143.725 142.924C107.263 88.2611 102.348 63.0616 100.503 53.574L101.241 53.1924C106.077 75.4837 113.101 92.8405 144.305 142.608H144.186V142.66Z" fill="#73A6C8"/>
<path d="M141.063 146.713C141.063 146.99 140.97 147.358 140.931 147.648C113.904 142.595 87.483 137.542 61.418 131.186C61.4839 130.883 61.5761 130.475 61.6288 130.173C75.3334 133.436 94.0849 137.897 141.102 146.595C141.104 146.634 141.104 146.674 141.102 146.713H141.063Z" fill="#73A6C8"/>
<path d="M103.309 45.4945L102.9 45.3892C108.804 36.6385 117.712 23.4268 131.509 11.3206L131.706 11.3864C124.472 18.2685 116.276 26.0718 103.309 45.4945Z" fill="#73A6C8"/>
<path d="M104.469 48.9946L104.64 48.284C124.591 43.7836 144.647 39.7438 164.611 35.2566C164.611 35.4408 164.743 35.6908 164.808 35.8751C144.713 40.3097 124.538 44.4153 104.469 49.0341V48.9946Z" fill="#73A6C8"/>
<path d="M78.1404 200.757C78.0218 200.56 77.8505 200.31 77.7188 200.126C85.2431 193.165 99.2639 180.216 141.616 151.438C141.735 151.648 141.906 151.924 142.038 152.122C91.8186 188.283 91.8186 188.283 78.1404 200.81V200.757Z" fill="#73A6C8"/>
<path d="M145.925 308.372C140.917 305.543 125.711 296.95 100.792 265.816C100.961 265.762 101.124 265.691 101.28 265.605C108.738 274.738 128.531 298.963 145.938 308.359L145.925 308.372Z" fill="#73A6C8"/>
<path d="M95.706 257.249H95.4029C88.2212 243.88 83.306 233.971 75.6367 209.35C75.8935 209.34 76.1491 209.309 76.401 209.258C82.0014 226.799 85.4012 236.892 95.8378 257.21L95.706 257.249Z" fill="#73A6C8"/>
<path d="M151.75 210.416C151.75 210.548 151.75 210.732 151.75 210.877C145.926 210.561 128.228 209.561 79.2739 204.639C79.2608 204.318 79.2301 203.997 79.1816 203.679C97.6301 205.534 113.575 207.087 151.763 210.258C151.763 210.258 151.763 210.337 151.763 210.377L151.75 210.416Z" fill="#73A6C8"/>
<path d="M148.995 278.712C148.995 278.79 148.995 278.909 148.916 278.988C145.134 277.843 133.657 274.356 102.228 263.513C102.21 263.283 102.175 263.054 102.123 262.829C107.895 264.816 107.895 264.816 149.022 278.619V278.685L148.995 278.712Z" fill="#73A6C8"/>
<path d="M153.173 276.527H152.554C153.028 266.447 153.371 259.17 156.744 216.825C157.064 216.846 157.386 216.846 157.706 216.825C155.505 243.709 154.161 259.934 153.173 276.514V276.527Z" fill="#73A6C8"/>
<path d="M100.213 259.342C100.081 259.197 99.8832 259.013 99.7383 258.881C107.236 249.67 117.488 238.577 152.514 214.246C152.633 214.43 152.804 214.667 152.936 214.838C126.146 234.432 112.705 244.261 100.226 259.342H100.213Z" fill="#73A6C8"/>
<path d="M164.9 32.4802C164.827 32.6032 164.761 32.7307 164.703 32.8618C145.437 21.8872 138.941 17.071 134.5 10.5705L134.961 10.2546C139.731 17.1763 145.978 21.4266 164.94 32.4144V32.4802H164.9Z" fill="#73A6C8"/>
<path d="M133.367 8.45186L133.024 8.68872C130.942 7.08333 125.434 2.84612 140.338 0.793319C143.79 0.332754 147.506 0.174852 149.733 0.0695801H150.709C133.973 0.753848 127.806 3.28037 132.379 7.59652C132.669 7.87286 133.117 8.17553 133.42 8.42555L133.367 8.45186Z" fill="#73A6C8"/>
<path d="M136.648 8.60977C136.648 8.54398 136.727 8.41239 136.807 8.37291C138.203 7.83339 140.14 7.30703 141.564 6.84646C153.687 3.04351 157.021 1.83288 157.377 0.543295C156.886 0.306039 156.361 0.14624 155.822 0.0695801C157.139 0.161693 157.139 0.253803 157.666 0.714369C156.849 2.03027 154.833 2.99088 136.662 8.60977H136.648Z" fill="#73A6C8"/>
<path d="M154.108 311.017C153.199 311.017 150.893 310.82 150.893 310.82C149.871 310.614 148.889 310.25 147.98 309.74C148.547 309.925 148.969 310.385 149.562 310.504C151.062 310.786 152.582 310.958 154.108 311.017Z" fill="#73A6C8"/>
<path d="M248.565 31.8616L248.684 31.9669C248.367 31.7301 248.051 31.4932 247.748 31.2432L248.565 31.8616Z" fill="#73A6C8"/>
<path d="M146.979 308.49C146.979 308.49 139.573 305.477 150.722 283.107C150.905 283.201 151.095 283.285 151.288 283.357C147.335 291.568 142.064 302.806 146.979 308.438V308.49Z" fill="#73A6C8"/>
<path d="M154.82 311.004H154.477C154.848 310.995 155.218 310.96 155.584 310.898V310.78C153.491 310.226 151.359 309.83 149.206 309.596L148.982 309.451C155.031 310.425 155.571 310.583 155.874 310.859C155.565 310.942 155.246 310.986 154.925 310.991L154.82 311.004Z" fill="#73A6C8"/>
<path d="M169.5 31.3878C169.299 31.3042 169.092 31.2381 168.88 31.1904C170.449 21.2027 173.361 2.62221 157.39 0.214111C165.388 1.02997 173.98 7.09628 169.5 31.3878Z" fill="#73A6C8"/>
<path d="M156.572 310.925C163.583 310.24 169.499 308.082 176.76 304.819V304.937C168.458 308.372 164.281 310.109 156.546 310.925H156.572Z" fill="#73A6C8"/>
<path d="M156.322 310.925H156.164C165.797 309.017 168.604 303.872 154.478 283.291C154.658 283.206 154.83 283.104 154.991 282.988C165.639 298.937 169.263 308.635 156.309 310.964L156.322 310.925Z" fill="#73A6C8"/>
<path d="M156.243 278.804C156.195 278.658 156.133 278.517 156.059 278.383C163.464 274.764 163.464 274.764 193.733 261.039C193.733 261.197 193.733 261.394 193.733 261.539C181.28 267.421 168.696 272.974 156.19 278.804H156.243Z" fill="#73A6C8"/>
<path d="M180.45 302.135L180.029 302.358C178.711 297.858 175.944 293.226 155.809 282.199C155.925 282.033 156.026 281.856 156.112 281.672C168.38 288.581 179.475 295.331 180.516 302.095H180.45V302.135Z" fill="#73A6C8"/>
<path d="M149.127 142.2L148.086 142.003C161.606 81.7737 166.165 61.4825 167.852 38.4148L168.366 38.5069C166.851 62.4168 163.451 77.7339 149.14 142.2H149.127Z" fill="#73A6C8"/>
<path d="M294.04 224.075C291.022 228.536 288.637 232.063 278.78 238.55C278.925 238.274 278.952 237.958 279.189 237.734C280.729 236.481 282.358 235.342 284.064 234.326C288.274 231.352 291.83 227.55 294.514 223.154L294.04 224.115V224.075Z" fill="#73A6C8"/>
<path d="M152.053 143.911C151.865 143.72 151.667 143.54 151.46 143.371C194.814 95.2486 194.814 95.2486 206.95 76.7471C207.108 76.8787 207.319 77.0629 207.491 77.1813C196.118 95.3671 184.72 109.079 152.053 143.911Z" fill="#73A6C8"/>
<path d="M196.488 255.894C196.311 256.013 196.144 256.145 195.987 256.289C188.673 245.761 182.888 237.432 161.409 215.667C161.669 215.478 161.911 215.266 162.134 215.035C176.906 230.181 186.591 240.485 196.58 255.828L196.488 255.894Z" fill="#73A6C8"/>
<path d="M241.343 218.864C241.343 218.996 241.225 219.18 241.185 219.312C215.239 217.483 189.411 214.43 163.504 212.232C163.504 211.943 163.57 211.574 163.583 211.298C195.367 214.009 217.176 216.009 241.33 218.746V218.864H241.343Z" fill="#73A6C8"/>
<path d="M157.139 205.587L156.388 205.692C152.04 181.282 148.152 157.267 147.73 154.609C148.085 154.587 148.437 154.539 148.785 154.464C151.565 171.505 154.477 188.533 157.258 205.587H157.139Z" fill="#73A6C8"/>
<path d="M245.349 153.846C245.349 154.017 245.349 154.24 245.349 154.412C214.725 153.425 184.206 150.832 153.621 149.148C153.64 148.802 153.64 148.455 153.621 148.108C196.501 150.477 217.927 151.806 245.323 153.754V153.859L245.349 153.846Z" fill="#73A6C8"/>
<path d="M163.161 208.837C163.042 208.587 162.858 208.245 162.713 208.008C199.834 187.743 222.855 174.361 245.731 157.385C245.836 157.662 245.981 158.043 246.1 158.32C225.253 173.426 208.333 184.309 163.174 208.837H163.161Z" fill="#73A6C8"/>
<path d="M205.725 69.1279C205.581 69.2704 205.448 69.4244 205.329 69.5885C194.063 58.956 182.625 48.534 171.318 37.8884C171.472 37.7661 171.613 37.6295 171.74 37.4805C183.086 48.0077 194.524 58.4428 205.791 69.0621H205.725V69.1279Z" fill="#73A6C8"/>
<path d="M170.462 31.9538C170.276 31.8231 170.083 31.7044 169.882 31.5986C175.509 20.8213 179.225 12.0048 171.845 4.63574C173.348 5.1621 176.721 9.12297 176.457 14.4655C176.154 20.466 174.283 24.8875 170.462 31.9538Z" fill="#73A6C8"/>
<path d="M172.135 34.4012L171.964 33.9407C204.565 27.6375 204.565 27.6375 211.852 25.5715L212.313 25.9926C208.887 27.0717 200.875 29.5982 172.135 34.4012Z" fill="#73A6C8"/>
<path d="M261.571 58.6798H261.228H261.162C244.493 35.612 228.574 19.808 196.593 7.35962C221.946 17.4394 240.658 29.1378 261.571 58.6798Z" fill="#73A6C8"/>
<path d="M264.786 60.9957C264.575 60.772 264.285 60.6273 264.14 60.3378C263.428 59.0219 263.797 56.7322 263.652 55.1926C263.257 50.8238 260.727 43.6127 250.976 34.1382C255.084 37.367 258.446 41.4446 260.829 46.0916C263.213 50.7385 264.563 55.8451 264.786 61.0615V60.9957Z" fill="#73A6C8"/>
<path d="M213.618 23.374C213.373 23.2655 213.139 23.1332 212.92 22.9792C211.892 22.0976 211.444 20.1764 210.812 19.0315C207.689 13.0705 198.517 8.72802 194.103 6.63574C197.891 8.10525 201.481 10.0414 204.789 12.3994C210.416 17.2419 210.601 17.663 213.618 23.4266V23.374Z" fill="#73A6C8"/>
<path d="M209.757 22.6371C209.743 22.6978 209.743 22.7606 209.757 22.8213C195.512 14.6627 187.803 10.4913 173.716 4.80662L173.598 4.66187C186.127 9.61508 198.222 15.6012 209.757 22.5581V22.6371Z" fill="#73A6C8"/>
<path d="M246.838 214.14H246.219C248.854 197.836 250.739 186.059 250.027 160.965C250.288 160.958 250.548 160.932 250.805 160.886C251.029 177.598 251.213 190.783 246.851 214.088L246.838 214.14Z" fill="#73A6C8"/>
<path d="M188.805 4.93844L189.411 5.12267C178.488 2.81062 167.44 1.12787 156.323 0.0827637H155.888C166.905 1.03177 177.854 2.65337 188.673 4.93844H188.779H188.805Z" fill="#73A6C8"/>
<path d="M167.431 2.47763C164.505 1.66177 160.565 0.688006 157.574 0.174805H157.416C160.434 0.714324 164.426 1.60914 167.378 2.45132L167.431 2.47763Z" fill="#73A6C8"/>
<path d="M190.017 5.32L190.768 5.5437C187.329 5.17524 183.033 4.70152 172.149 3.80671L171.635 3.58301C176.155 3.96462 183.705 4.58309 189.912 5.28052H190.017V5.32Z" fill="#73A6C8"/>
<path d="M260.425 59.4034V59.6271C247.226 48.0041 233.126 37.4439 218.257 28.0455C218.264 27.9316 218.264 27.8173 218.257 27.7034C233.193 37.005 247.301 47.5711 260.425 59.285V59.4034Z" fill="#73A6C8"/>
<path d="M211.747 69.4832C211.512 69.3043 211.266 69.1417 211.009 68.9963C215.133 58.127 220.773 43.2573 214.87 27.835C214.988 27.835 223.87 40.0597 211.747 69.4832Z" fill="#73A6C8"/>
<path d="M254.719 154.28C254.704 153.927 254.669 153.576 254.613 153.227C270.097 150.135 273.747 149.279 284.671 146.49C284.671 146.963 284.671 147.095 284.777 147.542C273.8 150.358 270.281 151.174 254.719 154.28Z" fill="#73A6C8"/>
<path d="M248.406 148.595L248.037 148.78C238.694 125.607 232.527 110.303 212.353 78.1157C212.569 78.0318 212.78 77.9351 212.985 77.8262C225.359 97.6963 237.39 118.053 248.485 148.582H248.393L248.406 148.595Z" fill="#73A6C8"/>
<path d="M214.145 73.0362L213.921 72.3914C254.468 65.5356 254.468 65.5355 262.085 63.5222C262.256 63.7986 262.44 64.0617 262.625 64.3249C254.073 66.483 243.28 68.9437 214.145 73.0362Z" fill="#73A6C8"/>
<path d="M252.966 149.556C252.768 149.385 252.505 149.148 252.294 148.99C265.471 118.54 271.77 95.4065 265.274 67.2068C265.445 67.3515 278.781 91.3009 252.966 149.556Z" fill="#73A6C8"/>
<path d="M182.678 301.279H182.467C188.159 295.108 195.947 286.646 197.595 263.552C197.911 263.473 197.977 263.46 198.306 263.355C197.094 273.882 195.262 289.949 182.73 301.227L182.678 301.279Z" fill="#73A6C8"/>
<path d="M202.444 256.407L202.22 256.012C227.758 235.142 228.759 234.339 240.962 223.26L241.186 223.746C231.592 232.602 225.254 238.458 202.444 256.407Z" fill="#73A6C8"/>
<path d="M240.368 277.843L239.814 278.291C236.586 274.869 231.71 269.711 201.6 260.723C201.784 260.421 201.837 260.328 202.008 260C213.565 263.552 235.084 270.171 240.46 277.764L240.368 277.843Z" fill="#73A6C8"/>
<path d="M179.66 307.924L178.948 308.095C179.62 307.714 180.793 307.319 181.057 306.595C181.518 305.279 181.531 305.279 180.49 303.964L181.07 303.661C181.465 304.187 182.243 304.977 182.045 305.635C181.689 306.793 181.571 306.951 179.765 307.951H179.66V307.924Z" fill="#73A6C8"/>
<path d="M183.007 302.398C184.628 301.082 187.619 300.687 189.596 299.99C205.925 294.525 221.881 288.007 237.364 280.475C237.298 280.541 223.317 288.976 183.007 302.385V302.398Z" fill="#73A6C8"/>
<path d="M245.112 275.356L244.98 275.277C256.669 264.473 261.505 259.999 272.838 244.616L272.983 244.695C263.758 256.894 259.621 262.473 245.112 275.356Z" fill="#73A6C8"/>
<path d="M242.938 276.066L242.438 276.382C251.332 261.605 254.613 248.893 246.509 224.049C246.826 223.786 246.891 223.733 247.208 223.444C253.428 243.603 254.6 257.96 243.017 276.08H242.938V276.066Z" fill="#73A6C8"/>
<path d="M241.528 26.7691L245.296 29.4009L240.025 25.7427C240.517 26.0585 241.005 26.3875 241.488 26.7296L241.528 26.7691Z" fill="#73A6C8"/>
<path d="M245.073 29.5062L245.521 29.8615C229.708 19.7948 219.416 14.3865 196.132 6.89902L195.604 6.68848C217.176 13.5838 227.797 18.5316 245.02 29.4536L245.073 29.5062Z" fill="#73A6C8"/>
<path d="M297.176 106.644C297.176 106.802 297.176 107 297.176 107.144C289.902 94.1959 285.092 85.6425 268.265 67.5357C268.278 67.3781 268.278 67.2196 268.265 67.062C280.124 80.0236 287.253 88.2612 297.189 106.539L297.176 106.644Z" fill="#73A6C8"/>
<path d="M287.846 139.937H287.438C285.646 121.33 283.405 98.1699 267.013 68.2332H267.408C275.025 82.866 285.448 102.907 287.846 139.95V139.937Z" fill="#73A6C8"/>
<path d="M249.25 215.403C249.131 215.246 248.96 215.035 248.828 214.89C263.824 195.625 276.066 178.69 285.923 151.043C286.066 151.252 286.22 151.454 286.384 151.648C280.586 166.965 274.023 184.322 249.25 215.403Z" fill="#73A6C8"/>
<path d="M279.703 234.945L279.598 234.813C287.227 221.852 291.062 215.338 296.28 201.442L296.412 201.587C291.247 214.39 288.4 221.444 279.703 234.945Z" fill="#73A6C8"/>
<path d="M275.487 238.05C275.342 238.261 275.197 238.458 275.065 238.669C269.174 232.747 264.892 229.352 248.552 221.654C248.718 221.376 248.863 221.085 248.987 220.786C263.218 227.549 269.372 231.155 275.552 237.958L275.487 238.05Z" fill="#73A6C8"/>
<path d="M249.646 218.627C249.708 218.333 249.747 218.033 249.764 217.733C270.611 210.443 283.525 205.232 296.333 196.915C296.333 197.165 296.228 197.402 296.188 197.652C287.939 203.245 279.282 208.35 249.646 218.627Z" fill="#73A6C8"/>
<path d="M290.192 142.792C290.088 142.501 289.969 142.215 289.836 141.937C295.502 130.581 297.215 126.764 299.06 114.737C299.06 114.737 301.089 121.567 290.205 142.792H290.192Z" fill="#73A6C8"/>
<path d="M298.56 190.888C298.468 191.02 298.349 191.204 298.27 191.349C297.401 179.993 296.597 169.268 289.705 151.503C289.853 151.302 289.981 151.086 290.087 150.859C294.251 162.873 298.191 174.216 298.6 190.823L298.56 190.888Z" fill="#73A6C8"/>
<path d="M183.521 307.174C197.212 303.029 212.735 298.332 235.967 282.264C224.74 289.844 209.348 300.24 183.521 307.174Z" fill="#73A6C8"/>
<path d="M255.43 273.672C252.9 275.251 251.24 276.303 242.318 278.751C242.556 278.554 242.714 278.264 243.017 278.146C244.269 277.714 245.545 277.354 246.838 277.067C250.163 276.25 253.325 274.879 256.194 273.014L255.43 273.672Z" fill="#73A6C8"/>
<path d="M214.211 299.042C224.845 294.147 232.317 290.252 239.024 281.198L239.775 280.698C235.493 286.146 231.447 291.305 215.331 298.582L214.211 299.042Z" fill="#73A6C8"/>
<path d="M255.536 37.4543L252.808 35.2173L252.32 34.8093L254.429 36.5068L255.536 37.4543Z" fill="#73A6C8"/>
<path d="M298.243 106.092C295.436 103.92 295.608 98.2619 294.527 94.8801C291.549 85.3661 281.574 60.5614 253.269 35.783C270.254 51.2448 287.728 69.4174 298.243 106.092Z" fill="#73A6C8"/>
<path d="M297.322 93.9853C299.746 101.683 299.878 102.144 299.957 109.052C299.814 108.782 299.695 108.501 299.601 108.21C299.399 106.292 299.329 104.362 299.39 102.433C299.272 99.4858 297.862 95.7091 296.887 92.9194C297.045 93.2747 297.203 93.63 297.348 93.9853H297.322Z" fill="#73A6C8"/>
<path d="M179.962 2.12225C183.27 2.74072 188.264 3.64869 191.295 5.29356C189.753 4.85931 188.343 4.06978 186.788 3.66185C184.188 2.93842 181.548 2.36722 178.882 1.95117L179.936 2.12225H179.962Z" fill="#73A6C8"/>
<path d="M198.688 6.4515C196.751 6.09008 194.792 5.8571 192.824 5.75408L191.901 5.45142C193.842 5.55556 195.775 5.78411 197.686 6.13568L198.661 6.42518L198.688 6.4515Z" fill="#73A6C8"/>
<path d="M299.957 210.403C300.879 205.758 301.34 203.429 299.166 198.297C299.285 197.981 299.39 197.678 299.495 197.363C301.037 202.152 301.815 204.561 300.326 209.403C300.207 209.732 300.075 210.061 299.957 210.403Z" fill="#73A6C8"/>
<path d="M168.59 310.372C173.11 309.911 176.075 309.477 177.815 308.596L178.697 308.411C177.38 309.056 175.917 309.609 169.618 310.267L168.551 310.372H168.59Z" fill="#73A6C8"/>
<path d="M203.3 303.135C197.884 304.753 193.048 306.056 179.937 308.148C188.041 306.28 196.329 305.28 204.302 302.792L203.3 303.135Z" fill="#73A6C8"/>
<path d="M300.089 189.967C304.965 163.123 306.506 148.135 300.774 117.408C305.61 141.503 306.743 158.504 300.089 189.967Z" fill="#73A6C8"/>
<path d="M305.847 119.751C304.002 115.987 303.91 115.987 301.274 113.355L301.037 112.395C304.569 116.066 304.714 116.211 305.649 118.685L305.886 119.698L305.847 119.751Z" fill="#73A6C8"/>
<path d="M309.946 160.017C308.404 173.9 307.574 177.545 300.603 192.27C300.57 192.021 300.57 191.769 300.603 191.52C301.314 188.98 303.238 185.954 304.345 183.624C307.698 175.692 309.604 167.225 309.972 158.622C309.972 159.096 309.972 159.557 309.972 160.03L309.946 160.017Z" fill="#73A6C8"/>
<path d="M6.70551 199.85C7.1799 201.481 8.24728 205.324 7.74653 205.574C6.83729 205.271 3.59564 194.323 4.28086 193.862C4.74208 194.02 5.59861 196.257 6.70551 199.85Z" fill="#73A6C8"/>
<path d="M97.5112 299.95C99.0925 300.595 100.726 301.108 102.242 301.884C98.4295 300.658 94.7123 299.153 91.1201 297.384C91.2255 297.384 91.2255 297.384 97.498 300.016L97.5112 299.95Z" fill="#73A6C8"/>
<path d="M7.78625 121.448C6.61345 126.83 5.15075 128.028 4.76861 127.264C3.70123 125.356 6.08635 115.658 7.73354 115.421C8.11568 115.421 8.85362 116.132 7.73354 121.356L7.78625 121.448Z" fill="#73A6C8"/>
<path d="M154.306 311.017C150.999 311.017 148.456 310.898 148.442 310.898L154.306 311.017Z" fill="#73A6C8"/>
<path d="M44.3134 260.263C47.0148 263.368 47.476 264.5 46.9489 264.539C45.473 264.631 38.1595 256.525 39.0424 255.775C39.0424 255.775 39.0424 255.775 39.1742 255.775C39.9385 255.841 41.8888 257.578 44.2607 260.302L44.3134 260.263Z" fill="#73A6C8"/>
<path d="M152.185 0.0299975C149.747 0.0299975 148.231 0.135274 146.07 0.240546C146.07 0.240546 149.365 0.0168457 154.306 0.0168457H152.185V0.0299975Z" fill="#73A6C8"/>
<path d="M106.089 10.715C102.308 12.452 100.252 13.2021 99.9883 12.9652C99.9883 12.1625 108.396 8.68855 109.964 8.59644H110.03C109.898 8.7675 109.476 9.07016 106.076 10.6492L106.089 10.715Z" fill="#73A6C8"/>
<path d="M55.6066 54.0477C52.22 58.6534 49.3341 59.3113 49.1233 57.9954C48.807 55.9031 53.9594 49.6921 56.6213 49.6526C58.1367 49.6526 57.1616 51.9949 55.6066 54.0872V54.0477Z" fill="#73A6C8"/>
<path d="M100.529 294.042C103.639 296.173 103.257 296.489 102.94 296.542C101.135 296.779 93.3471 292.041 94.0719 291.147C94.1617 291.07 94.2712 291.02 94.3881 291.002C95.6005 291.081 97.8143 292.173 100.489 294.002L100.529 294.042Z" fill="#73A6C8"/>
<path d="M61.7084 129.633C61.0232 135.818 55.8313 137.239 53.5779 134.239C51.3246 131.238 52.919 123.711 57.8211 123.488C60.0876 123.488 62.1696 125.448 61.7084 129.633Z" fill="#73A6C8"/>
<path d="M79.1681 203.653C80.051 209.258 75.3466 210.653 72.2236 208.232C68.5339 205.376 68.2703 198.376 72.8693 197.836C73.0316 197.826 73.1945 197.826 73.3568 197.836C74.8576 197.976 76.2616 198.637 77.3238 199.705C78.3859 200.773 79.0387 202.179 79.1681 203.679V203.653Z" fill="#73A6C8"/>
<path d="M101.794 261.829C103.204 265.276 100.911 266.737 98.0385 265.513C94.6124 264.052 91.8978 258.763 94.6519 257.486C95.0436 257.32 95.465 257.235 95.8906 257.236C97.2037 257.381 98.4507 257.888 99.4929 258.698C100.535 259.509 101.332 260.593 101.794 261.829Z" fill="#73A6C8"/>
<path d="M103.968 50.1921C101.794 54.4819 96.9707 55.0083 96.0615 52.6528C95.2708 50.5342 97.9854 45.5338 102.268 45.3232C104.653 45.3232 105.365 47.3892 103.942 50.1921H103.968Z" fill="#73A6C8"/>
<path d="M135.976 9.39914C133.723 11.6625 131.1 11.8204 131.179 10.8072C131.259 9.79391 134.447 7.3595 136.45 7.2937C137.65 7.2937 137.03 8.41221 136.042 9.39914H135.976Z" fill="#73A6C8"/>
<path d="M148.772 309.425C149.747 310.004 149.76 310.096 149.774 310.148C149.497 310.53 145.82 309.043 145.82 308.543C145.82 308.438 145.926 308.385 146.137 308.385C147.082 308.531 147.982 308.886 148.772 309.425Z" fill="#73A6C8"/>
<path d="M153.687 148.372C153.595 154.846 146.097 156.175 142.724 152.846C141.825 151.949 141.215 150.806 140.97 149.561C140.726 148.317 140.858 147.028 141.35 145.859C141.842 144.69 142.672 143.694 143.733 142.997C144.794 142.301 146.039 141.937 147.309 141.95C148.161 141.914 149.011 142.056 149.804 142.367C150.598 142.678 151.318 143.15 151.918 143.755C152.518 144.359 152.986 145.082 153.29 145.877C153.595 146.672 153.73 147.521 153.687 148.372Z" fill="#73A6C8"/>
<path d="M156.441 280.396C156.164 283.844 151.737 284.659 149.721 282.37C149.232 281.858 148.912 281.21 148.803 280.512C148.693 279.814 148.799 279.099 149.107 278.462C149.415 277.826 149.91 277.299 150.526 276.951C151.141 276.602 151.849 276.45 152.554 276.514C153.082 276.455 153.616 276.514 154.118 276.687C154.62 276.86 155.077 277.143 155.456 277.515C155.834 277.887 156.125 278.339 156.307 278.837C156.489 279.335 156.557 279.868 156.507 280.396H156.441Z" fill="#73A6C8"/>
<path d="M163.596 211.272C163.332 217.298 156.203 218.246 153.054 215.009C152.317 214.162 151.847 213.117 151.701 212.005C151.555 210.893 151.74 209.763 152.233 208.755C152.727 207.747 153.506 206.907 154.475 206.339C155.443 205.771 156.558 205.5 157.679 205.561C161.751 205.679 163.715 208.521 163.556 211.272H163.596Z" fill="#73A6C8"/>
<path d="M172.333 35.1513C172.807 38.7964 168.379 39.428 166.047 37.5199C163.715 35.6119 163.912 31.4142 167.365 31.072H167.786C168.92 31.0856 170.011 31.509 170.857 32.2638C171.702 33.0186 172.245 34.0538 172.385 35.1776L172.333 35.1513Z" fill="#73A6C8"/>
<path d="M202.273 259.42C200.573 263.802 195.236 265 193.971 262.157C192.996 259.92 195.051 255.025 199.663 254.841C202.852 254.973 203.063 257.394 202.299 259.42H202.273Z" fill="#73A6C8"/>
<path d="M155.268 0.0300293C156.084 0.049185 156.898 0.11951 157.705 0.240578C157.705 0.240578 157.705 0.240578 157.35 0.240578C156.994 0.240578 156.388 0.135308 155.9 0.10899C155.202 0.10899 154.688 0.10899 154.306 0.10899H155.268V0.0300293Z" fill="#73A6C8"/>
<path d="M154.306 311.017C155.136 311.017 155.953 310.925 156.783 310.898C155.961 310.99 155.133 311.03 154.306 311.017Z" fill="#73A6C8"/>
<path d="M214.303 73.6415C215.291 78.0102 211.127 79.5893 207.714 77.326C204.301 75.0626 203.497 69.2727 207.253 68.3252C207.591 68.2533 207.935 68.2137 208.281 68.2068C209.755 68.3029 211.154 68.8909 212.253 69.8765C213.353 70.8621 214.088 72.1881 214.342 73.6415H214.303Z" fill="#73A6C8"/>
<path d="M171.7 3.62245C173.426 4.34619 173.993 4.85939 173.677 4.93835C173.558 4.93835 173.005 5.0831 171.041 4.26724C169.787 3.76018 168.586 3.12983 167.457 2.3855C167.457 2.3855 167.457 2.3855 167.615 2.3855C169.038 2.61928 170.424 3.03502 171.74 3.62245H171.7Z" fill="#73A6C8"/>
<path d="M181.676 303.279C179.33 304.595 176.537 305.49 176.774 304.766C177.011 304.043 181.267 301.24 183.244 301.213C184.206 301.213 183.547 301.924 183.323 302.134C182.815 302.571 182.263 302.955 181.676 303.279Z" fill="#73A6C8"/>
<path d="M254.705 155.333C254.494 158.688 252.623 160.978 250.027 161.017C244.585 160.807 244.203 151.99 247.313 149.293C248.038 148.642 248.973 148.273 249.948 148.253C252.966 148.372 254.903 151.28 254.666 155.333H254.705Z" fill="#73A6C8"/>
<path d="M249.355 219.825C247.602 225.273 242.582 226.404 241.158 223.667C239.735 220.93 242.41 214.193 246.838 214.14C249.407 214.245 250.409 216.535 249.355 219.825Z" fill="#73A6C8"/>
<path d="M216.688 25.7295C218.718 27.677 218.612 28.7034 217.466 28.7165C214.962 28.7165 208.729 23.4529 209.876 22.3344C210.041 22.2185 210.24 22.1586 210.442 22.1634C212.221 22.2686 214.923 24.0319 216.688 25.7295Z" fill="#73A6C8"/>
<path d="M179.08 308.346C176.207 308.964 173.809 309.332 173.4 309.359C173.611 309.227 183.152 307.095 183.613 307.069C182.125 307.64 180.591 308.08 179.027 308.385L179.08 308.346Z" fill="#73A6C8"/>
<path d="M290.811 146.898C290.811 151.727 288.505 153.661 286.581 151.846C283.841 149.28 283.761 140.002 287.385 139.871C289.349 139.95 290.785 142.897 290.811 146.898Z" fill="#73A6C8"/>
<path d="M267.013 63.9434C268.91 67.049 268.515 68.5359 267.013 68.1675C264.14 67.4569 259.027 59.7852 260.727 58.7325C260.861 58.6633 261.011 58.6272 261.162 58.6272C262.664 58.6272 265.115 60.9695 266.973 63.8908L267.013 63.9434Z" fill="#73A6C8"/>
<path d="M192.244 5.58323C193.816 5.99077 195.346 6.54137 196.817 7.2281C196.053 7.2281 186.459 4.20154 186.13 4.00415C188.198 4.38857 190.241 4.90279 192.244 5.54375V5.58323Z" fill="#73A6C8"/>
<path d="M241.739 279.225C238.616 281.751 235.954 283.028 235.967 282.317C235.967 281.199 242.806 275.435 244.862 275.264C245.586 275.264 244.967 276.343 243.333 277.896C242.753 278.435 242.147 278.935 241.739 279.212V279.225Z" fill="#73A6C8"/>
<path d="M277.963 239.932C275.486 243.88 272.929 245.669 272.692 244.248C272.31 242.261 276.975 234.892 279.281 234.695C280.414 234.695 279.887 236.905 277.963 239.958V239.932Z" fill="#73A6C8"/>
<path d="M299.957 196.047C298.639 200.823 296.939 202.429 296.307 201.442C295.187 199.692 297.625 190.138 299.838 189.888C300.853 189.993 300.906 192.52 299.957 196.047Z" fill="#73A6C8"/>
<path d="M300.8 111.697C301.973 115.829 301.736 117.987 300.8 117.408C298.81 116.224 296.069 106.236 297.624 105.802H297.716C298.573 105.868 299.851 108.302 300.826 111.71L300.8 111.697Z" fill="#73A6C8"/>
<path d="M249.632 32.6511C251.024 33.6746 252.345 34.7913 253.585 35.9935C253.177 35.8356 244.269 28.9534 244.15 28.7034C246.043 29.9197 247.869 31.2375 249.619 32.6511H249.632Z" fill="#73A6C8"/>
</g>
</svg>
